<?xml version="1.0" standalone="no"?>
<!DOCTYPE svg PUBLIC "-//W3C//DTD SVG 1.1//EN" "http://www.w3.org/Graphics/SVG/1.1/DTD/svg11.dtd" >
<svg>
<metadata>
Created by FontForge 20090914 at Mon Aug  5 10:15:45 2019
 By www-data
Copyright 2002, 2003, 2005, 2008, 2009, 2010, 2012 GNU Freefont contributors.
</metadata>
<defs>
<font id="FreeMono" horiz-adv-x="600" >
  <font-face 
    font-family="FreeMono"
    font-weight="400"
    font-stretch="normal"
    units-per-em="1000"
    panose-1="2 15 4 9 2 2 5 2 4 4"
    ascent="800"
    descent="-200"
    x-height="417"
    cap-height="563"
    bbox="-793.001 -200.205 699 800.003"
    underline-thickness="50"
    underline-position="-100"
    unicode-range="U+0020-U+10323"
  />
<missing-glyph 
d="M134 529c6.66699 2 20.333 7.83105 41 17.498s41.5 17.167 62.5 22.5s44.833 8 71.5 8c53.333 0 96.333 -14.167 129 -42.5s49 -65.5 49 -111.5c0 -37.333 -11.833 -68.666 -35.5 -93.999s-66.834 -52.666 -129.501 -81.999v-41c0 -18 -6.66699 -27 -20 -27
c-14 0 -21 9 -21 27v68c58.667 24.667 100.834 48.5 126.501 71.5s38.5 48.833 38.5 77.5c0 33.333 -13.333 60.5 -40 81.5s-60.667 31.5 -102 31.5c-40.667 0 -83.667 -11.333 -129 -34v-41c0 -18 -6.66699 -27 -20 -27c-14 0 -21 9 -21 27v68zM286.999 84.998h27.002
c17.333 0 31.166 -4.66699 41.499 -14s15.5 -21.333 15.5 -36s-5.33301 -26.667 -16 -36s-24.334 -14 -41.001 -14h-27c-17.333 0 -31.166 4.66699 -41.499 14s-15.5 21.333 -15.5 36s5.16699 26.667 15.5 36s24.166 14 41.499 14zM40.001 -80.002v723h520v-723h-520z
M73.001 -47.002h454v657h-454v-657z" />
    <glyph glyph-name="yodyodpatahhebrew" unicode="&#x5f2;&#x5b7;" 
d="M251 154h135c5.33301 0 10 -2 14 -6s6 -8.66699 6 -14c0 -6 -2 -11 -6 -15s-8.66699 -6 -14 -6h-135c-5.33301 0 -10.166 2 -14.499 6s-6.5 9 -6.5 15c0 5.33301 2.16699 10 6.5 14s9.16602 6 14.499 6zM450 480l-0.000976562 -240c0 -5.33301 -2 -10.166 -6 -14.499
s-8.66699 -6.5 -14 -6.5s-10.166 2.16699 -14.499 6.5s-6.5 9.16602 -6.5 14.499v199h-89c-5.33301 0 -10 2 -14 6s-6 9 -6 15c0 5.33301 2 10 6 14s8.66699 6 14 6h130zM239.999 480l-0.000976562 -240c0 -5.33301 -2 -10.166 -6 -14.499s-8.66699 -6.5 -14 -6.5
s-10.166 2.16699 -14.499 6.5s-6.5 9.16602 -6.5 14.499v199h-89c-5.33301 0 -10 2 -14 6s-6 9 -6 15c0 5.33301 2 10 6 14s8.66699 6 14 6h130z" />
    <glyph glyph-name="lamalefmaddaabovefinalarabic" unicode="&#xfedf;&#xfe82;" arabic-form="final" 
d="M284 263c8.66699 -7.33301 13.002 -13.667 13.002 -19c0 -8 -5.33301 -12 -16 -12c-8.66699 0 -18.334 3.33301 -29.001 10c-48 34 -85.333 75.5 -112 124.5s-40 114.833 -40 197.5h98c18 0 27 -6.66699 27 -20c0 -14 -9 -21 -27 -21h-48c0 -42 7.66699 -81 23 -117
s31.166 -63.167 47.499 -81.5s37.5 -38.833 63.5 -61.5zM420.002 296.999c0 -28 1.83301 -55.834 5.5 -83.501s9.16699 -55 16.5 -82s18.333 -49 33 -66s31.667 -25.5 51 -25.5h13c6 0 11 -2 15 -6s6 -8.66699 6 -14c0 -13.333 -7 -20 -21 -20h-42
c-28 0 -53.333 21.667 -76 65s-34 85.666 -34 126.999c-12.667 -41.333 -39.5 -83.666 -80.5 -126.999s-78.833 -65 -113.5 -65h-99c-6 0 -11 2 -15 6s-6 8.66699 -6 14c0 13.333 7 20 21 20h80c30.667 0 62.5 16.833 95.5 50.5s59.667 73.834 80 120.501
s30.5 88.667 30.5 126v224c0 13.333 6.66699 20 20 20s20 -6.66699 20 -20v-264zM227.502 665.748c9 0 19.5 5.75 31.5 17.25s19.75 17.25 23.25 17.25c4 0 7.5 -1.5 10.5 -4.5s4.5 -6.5 4.5 -10.5c0 -7.5 -7.875 -17.75 -23.625 -30.75s-30.625 -19.5 -44.625 -19.5
c-13 0 -30.25 6 -51.75 18s-35.25 18 -41.25 18c-12.5 0 -23.5 -5.625 -33 -16.875s-17.25 -16.875 -23.25 -16.875c-4 0 -7.5 1.375 -10.5 4.125s-4.5 6.125 -4.5 10.125c0 9 8.125 19.625 24.375 31.875s31.625 18.375 46.125 18.375c11.5 0 28.125 -6 49.875 -18
s35.875 -18 42.375 -18z" />
    <glyph glyph-name="lamalefhamzaaboveisolatedarabic" unicode="&#xfedf;&#xfe84;" arabic-form="isolated" 
d="M198 564c18 0 26.998 -6.66895 26.998 -20.002c0 -14 -9 -21 -27 -21h-48c0 -120.667 60.333 -220.667 181 -300c86 63.333 129 114 129 152v188c0 13.333 6.66699 20 20 20s20 -6.66699 20 -20v-197c0 -24.667 -13 -52 -39 -82s-56.667 -58.333 -92 -85
c29.333 -19.333 53 -38.333 71 -57s27 -38.667 27 -60c0 -25.333 -9.83301 -45.333 -29.5 -60s-49.834 -22 -90.501 -22h-182c0 38 11.667 72.667 35 104s55.333 62.333 96 93c-20 14.667 -38.167 28.834 -54.5 42.501s-33.666 31.667 -51.999 54
s-33.666 45.833 -45.999 70.5s-22.666 54.334 -30.999 89.001s-12.5 71.667 -12.5 111h98zM331.998 172.998c-29.333 -22 -55 -45.168 -77 -69.501s-33 -44.833 -33 -61.5h118c53.333 0 80 13 80 39c0 12.667 -7.83301 26.334 -23.5 41.001s-37.167 31.667 -64.5 51z
M182.528 748.752c-11.5244 0 -20.5312 -3.12109 -27.0137 -9.36328c-6.48242 -6.24316 -9.72363 -14.6465 -9.72363 -25.21c0 -10.084 3.36133 -18.3672 10.084 -24.8496s15.6064 -9.72363 26.6504 -9.72363c9.60352 0 17.7666 2.64062 24.4893 7.92285
c1.9209 1.9209 5.04199 2.88086 9.36328 2.88086c3.8418 0 7.32324 -1.2002 10.4443 -3.60156c3.12109 -2.40039 4.68164 -5.76172 4.68164 -10.083c0 -5.7627 -3.36133 -10.5645 -10.084 -14.4062l-102.999 -59.7822c-3.8418 -1.9209 -6.96289 -2.88184 -9.36328 -2.88184
c-3.36133 0 -6.60254 1.32031 -9.72461 3.96191c-3.12109 2.6416 -4.68164 6.12305 -4.68164 10.4443c0 5.76172 3.12109 10.3232 9.36426 13.6846l49.6982 28.8115c-24.9697 12.0049 -37.4541 31.2119 -37.4541 57.6221c0 17.7666 6.48242 32.8926 19.4473 45.377
c12.9658 12.4854 28.5723 18.7275 46.8193 18.7275c14.8857 0 28.5713 -4.56152 41.0566 -13.6855c4.32129 -3.36133 6.48242 -7.68262 6.48242 -12.9648c0 -4.32129 -1.32031 -7.80273 -3.96191 -10.4443c-2.64062 -2.64062 -5.88184 -3.96094 -9.72363 -3.96094
c-3.84082 0 -7.68262 1.2002 -11.5244 3.60156c-7.68262 5.28223 -15.125 7.92285 -22.3271 7.92285z" />
    <glyph glyph-name="lamalefhamzaabovefinalarabic" unicode="&#xfee0;&#xfe84;" arabic-form="final" 
d="M284 263c8.66699 -7.33301 13.002 -13.667 13.002 -19c0 -8 -5.33301 -12 -16 -12c-8.66699 0 -18.334 3.33301 -29.001 10c-48 34 -85.333 75.5 -112 124.5s-40 114.833 -40 197.5h98c18 0 27 -6.66699 27 -20c0 -14 -9 -21 -27 -21h-48c0 -42 7.66699 -81 23 -117
s31.166 -63.167 47.499 -81.5s37.5 -38.833 63.5 -61.5zM420.002 296.999c0 -28 1.83301 -55.834 5.5 -83.501s9.16699 -55 16.5 -82s18.333 -49 33 -66s31.667 -25.5 51 -25.5h13c6 0 11 -2 15 -6s6 -8.66699 6 -14c0 -13.333 -7 -20 -21 -20h-42
c-28 0 -53.333 21.667 -76 65s-34 85.666 -34 126.999c-12.667 -41.333 -39.5 -83.666 -80.5 -126.999s-78.833 -65 -113.5 -65h-99c-6 0 -11 2 -15 6s-6 8.66699 -6 14c0 13.333 7 20 21 20h80c30.667 0 62.5 16.833 95.5 50.5s59.667 73.834 80 120.501
s30.5 88.667 30.5 126v224c0 13.333 6.66699 20 20 20s20 -6.66699 20 -20v-264zM192.532 748.753c-11.5244 0 -20.5312 -3.12109 -27.0137 -9.36328c-6.48242 -6.24316 -9.72363 -14.6465 -9.72363 -25.21c0 -10.084 3.36133 -18.3672 10.084 -24.8496
s15.6064 -9.72363 26.6504 -9.72363c9.60352 0 17.7666 2.64062 24.4893 7.92285c1.9209 1.9209 5.04199 2.88086 9.36328 2.88086c3.8418 0 7.32324 -1.2002 10.4443 -3.60156c3.12109 -2.40039 4.68164 -5.76172 4.68164 -10.083
c0 -5.7627 -3.36133 -10.5645 -10.084 -14.4062l-102.999 -59.7822c-3.8418 -1.9209 -6.96289 -2.88184 -9.36328 -2.88184c-3.36133 0 -6.60254 1.32031 -9.72461 3.96191c-3.12109 2.6416 -4.68164 6.12305 -4.68164 10.4443c0 5.76172 3.12109 10.3232 9.36426 13.6846
l49.6982 28.8115c-24.9697 12.0049 -37.4541 31.2119 -37.4541 57.6221c0 17.7666 6.48242 32.8926 19.4473 45.377c12.9658 12.4854 28.5723 18.7275 46.8193 18.7275c14.8857 0 28.5713 -4.56152 41.0566 -13.6855c4.32129 -3.36133 6.48242 -7.68262 6.48242 -12.9648
c0 -4.32129 -1.32031 -7.80273 -3.96191 -10.4443c-2.64062 -2.64062 -5.88184 -3.96094 -9.72363 -3.96094c-3.84082 0 -7.68262 1.2002 -11.5244 3.60156c-7.68262 5.28223 -15.125 7.92285 -22.3271 7.92285z" />
    <glyph glyph-name="lamalefhamzabelowisolatedarabic" unicode="&#xfedf;&#xfe88;" arabic-form="isolated" 
d="M198 564c18 0 26.998 -6.66895 26.998 -20.002c0 -14 -9 -21 -27 -21h-48c0 -120.667 60.333 -220.667 181 -300c86 63.333 129 114 129 152v188c0 13.333 6.66699 20 20 20s20 -6.66699 20 -20v-197c0 -24.667 -13 -52 -39 -82s-56.667 -58.333 -92 -85
c29.333 -19.333 53 -38.333 71 -57s27 -38.667 27 -60c0 -25.333 -9.83301 -45.333 -29.5 -60s-49.834 -22 -90.501 -22h-182c0 38 11.667 72.667 35 104s55.333 62.333 96 93c-20 14.667 -38.167 28.834 -54.5 42.501s-33.666 31.667 -51.999 54
s-33.666 45.833 -45.999 70.5s-22.666 54.334 -30.999 89.001s-12.5 71.667 -12.5 111h98zM331.998 172.998c-29.333 -22 -55 -45.168 -77 -69.501s-33 -44.833 -33 -61.5h118c53.333 0 80 13 80 39c0 12.667 -7.83301 26.334 -23.5 41.001s-37.167 31.667 -64.5 51z
M199.528 -50.248c-11.5244 0 -20.5312 -3.12109 -27.0137 -9.36328c-6.48242 -6.24316 -9.72363 -14.6465 -9.72363 -25.21c0 -10.084 3.36133 -18.3672 10.084 -24.8496s15.6064 -9.72363 26.6504 -9.72363c9.60352 0 17.7666 2.64062 24.4893 7.92285
c1.9209 1.9209 5.04199 2.88086 9.36328 2.88086c3.8418 0 7.32324 -1.2002 10.4443 -3.60156c3.12109 -2.40039 4.68164 -5.76172 4.68164 -10.083c0 -5.7627 -3.36133 -10.5645 -10.084 -14.4062l-102.999 -59.7822c-3.8418 -1.9209 -6.96289 -2.88184 -9.36328 -2.88184
c-3.36133 0 -6.60254 1.32031 -9.72461 3.96191c-3.12109 2.6416 -4.68164 6.12305 -4.68164 10.4443c0 5.76172 3.12109 10.3232 9.36426 13.6846l49.6982 28.8115c-24.9697 12.0049 -37.4541 31.2119 -37.4541 57.6221c0 17.7666 6.48242 32.8926 19.4473 45.377
c12.9658 12.4854 28.5723 18.7275 46.8193 18.7275c14.8857 0 28.5713 -4.56152 41.0566 -13.6855c4.32129 -3.36133 6.48242 -7.68262 6.48242 -12.9648c0 -4.32129 -1.32031 -7.80273 -3.96191 -10.4443c-2.64062 -2.64062 -5.88184 -3.96094 -9.72363 -3.96094
c-3.84082 0 -7.68262 1.2002 -11.5244 3.60156c-7.68262 5.28223 -15.125 7.92285 -22.3271 7.92285z" />
    <glyph glyph-name="lamalefhamzabelowfinalarabic" unicode="&#xfee0;&#xfe88;" arabic-form="final" 
d="M284 263c8.66699 -7.33301 13.002 -13.667 13.002 -19c0 -8 -5.33301 -12 -16 -12c-8.66699 0 -18.334 3.33301 -29.001 10c-48 34 -85.333 75.5 -112 124.5s-40 114.833 -40 197.5h98c18 0 27 -6.66699 27 -20c0 -14 -9 -21 -27 -21h-48c0 -42 7.66699 -81 23 -117
s31.166 -63.167 47.499 -81.5s37.5 -38.833 63.5 -61.5zM420.002 296.999c0 -28 1.83301 -55.834 5.5 -83.501s9.16699 -55 16.5 -82s18.333 -49 33 -66s31.667 -25.5 51 -25.5h13c6 0 11 -2 15 -6s6 -8.66699 6 -14c0 -13.333 -7 -20 -21 -20h-42
c-28 0 -53.333 21.667 -76 65s-34 85.666 -34 126.999c-12.667 -41.333 -39.5 -83.666 -80.5 -126.999s-78.833 -65 -113.5 -65h-99c-6 0 -11 2 -15 6s-6 8.66699 -6 14c0 13.333 7 20 21 20h80c30.667 0 62.5 16.833 95.5 50.5s59.667 73.834 80 120.501
s30.5 88.667 30.5 126v224c0 13.333 6.66699 20 20 20s20 -6.66699 20 -20v-264zM199.532 -50.2471c-11.5244 0 -20.5312 -3.12109 -27.0137 -9.36328c-6.48242 -6.24316 -9.72363 -14.6465 -9.72363 -25.21c0 -10.084 3.36133 -18.3672 10.084 -24.8496
s15.6064 -9.72363 26.6504 -9.72363c9.60352 0 17.7666 2.64062 24.4893 7.92285c1.9209 1.9209 5.04199 2.88086 9.36328 2.88086c3.8418 0 7.32324 -1.2002 10.4443 -3.60156c3.12109 -2.40039 4.68164 -5.76172 4.68164 -10.083
c0 -5.7627 -3.36133 -10.5645 -10.084 -14.4062l-102.999 -59.7822c-3.8418 -1.9209 -6.96289 -2.88184 -9.36328 -2.88184c-3.36133 0 -6.60254 1.32031 -9.72461 3.96191c-3.12109 2.6416 -4.68164 6.12305 -4.68164 10.4443c0 5.76172 3.12109 10.3232 9.36426 13.6846
l49.6982 28.8115c-24.9697 12.0049 -37.4541 31.2119 -37.4541 57.6221c0 17.7666 6.48242 32.8926 19.4473 45.377c12.9658 12.4854 28.5723 18.7275 46.8193 18.7275c14.8857 0 28.5713 -4.56152 41.0566 -13.6855c4.32129 -3.36133 6.48242 -7.68262 6.48242 -12.9648
c0 -4.32129 -1.32031 -7.80273 -3.96191 -10.4443c-2.64062 -2.64062 -5.88184 -3.96094 -9.72363 -3.96094c-3.84082 0 -7.68262 1.2002 -11.5244 3.60156c-7.68262 5.28223 -15.125 7.92285 -22.3271 7.92285z" />
    <glyph glyph-name="lamalefisolatedarabic" unicode="&#xfedf;&#xfe8e;" arabic-form="isolated" 
d="M198 564c18 0 26.998 -6.66895 26.998 -20.002c0 -14 -9 -21 -27 -21h-48c0 -120.667 60.333 -220.667 181 -300c86 63.333 129 114 129 152v188c0 13.333 6.66699 20 20 20s20 -6.66699 20 -20v-197c0 -24.667 -13 -52 -39 -82s-56.667 -58.333 -92 -85
c29.333 -19.333 53 -38.333 71 -57s27 -38.667 27 -60c0 -25.333 -9.83301 -45.333 -29.5 -60s-49.834 -22 -90.501 -22h-182c0 38 11.667 72.667 35 104s55.333 62.333 96 93c-20 14.667 -38.167 28.834 -54.5 42.501s-33.666 31.667 -51.999 54
s-33.666 45.833 -45.999 70.5s-22.666 54.334 -30.999 89.001s-12.5 71.667 -12.5 111h98zM331.998 172.998c-29.333 -22 -55 -45.168 -77 -69.501s-33 -44.833 -33 -61.5h118c53.333 0 80 13 80 39c0 12.667 -7.83301 26.334 -23.5 41.001s-37.167 31.667 -64.5 51z" />
    <glyph glyph-name="lamaleffinalarabic" unicode="&#xfee0;&#xfe8e;" arabic-form="final" 
d="M284 263c8.66699 -7.33301 13.002 -13.667 13.002 -19c0 -8 -5.33301 -12 -16 -12c-8.66699 0 -18.334 3.33301 -29.001 10c-48 34 -85.333 75.5 -112 124.5s-40 114.833 -40 197.5h98c18 0 27 -6.66699 27 -20c0 -14 -9 -21 -27 -21h-48c0 -42 7.66699 -81 23 -117
s31.166 -63.167 47.499 -81.5s37.5 -38.833 63.5 -61.5zM420.002 296.999c0 -28 1.83301 -55.834 5.5 -83.501s9.16699 -55 16.5 -82s18.333 -49 33 -66s31.667 -25.5 51 -25.5h13c6 0 11 -2 15 -6s6 -8.66699 6 -14c0 -13.333 -7 -20 -21 -20h-42
c-28 0 -53.333 21.667 -76 65s-34 85.666 -34 126.999c-12.667 -41.333 -39.5 -83.666 -80.5 -126.999s-78.833 -65 -113.5 -65h-99c-6 0 -11 2 -15 6s-6 8.66699 -6 14c0 13.333 7 20 21 20h80c30.667 0 62.5 16.833 95.5 50.5s59.667 73.834 80 120.501
s30.5 88.667 30.5 126v224c0 13.333 6.66699 20 20 20s20 -6.66699 20 -20v-264z" />
    <glyph glyph-name="unifb50" unicode="&#x671;" arabic-form="isolated" 
d="M320 563v-563c0 -13.333 -6.66699 -20 -20 -20s-20 6.66699 -20 20v563c0 13.333 6.66699 20 20 20s20 -6.66699 20 -20zM239 670c-10.667 0 -20.335 -3.16602 -29.002 -9.49902s-15 -9.5 -19 -9.5c-12 0 -18 6.33301 -18 19c0 10 6.16699 18.667 18.5 26
s28.5 11 48.5 11h15c1.33301 8.66699 8.83301 17.667 22.5 27s26.834 14 39.501 14c56.667 0 85 -16.333 85 -49c0 -14.667 -7.16699 -25.834 -21.5 -33.501s-31.5 -11.5 -51.5 -11.5c-11.333 0 -26.666 2.66699 -45.999 8s-34 8 -44 8zM319.999 718.001
c-4.66699 0 -10.166 -2 -16.499 -6s-9.5 -7.33301 -9.5 -10c12 -6 24.667 -9 38 -9s23.333 2 30 6c0 4.66699 -4.83301 9 -14.5 13s-18.834 6 -27.501 6z" />
    <glyph glyph-name="alefwaslafinalarabic" unicode="&#x671;" arabic-form="final" 
d="M239 670c-10.667 0 -20.335 -3.16602 -29.002 -9.49902s-15 -9.5 -19 -9.5c-12 0 -18 6.33301 -18 19c0 10 6.16699 18.667 18.5 26s28.5 11 48.5 11h15c1.33301 8.66699 8.83301 17.667 22.5 27s26.834 14 39.501 14c56.667 0 85 -16.333 85 -49
c0 -14.667 -7.16699 -25.834 -21.5 -33.501s-31.5 -11.5 -51.5 -11.5c-11.333 0 -26.666 2.66699 -45.999 8s-34 8 -44 8zM319.999 718.001c-4.66699 0 -10.166 -2 -16.499 -6s-9.5 -7.33301 -9.5 -10c12 -6 24.667 -9 38 -9s23.333 2 30 6c0 4.66699 -4.83301 9 -14.5 13
s-18.834 6 -27.501 6zM600 40.001l0.000976562 -40h-173c-40.667 0 -75.334 14.667 -104.001 44s-43 65 -43 107v410c0 13.333 6.66699 20 20 20s20 -6.66699 20 -20v-404c0 -34 10 -62 30 -84s45.333 -33 76 -33h174z" />
    <glyph glyph-name="unifb52" unicode="&#x67b;" arabic-form="isolated" 
d="M340 -100c6 0 15.833 -7.16797 29.5 -21.501s20.5 -24.166 20.5 -29.499s-6.83301 -14.833 -20.5 -28.5s-23.5 -20.5 -29.5 -20.5s-15.833 6.83301 -29.5 20.5s-20.5 23.5 -20.5 29.5c0 5.33301 7 15 21 29s23.667 21 29 21zM270 -20.001
c6 0 15.833 -7.16797 29.5 -21.501s20.5 -24.166 20.5 -29.499s-6.83301 -14.833 -20.5 -28.5s-23.5 -20.5 -29.5 -20.5s-15.833 6.83301 -29.5 20.5s-20.5 23.5 -20.5 29.5c0 5.33301 7 15 21 29s23.667 21 29 21zM560 -0.00195312h-520v59l28 80
c2.66699 9.33301 9.33398 14 20.001 14c5.33301 0 10.166 -1.66699 14.499 -5s6.5 -8 6.5 -14c0 -2 -0.666992 -5 -2 -9l-28 -80v-5h440v150c0 18 6.66699 27 20 27c14 0 21 -9 21 -27v-190z" />
    <glyph glyph-name="unifb53" unicode="&#x67b;" arabic-form="final" 
d="M340 -100c6 0 15.833 -7.16797 29.5 -21.501s20.5 -24.166 20.5 -29.499s-6.83301 -14.833 -20.5 -28.5s-23.5 -20.5 -29.5 -20.5s-15.833 6.83301 -29.5 20.5s-20.5 23.5 -20.5 29.5c0 5.33301 7 15 21 29s23.667 21 29 21zM270 -20.001
c6 0 15.833 -7.16797 29.5 -21.501s20.5 -24.166 20.5 -29.499s-6.83301 -14.833 -20.5 -28.5s-23.5 -20.5 -29.5 -20.5s-15.833 6.83301 -29.5 20.5s-20.5 23.5 -20.5 29.5c0 5.33301 7 15 21 29s23.667 21 29 21zM560 39.998h40v-40h-560v59l28 80
c2.66699 9.33301 9.33398 14 20.001 14c5.33301 0 10.166 -1.66699 14.499 -5s6.5 -8 6.5 -14c0 -2 -0.666992 -5 -2 -9l-28 -80v-4h440v149c0 18 6.66699 27 20 27c14 0 21 -9 21 -27v-150z" />
    <glyph glyph-name="unifb54" unicode="&#x67b;" arabic-form="initial" 
d="M340 -100c6 0 15.833 -7.16797 29.5 -21.501s20.5 -24.166 20.5 -29.499s-6.83301 -14.833 -20.5 -28.5s-23.5 -20.5 -29.5 -20.5s-15.833 6.83301 -29.5 20.5s-20.5 23.5 -20.5 29.5c0 5.33301 7 15 21 29s23.667 21 29 21zM270 -20.001
c6 0 15.833 -7.16797 29.5 -21.501s20.5 -24.166 20.5 -29.499s-6.83301 -14.833 -20.5 -28.5s-23.5 -20.5 -29.5 -20.5s-15.833 6.83301 -29.5 20.5s-20.5 23.5 -20.5 29.5c0 5.33301 7 15 21 29s23.667 21 29 21zM321 -0.00195312h-321v40h280v150c0 18 6.66699 27 20 27
c14 0 21 -9 21 -27v-190z" />
    <glyph glyph-name="unifb55" unicode="&#x67b;" arabic-form="medial" 
d="M340 -100c6 0 15.833 -7.16797 29.5 -21.501s20.5 -24.166 20.5 -29.499s-6.83301 -14.833 -20.5 -28.5s-23.5 -20.5 -29.5 -20.5s-15.833 6.83301 -29.5 20.5s-20.5 23.5 -20.5 29.5c0 5.33301 7 15 21 29s23.667 21 29 21zM270 -20.001
c6 0 15.833 -7.16797 29.5 -21.501s20.5 -24.166 20.5 -29.499s-6.83301 -14.833 -20.5 -28.5s-23.5 -20.5 -29.5 -20.5s-15.833 6.83301 -29.5 20.5s-20.5 23.5 -20.5 29.5c0 5.33301 7 15 21 29s23.667 21 29 21zM321 39.998h279v-40h-600v40h280v150
c0 18 6.66699 27 20 27c14 0 21 -9 21 -27v-150z" />
    <glyph glyph-name="uniFB56" unicode="&#x67e;" arabic-form="isolated" 
d="M300 -200c-6 0 -15.833 7.16797 -29.5 21.501s-20.5 24.166 -20.5 29.499s6.83301 14.833 20.5 28.5s23.5 20.5 29.5 20.5s15.833 -6.83301 29.5 -20.5s20.5 -23.5 20.5 -29.5c0 -5.33301 -7 -15 -21 -29s-23.667 -21 -29 -21zM220 -129.999
c-6 0 -15.833 7.16797 -29.5 21.501s-20.5 24.166 -20.5 29.499s6.83301 14.833 20.5 28.5s23.5 20.5 29.5 20.5s15.833 -6.83301 29.5 -20.5s20.5 -23.5 20.5 -29.5c0 -5.33301 -7 -15 -21 -29s-23.667 -21 -29 -21zM380 -129.998c-6 0 -15.833 7.16797 -29.5 21.501
s-20.5 24.166 -20.5 29.499s6.83301 14.833 20.5 28.5s23.5 20.5 29.5 20.5s15.833 -6.83301 29.5 -20.5s20.5 -23.5 20.5 -29.5c0 -5.33301 -7 -15 -21 -29s-23.667 -21 -29 -21zM560 0.00292969h-520v59l28 80c2.66699 9.33301 9.33398 14 20.001 14
c5.33301 0 10.166 -1.66699 14.499 -5s6.5 -8 6.5 -14c0 -2 -0.666992 -5 -2 -9l-28 -80v-5h440v150c0 18 6.66699 27 20 27c14 0 21 -9 21 -27v-190z" />
    <glyph glyph-name="pehfinaarabic" unicode="&#x67e;" arabic-form="final" 
d="M300 -200c-6 0 -15.833 7.16797 -29.5 21.501s-20.5 24.166 -20.5 29.499s6.83301 14.833 20.5 28.5s23.5 20.5 29.5 20.5s15.833 -6.83301 29.5 -20.5s20.5 -23.5 20.5 -29.5c0 -5.33301 -7 -15 -21 -29s-23.667 -21 -29 -21zM220 -129.999
c-6 0 -15.833 7.16797 -29.5 21.501s-20.5 24.166 -20.5 29.499s6.83301 14.833 20.5 28.5s23.5 20.5 29.5 20.5s15.833 -6.83301 29.5 -20.5s20.5 -23.5 20.5 -29.5c0 -5.33301 -7 -15 -21 -29s-23.667 -21 -29 -21zM380 -129.998c-6 0 -15.833 7.16797 -29.5 21.501
s-20.5 24.166 -20.5 29.499s6.83301 14.833 20.5 28.5s23.5 20.5 29.5 20.5s15.833 -6.83301 29.5 -20.5s20.5 -23.5 20.5 -29.5c0 -5.33301 -7 -15 -21 -29s-23.667 -21 -29 -21zM560 40.0029h40v-40h-560v59l28 80c2.66699 9.33301 9.33398 14 20.001 14
c5.33301 0 10.166 -1.66699 14.499 -5s6.5 -8 6.5 -14c0 -2 -0.666992 -5 -2 -9l-28 -80v-4h440v149c0 18 6.66699 27 20 27c14 0 21 -9 21 -27v-150z" />
    <glyph glyph-name="pehinitarabic" unicode="&#x67e;" arabic-form="initial" 
d="M321 0h-321v40h280v150c0 18 6.66699 27 20 27c14 0 21 -9 21 -27v-190zM300 -200c-6 0 -15.833 7.16797 -29.5 21.501s-20.5 24.166 -20.5 29.499s6.83301 14.833 20.5 28.5s23.5 20.5 29.5 20.5s15.833 -6.83301 29.5 -20.5s20.5 -23.5 20.5 -29.5
c0 -5.33301 -7 -15 -21 -29s-23.667 -21 -29 -21zM220 -129.999c-6 0 -15.833 7.16797 -29.5 21.501s-20.5 24.166 -20.5 29.499s6.83301 14.833 20.5 28.5s23.5 20.5 29.5 20.5s15.833 -6.83301 29.5 -20.5s20.5 -23.5 20.5 -29.5c0 -5.33301 -7 -15 -21 -29
s-23.667 -21 -29 -21zM380 -129.998c-6 0 -15.833 7.16797 -29.5 21.501s-20.5 24.166 -20.5 29.499s6.83301 14.833 20.5 28.5s23.5 20.5 29.5 20.5s15.833 -6.83301 29.5 -20.5s20.5 -23.5 20.5 -29.5c0 -5.33301 -7 -15 -21 -29s-23.667 -21 -29 -21z" />
    <glyph glyph-name="pehmediarabic" unicode="&#x67e;" arabic-form="medial" 
d="M321 40h279v-40h-600v40h280v150c0 18 6.66699 27 20 27c14 0 21 -9 21 -27v-150zM300 -200c-6 0 -15.833 7.16797 -29.5 21.501s-20.5 24.166 -20.5 29.499s6.83301 14.833 20.5 28.5s23.5 20.5 29.5 20.5s15.833 -6.83301 29.5 -20.5s20.5 -23.5 20.5 -29.5
c0 -5.33301 -7 -15 -21 -29s-23.667 -21 -29 -21zM220 -129.999c-6 0 -15.833 7.16797 -29.5 21.501s-20.5 24.166 -20.5 29.499s6.83301 14.833 20.5 28.5s23.5 20.5 29.5 20.5s15.833 -6.83301 29.5 -20.5s20.5 -23.5 20.5 -29.5c0 -5.33301 -7 -15 -21 -29
s-23.667 -21 -29 -21zM380 -129.998c-6 0 -15.833 7.16797 -29.5 21.501s-20.5 24.166 -20.5 29.499s6.83301 14.833 20.5 28.5s23.5 20.5 29.5 20.5s15.833 -6.83301 29.5 -20.5s20.5 -23.5 20.5 -29.5c0 -5.33301 -7 -15 -21 -29s-23.667 -21 -29 -21z" />
    <glyph glyph-name="unifb5a" unicode="&#x680;" arabic-form="isolated" 
d="M299.996 -120.206c4.7998 0 12.665 -5.73438 23.5977 -17.2012c10.9336 -11.4658 16.4004 -19.332 16.4004 -23.5986s-5.4668 -11.8662 -16.4004 -22.7998c-10.9326 -10.9326 -18.7988 -16.3994 -23.5986 -16.3994s-12.666 5.4668 -23.5996 16.3994
c-10.9326 10.9336 -16.3994 18.7998 -16.3994 23.5996c0 4.2666 5.59961 12 16.7998 23.2002s18.9336 16.7998 23.2002 16.7998zM299.995 -32.207c4.7998 0 12.665 -5.73438 23.5977 -17.2012c10.9336 -11.4658 16.4004 -19.332 16.4004 -23.5986
s-5.4668 -11.8662 -16.4004 -22.7998c-10.9326 -10.9326 -18.7988 -16.3994 -23.5986 -16.3994s-12.666 5.4668 -23.5996 16.3994c-10.9326 10.9336 -16.3994 18.7998 -16.3994 23.5996c0 4.2666 5.59961 12 16.7998 23.2002s18.9336 16.7998 23.2002 16.7998z
M371.994 -76.208c4.7998 0 12.665 -5.73438 23.5977 -17.2012c10.9336 -11.4658 16.4004 -19.332 16.4004 -23.5986s-5.4668 -11.8662 -16.4004 -22.7998c-10.9326 -10.9326 -18.7988 -16.3994 -23.5986 -16.3994s-12.666 5.4668 -23.5996 16.3994
c-10.9326 10.9336 -16.3994 18.7998 -16.3994 23.5996c0 4.2666 5.59961 12 16.7998 23.2002s18.9336 16.7998 23.2002 16.7998zM227.993 -76.209c4.7998 0 12.665 -5.73438 23.5977 -17.2012c10.9336 -11.4658 16.4004 -19.332 16.4004 -23.5986
s-5.4668 -11.8662 -16.4004 -22.7998c-10.9326 -10.9326 -18.7988 -16.3994 -23.5986 -16.3994s-12.666 5.4668 -23.5996 16.3994c-10.9326 10.9336 -16.3994 18.7998 -16.3994 23.5996c0 4.2666 5.59961 12 16.7998 23.2002s18.9336 16.7998 23.2002 16.7998z
M559.996 -0.00390625h-520v59l28 80c2.66699 9.33301 9.33398 14 20.001 14c5.33301 0 10.166 -1.66699 14.499 -5s6.5 -8 6.5 -14c0 -2 -0.666992 -5 -2 -9l-28 -80v-5h440v150c0 18 6.66699 27 20 27c14 0 21 -9 21 -27v-190z" />
    <glyph glyph-name="unifb5b" unicode="&#x680;" arabic-form="final" 
d="M299.996 -120.206c4.7998 0 12.665 -5.73438 23.5977 -17.2012c10.9336 -11.4658 16.4004 -19.332 16.4004 -23.5986s-5.4668 -11.8662 -16.4004 -22.7998c-10.9326 -10.9326 -18.7988 -16.3994 -23.5986 -16.3994s-12.666 5.4668 -23.5996 16.3994
c-10.9326 10.9336 -16.3994 18.7998 -16.3994 23.5996c0 4.2666 5.59961 12 16.7998 23.2002s18.9336 16.7998 23.2002 16.7998zM299.995 -32.207c4.7998 0 12.665 -5.73438 23.5977 -17.2012c10.9336 -11.4658 16.4004 -19.332 16.4004 -23.5986
s-5.4668 -11.8662 -16.4004 -22.7998c-10.9326 -10.9326 -18.7988 -16.3994 -23.5986 -16.3994s-12.666 5.4668 -23.5996 16.3994c-10.9326 10.9336 -16.3994 18.7998 -16.3994 23.5996c0 4.2666 5.59961 12 16.7998 23.2002s18.9336 16.7998 23.2002 16.7998z
M371.994 -76.208c4.7998 0 12.665 -5.73438 23.5977 -17.2012c10.9336 -11.4658 16.4004 -19.332 16.4004 -23.5986s-5.4668 -11.8662 -16.4004 -22.7998c-10.9326 -10.9326 -18.7988 -16.3994 -23.5986 -16.3994s-12.666 5.4668 -23.5996 16.3994
c-10.9326 10.9336 -16.3994 18.7998 -16.3994 23.5996c0 4.2666 5.59961 12 16.7998 23.2002s18.9336 16.7998 23.2002 16.7998zM227.993 -76.209c4.7998 0 12.665 -5.73438 23.5977 -17.2012c10.9336 -11.4658 16.4004 -19.332 16.4004 -23.5986
s-5.4668 -11.8662 -16.4004 -22.7998c-10.9326 -10.9326 -18.7988 -16.3994 -23.5986 -16.3994s-12.666 5.4668 -23.5996 16.3994c-10.9326 10.9336 -16.3994 18.7998 -16.3994 23.5996c0 4.2666 5.59961 12 16.7998 23.2002s18.9336 16.7998 23.2002 16.7998z
M559.996 39.9961h40v-40h-560v59l28 80c2.66699 9.33301 9.33398 14 20.001 14c5.33301 0 10.166 -1.66699 14.499 -5s6.5 -8 6.5 -14c0 -2 -0.666992 -5 -2 -9l-28 -80v-4h440v149c0 18 6.66699 27 20 27c14 0 21 -9 21 -27v-150z" />
    <glyph glyph-name="unifb5c" unicode="&#x680;" arabic-form="initial" 
d="M299.996 -120.206c4.7998 0 12.665 -5.73438 23.5977 -17.2012c10.9336 -11.4658 16.4004 -19.332 16.4004 -23.5986s-5.4668 -11.8662 -16.4004 -22.7998c-10.9326 -10.9326 -18.7988 -16.3994 -23.5986 -16.3994s-12.666 5.4668 -23.5996 16.3994
c-10.9326 10.9336 -16.3994 18.7998 -16.3994 23.5996c0 4.2666 5.59961 12 16.7998 23.2002s18.9336 16.7998 23.2002 16.7998zM299.995 -32.207c4.7998 0 12.665 -5.73438 23.5977 -17.2012c10.9336 -11.4658 16.4004 -19.332 16.4004 -23.5986
s-5.4668 -11.8662 -16.4004 -22.7998c-10.9326 -10.9326 -18.7988 -16.3994 -23.5986 -16.3994s-12.666 5.4668 -23.5996 16.3994c-10.9326 10.9336 -16.3994 18.7998 -16.3994 23.5996c0 4.2666 5.59961 12 16.7998 23.2002s18.9336 16.7998 23.2002 16.7998z
M371.994 -76.208c4.7998 0 12.665 -5.73438 23.5977 -17.2012c10.9336 -11.4658 16.4004 -19.332 16.4004 -23.5986s-5.4668 -11.8662 -16.4004 -22.7998c-10.9326 -10.9326 -18.7988 -16.3994 -23.5986 -16.3994s-12.666 5.4668 -23.5996 16.3994
c-10.9326 10.9336 -16.3994 18.7998 -16.3994 23.5996c0 4.2666 5.59961 12 16.7998 23.2002s18.9336 16.7998 23.2002 16.7998zM227.993 -76.209c4.7998 0 12.665 -5.73438 23.5977 -17.2012c10.9336 -11.4658 16.4004 -19.332 16.4004 -23.5986
s-5.4668 -11.8662 -16.4004 -22.7998c-10.9326 -10.9326 -18.7988 -16.3994 -23.5986 -16.3994s-12.666 5.4668 -23.5996 16.3994c-10.9326 10.9336 -16.3994 18.7998 -16.3994 23.5996c0 4.2666 5.59961 12 16.7998 23.2002s18.9336 16.7998 23.2002 16.7998z
M320.996 -0.00390625h-321v40h280v150c0 18 6.66699 27 20 27c14 0 21 -9 21 -27v-190z" />
    <glyph glyph-name="unifb5d" unicode="&#x680;" arabic-form="medial" 
d="M299.996 -120.206c4.7998 0 12.665 -5.73438 23.5977 -17.2012c10.9336 -11.4658 16.4004 -19.332 16.4004 -23.5986s-5.4668 -11.8662 -16.4004 -22.7998c-10.9326 -10.9326 -18.7988 -16.3994 -23.5986 -16.3994s-12.666 5.4668 -23.5996 16.3994
c-10.9326 10.9336 -16.3994 18.7998 -16.3994 23.5996c0 4.2666 5.59961 12 16.7998 23.2002s18.9336 16.7998 23.2002 16.7998zM299.995 -32.207c4.7998 0 12.665 -5.73438 23.5977 -17.2012c10.9336 -11.4658 16.4004 -19.332 16.4004 -23.5986
s-5.4668 -11.8662 -16.4004 -22.7998c-10.9326 -10.9326 -18.7988 -16.3994 -23.5986 -16.3994s-12.666 5.4668 -23.5996 16.3994c-10.9326 10.9336 -16.3994 18.7998 -16.3994 23.5996c0 4.2666 5.59961 12 16.7998 23.2002s18.9336 16.7998 23.2002 16.7998z
M371.994 -76.208c4.7998 0 12.665 -5.73438 23.5977 -17.2012c10.9336 -11.4658 16.4004 -19.332 16.4004 -23.5986s-5.4668 -11.8662 -16.4004 -22.7998c-10.9326 -10.9326 -18.7988 -16.3994 -23.5986 -16.3994s-12.666 5.4668 -23.5996 16.3994
c-10.9326 10.9336 -16.3994 18.7998 -16.3994 23.5996c0 4.2666 5.59961 12 16.7998 23.2002s18.9336 16.7998 23.2002 16.7998zM227.993 -76.209c4.7998 0 12.665 -5.73438 23.5977 -17.2012c10.9336 -11.4658 16.4004 -19.332 16.4004 -23.5986
s-5.4668 -11.8662 -16.4004 -22.7998c-10.9326 -10.9326 -18.7988 -16.3994 -23.5986 -16.3994s-12.666 5.4668 -23.5996 16.3994c-10.9326 10.9336 -16.3994 18.7998 -16.3994 23.5996c0 4.2666 5.59961 12 16.7998 23.2002s18.9336 16.7998 23.2002 16.7998z
M320.996 39.9961h279v-40h-600v40h280v150c0 18 6.66699 27 20 27c14 0 21 -9 21 -27v-150z" />
    <glyph glyph-name="unifb5e" unicode="&#x67a;" arabic-form="isolated" 
d="M340 306c6 0 15.833 -7.16797 29.5 -21.501s20.5 -24.166 20.5 -29.499s-6.83301 -14.833 -20.5 -28.5s-23.5 -20.5 -29.5 -20.5s-15.833 6.83301 -29.5 20.5s-20.5 23.5 -20.5 29.5c0 5.33301 7 15 21 29s23.667 21 29 21zM270 385.999
c6 0 15.833 -7.16797 29.5 -21.501s20.5 -24.166 20.5 -29.499s-6.83301 -14.833 -20.5 -28.5s-23.5 -20.5 -29.5 -20.5s-15.833 6.83301 -29.5 20.5s-20.5 23.5 -20.5 29.5c0 5.33301 7 15 21 29s23.667 21 29 21zM560 -0.00195312h-520v59l28 80
c2.66699 9.33301 9.33398 14 20.001 14c5.33301 0 10.166 -1.66699 14.499 -5s6.5 -8 6.5 -14c0 -2 -0.666992 -5 -2 -9l-28 -80v-5h440v150c0 18 6.66699 27 20 27c14 0 21 -9 21 -27v-190z" />
    <glyph glyph-name="ttehehfinaarabic" unicode="&#x67a;" arabic-form="final" 
d="M340 306c6 0 15.833 -7.16797 29.5 -21.501s20.5 -24.166 20.5 -29.499s-6.83301 -14.833 -20.5 -28.5s-23.5 -20.5 -29.5 -20.5s-15.833 6.83301 -29.5 20.5s-20.5 23.5 -20.5 29.5c0 5.33301 7 15 21 29s23.667 21 29 21zM270 385.999
c6 0 15.833 -7.16797 29.5 -21.501s20.5 -24.166 20.5 -29.499s-6.83301 -14.833 -20.5 -28.5s-23.5 -20.5 -29.5 -20.5s-15.833 6.83301 -29.5 20.5s-20.5 23.5 -20.5 29.5c0 5.33301 7 15 21 29s23.667 21 29 21zM560 39.998h40v-40h-560v59l28 80
c2.66699 9.33301 9.33398 14 20.001 14c5.33301 0 10.166 -1.66699 14.499 -5s6.5 -8 6.5 -14c0 -2 -0.666992 -5 -2 -9l-28 -80v-4h440v149c0 18 6.66699 27 20 27c14 0 21 -9 21 -27v-150z" />
    <glyph glyph-name="ttehehinitarabic" unicode="&#x67a;" arabic-form="initial" 
d="M300 396c6 0 15.833 -7.16797 29.5 -21.501s20.5 -24.166 20.5 -29.499s-6.83301 -14.833 -20.5 -28.5s-23.5 -20.5 -29.5 -20.5s-15.833 6.83301 -29.5 20.5s-20.5 23.5 -20.5 29.5c0 5.33301 7 15 21 29s23.667 21 29 21zM230 475.999
c6 0 15.833 -7.16797 29.5 -21.501s20.5 -24.166 20.5 -29.499s-6.83301 -14.833 -20.5 -28.5s-23.5 -20.5 -29.5 -20.5s-15.833 6.83301 -29.5 20.5s-20.5 23.5 -20.5 29.5c0 5.33301 7 15 21 29s23.667 21 29 21zM321 -0.00195312h-321v40h280v150c0 18 6.66699 27 20 27
c14 0 21 -9 21 -27v-190z" />
    <glyph glyph-name="ttehehmediarabic" unicode="&#x67a;" arabic-form="medial" 
d="M300 396c6 0 15.833 -7.16797 29.5 -21.501s20.5 -24.166 20.5 -29.499s-6.83301 -14.833 -20.5 -28.5s-23.5 -20.5 -29.5 -20.5s-15.833 6.83301 -29.5 20.5s-20.5 23.5 -20.5 29.5c0 5.33301 7 15 21 29s23.667 21 29 21zM230 475.999
c6 0 15.833 -7.16797 29.5 -21.501s20.5 -24.166 20.5 -29.499s-6.83301 -14.833 -20.5 -28.5s-23.5 -20.5 -29.5 -20.5s-15.833 6.83301 -29.5 20.5s-20.5 23.5 -20.5 29.5c0 5.33301 7 15 21 29s23.667 21 29 21zM321 39.998h279v-40h-600v40h280v150
c0 18 6.66699 27 20 27c14 0 21 -9 21 -27v-150z" />
    <glyph glyph-name="unifb62" unicode="&#x67f;" arabic-form="isolated" 
d="M299.996 298.794c4.7998 0 12.665 -5.73438 23.5977 -17.2012c10.9336 -11.4658 16.4004 -19.332 16.4004 -23.5986s-5.4668 -11.8662 -16.4004 -22.7998c-10.9326 -10.9326 -18.7988 -16.3994 -23.5986 -16.3994s-12.666 5.4668 -23.5996 16.3994
c-10.9326 10.9336 -16.3994 18.7998 -16.3994 23.5996c0 4.2666 5.59961 12 16.7998 23.2002s18.9336 16.7998 23.2002 16.7998zM299.995 386.793c4.7998 0 12.665 -5.73438 23.5977 -17.2012c10.9336 -11.4658 16.4004 -19.332 16.4004 -23.5986
s-5.4668 -11.8662 -16.4004 -22.7998c-10.9326 -10.9326 -18.7988 -16.3994 -23.5986 -16.3994s-12.666 5.4668 -23.5996 16.3994c-10.9326 10.9336 -16.3994 18.7998 -16.3994 23.5996c0 4.2666 5.59961 12 16.7998 23.2002s18.9336 16.7998 23.2002 16.7998z
M371.994 342.792c4.7998 0 12.665 -5.73438 23.5977 -17.2012c10.9336 -11.4658 16.4004 -19.332 16.4004 -23.5986s-5.4668 -11.8662 -16.4004 -22.7998c-10.9326 -10.9326 -18.7988 -16.3994 -23.5986 -16.3994s-12.666 5.4668 -23.5996 16.3994
c-10.9326 10.9336 -16.3994 18.7998 -16.3994 23.5996c0 4.2666 5.59961 12 16.7998 23.2002s18.9336 16.7998 23.2002 16.7998zM227.993 342.791c4.7998 0 12.665 -5.73438 23.5977 -17.2012c10.9336 -11.4658 16.4004 -19.332 16.4004 -23.5986
s-5.4668 -11.8662 -16.4004 -22.7998c-10.9326 -10.9326 -18.7988 -16.3994 -23.5986 -16.3994s-12.666 5.4668 -23.5996 16.3994c-10.9326 10.9336 -16.3994 18.7998 -16.3994 23.5996c0 4.2666 5.59961 12 16.7998 23.2002s18.9336 16.7998 23.2002 16.7998z
M559.996 -0.00390625h-520v59l28 80c2.66699 9.33301 9.33398 14 20.001 14c5.33301 0 10.166 -1.66699 14.499 -5s6.5 -8 6.5 -14c0 -2 -0.666992 -5 -2 -9l-28 -80v-5h440v150c0 18 6.66699 27 20 27c14 0 21 -9 21 -27v-190z" />
    <glyph glyph-name="unifb63" unicode="&#x67f;" arabic-form="final" 
d="M299.996 298.794c4.7998 0 12.665 -5.73438 23.5977 -17.2012c10.9336 -11.4658 16.4004 -19.332 16.4004 -23.5986s-5.4668 -11.8662 -16.4004 -22.7998c-10.9326 -10.9326 -18.7988 -16.3994 -23.5986 -16.3994s-12.666 5.4668 -23.5996 16.3994
c-10.9326 10.9336 -16.3994 18.7998 -16.3994 23.5996c0 4.2666 5.59961 12 16.7998 23.2002s18.9336 16.7998 23.2002 16.7998zM299.995 386.793c4.7998 0 12.665 -5.73438 23.5977 -17.2012c10.9336 -11.4658 16.4004 -19.332 16.4004 -23.5986
s-5.4668 -11.8662 -16.4004 -22.7998c-10.9326 -10.9326 -18.7988 -16.3994 -23.5986 -16.3994s-12.666 5.4668 -23.5996 16.3994c-10.9326 10.9336 -16.3994 18.7998 -16.3994 23.5996c0 4.2666 5.59961 12 16.7998 23.2002s18.9336 16.7998 23.2002 16.7998z
M371.994 342.792c4.7998 0 12.665 -5.73438 23.5977 -17.2012c10.9336 -11.4658 16.4004 -19.332 16.4004 -23.5986s-5.4668 -11.8662 -16.4004 -22.7998c-10.9326 -10.9326 -18.7988 -16.3994 -23.5986 -16.3994s-12.666 5.4668 -23.5996 16.3994
c-10.9326 10.9336 -16.3994 18.7998 -16.3994 23.5996c0 4.2666 5.59961 12 16.7998 23.2002s18.9336 16.7998 23.2002 16.7998zM227.993 342.791c4.7998 0 12.665 -5.73438 23.5977 -17.2012c10.9336 -11.4658 16.4004 -19.332 16.4004 -23.5986
s-5.4668 -11.8662 -16.4004 -22.7998c-10.9326 -10.9326 -18.7988 -16.3994 -23.5986 -16.3994s-12.666 5.4668 -23.5996 16.3994c-10.9326 10.9336 -16.3994 18.7998 -16.3994 23.5996c0 4.2666 5.59961 12 16.7998 23.2002s18.9336 16.7998 23.2002 16.7998z
M559.996 39.9961h40v-40h-560v59l28 80c2.66699 9.33301 9.33398 14 20.001 14c5.33301 0 10.166 -1.66699 14.499 -5s6.5 -8 6.5 -14c0 -2 -0.666992 -5 -2 -9l-28 -80v-4h440v149c0 18 6.66699 27 20 27c14 0 21 -9 21 -27v-150z" />
    <glyph glyph-name="unifb64" unicode="&#x67f;" arabic-form="initial" 
d="M299.996 348.794c4.7998 0 12.665 -5.73438 23.5977 -17.2012c10.9336 -11.4658 16.4004 -19.332 16.4004 -23.5986s-5.4668 -11.8662 -16.4004 -22.7998c-10.9326 -10.9326 -18.7988 -16.3994 -23.5986 -16.3994s-12.666 5.4668 -23.5996 16.3994
c-10.9326 10.9336 -16.3994 18.7998 -16.3994 23.5996c0 4.2666 5.59961 12 16.7998 23.2002s18.9336 16.7998 23.2002 16.7998zM299.995 436.793c4.7998 0 12.665 -5.73438 23.5977 -17.2012c10.9336 -11.4658 16.4004 -19.332 16.4004 -23.5986
s-5.4668 -11.8662 -16.4004 -22.7998c-10.9326 -10.9326 -18.7988 -16.3994 -23.5986 -16.3994s-12.666 5.4668 -23.5996 16.3994c-10.9326 10.9336 -16.3994 18.7998 -16.3994 23.5996c0 4.2666 5.59961 12 16.7998 23.2002s18.9336 16.7998 23.2002 16.7998z
M371.994 392.792c4.7998 0 12.665 -5.73438 23.5977 -17.2012c10.9336 -11.4658 16.4004 -19.332 16.4004 -23.5986s-5.4668 -11.8662 -16.4004 -22.7998c-10.9326 -10.9326 -18.7988 -16.3994 -23.5986 -16.3994s-12.666 5.4668 -23.5996 16.3994
c-10.9326 10.9336 -16.3994 18.7998 -16.3994 23.5996c0 4.2666 5.59961 12 16.7998 23.2002s18.9336 16.7998 23.2002 16.7998zM227.993 392.791c4.7998 0 12.665 -5.73438 23.5977 -17.2012c10.9336 -11.4658 16.4004 -19.332 16.4004 -23.5986
s-5.4668 -11.8662 -16.4004 -22.7998c-10.9326 -10.9326 -18.7988 -16.3994 -23.5986 -16.3994s-12.666 5.4668 -23.5996 16.3994c-10.9326 10.9336 -16.3994 18.7998 -16.3994 23.5996c0 4.2666 5.59961 12 16.7998 23.2002s18.9336 16.7998 23.2002 16.7998z
M320.996 -0.00390625h-321v40h280v150c0 18 6.66699 27 20 27c14 0 21 -9 21 -27v-190z" />
    <glyph glyph-name="unifb65" unicode="&#x67f;" arabic-form="medial" 
d="M299.996 348.794c4.7998 0 12.665 -5.73438 23.5977 -17.2012c10.9336 -11.4658 16.4004 -19.332 16.4004 -23.5986s-5.4668 -11.8662 -16.4004 -22.7998c-10.9326 -10.9326 -18.7988 -16.3994 -23.5986 -16.3994s-12.666 5.4668 -23.5996 16.3994
c-10.9326 10.9336 -16.3994 18.7998 -16.3994 23.5996c0 4.2666 5.59961 12 16.7998 23.2002s18.9336 16.7998 23.2002 16.7998zM299.995 436.793c4.7998 0 12.665 -5.73438 23.5977 -17.2012c10.9336 -11.4658 16.4004 -19.332 16.4004 -23.5986
s-5.4668 -11.8662 -16.4004 -22.7998c-10.9326 -10.9326 -18.7988 -16.3994 -23.5986 -16.3994s-12.666 5.4668 -23.5996 16.3994c-10.9326 10.9336 -16.3994 18.7998 -16.3994 23.5996c0 4.2666 5.59961 12 16.7998 23.2002s18.9336 16.7998 23.2002 16.7998z
M371.994 392.792c4.7998 0 12.665 -5.73438 23.5977 -17.2012c10.9336 -11.4658 16.4004 -19.332 16.4004 -23.5986s-5.4668 -11.8662 -16.4004 -22.7998c-10.9326 -10.9326 -18.7988 -16.3994 -23.5986 -16.3994s-12.666 5.4668 -23.5996 16.3994
c-10.9326 10.9336 -16.3994 18.7998 -16.3994 23.5996c0 4.2666 5.59961 12 16.7998 23.2002s18.9336 16.7998 23.2002 16.7998zM227.993 392.791c4.7998 0 12.665 -5.73438 23.5977 -17.2012c10.9336 -11.4658 16.4004 -19.332 16.4004 -23.5986
s-5.4668 -11.8662 -16.4004 -22.7998c-10.9326 -10.9326 -18.7988 -16.3994 -23.5986 -16.3994s-12.666 5.4668 -23.5996 16.3994c-10.9326 10.9336 -16.3994 18.7998 -16.3994 23.5996c0 4.2666 5.59961 12 16.7998 23.2002s18.9336 16.7998 23.2002 16.7998z
M320.996 39.9961h279v-40h-600v40h280v150c0 18 6.66699 27 20 27c14 0 21 -9 21 -27v-150z" />
    <glyph glyph-name="unifb66" unicode="&#x679;" arabic-form="isolated" 
d="M560 0h-520v59l28 80c2.66699 9.33301 9.33398 14 20.001 14c5.33301 0 10.166 -1.66699 14.499 -5s6.5 -8 6.5 -14c0 -2 -0.666992 -5 -2 -9l-28 -80v-5h440v150c0 18 6.66699 27 20 27c14 0 21 -9 21 -27v-190zM337 334c-16 0 -33.667 -7.83203 -53 -23.499
s-35.333 -32.834 -48 -51.501v-4c36 -6 68.667 -9 98 -9c16 0 28.333 4.16699 37 12.5s13 19.5 13 33.5c0 12 -4.33301 22 -13 30s-20 12 -34 12zM264 437.001c10.667 0 16 -4 16 -12c0 -8.66699 -5.33301 -13 -16 -13h-28v-118c10.667 16 25.5 30.667 44.5 44
s38.167 20 57.5 20c20 0 36.667 -6.16699 50 -18.5s20 -28.5 20 -48.5c0 -22 -6.83301 -39.167 -20.5 -51.5s-31.834 -18.5 -54.501 -18.5c-31.333 0 -63.666 3.33301 -96.999 10h-27c-10.667 0 -16 4 -16 12s5.33301 12 16 12h2v182h53z" />
    <glyph glyph-name="ttehfinaarabic" unicode="&#x679;" arabic-form="final" 
d="M337 334c-16 0 -33.667 -7.83203 -53 -23.499s-35.333 -32.834 -48 -51.501v-4c36 -6 68.667 -9 98 -9c16 0 28.333 4.16699 37 12.5s13 19.5 13 33.5c0 12 -4.33301 22 -13 30s-20 12 -34 12zM264 437.001c10.667 0 16 -4 16 -12c0 -8.66699 -5.33301 -13 -16 -13h-28
v-118c10.667 16 25.5 30.667 44.5 44s38.167 20 57.5 20c20 0 36.667 -6.16699 50 -18.5s20 -28.5 20 -48.5c0 -22 -6.83301 -39.167 -20.5 -51.5s-31.834 -18.5 -54.501 -18.5c-31.333 0 -63.666 3.33301 -96.999 10h-27c-10.667 0 -16 4 -16 12s5.33301 12 16 12h2v182h53
zM560 40.001h40v-40h-560v59l28 80c2.66699 9.33301 9.33398 14 20.001 14c5.33301 0 10.166 -1.66699 14.499 -5s6.5 -8 6.5 -14c0 -2 -0.666992 -5 -2 -9l-28 -80v-4h440v149c0 18 6.66699 27 20 27c14 0 21 -9 21 -27v-150z" />
    <glyph glyph-name="ttehinitarabic" unicode="&#x679;" arabic-form="initial" 
d="M337 399c-16 0 -33.667 -7.83203 -53 -23.499s-35.333 -32.834 -48 -51.501v-4c36 -6 68.667 -9 98 -9c16 0 28.333 4.16699 37 12.5s13 19.5 13 33.5c0 12 -4.33301 22 -13 30s-20 12 -34 12zM264 502.001c10.667 0 16 -4 16 -12c0 -8.66699 -5.33301 -13 -16 -13h-28
v-118c10.667 16 25.5 30.667 44.5 44s38.167 20 57.5 20c20 0 36.667 -6.16699 50 -18.5s20 -28.5 20 -48.5c0 -22 -6.83301 -39.167 -20.5 -51.5s-31.834 -18.5 -54.501 -18.5c-31.333 0 -63.666 3.33301 -96.999 10h-27c-10.667 0 -16 4 -16 12s5.33301 12 16 12h2v182h53
zM321 0.000976562h-321v40h280v150c0 18 6.66699 27 20 27c14 0 21 -9 21 -27v-190z" />
    <glyph glyph-name="ttehmediarabic" unicode="&#x679;" arabic-form="medial" 
d="M337 399c-16 0 -33.667 -7.83203 -53 -23.499s-35.333 -32.834 -48 -51.501v-4c36 -6 68.667 -9 98 -9c16 0 28.333 4.16699 37 12.5s13 19.5 13 33.5c0 12 -4.33301 22 -13 30s-20 12 -34 12zM264 502.001c10.667 0 16 -4 16 -12c0 -8.66699 -5.33301 -13 -16 -13h-28
v-118c10.667 16 25.5 30.667 44.5 44s38.167 20 57.5 20c20 0 36.667 -6.16699 50 -18.5s20 -28.5 20 -48.5c0 -22 -6.83301 -39.167 -20.5 -51.5s-31.834 -18.5 -54.501 -18.5c-31.333 0 -63.666 3.33301 -96.999 10h-27c-10.667 0 -16 4 -16 12s5.33301 12 16 12h2v182h53
zM321 40.001h279v-40h-600v40h280v150c0 18 6.66699 27 20 27c14 0 21 -9 21 -27v-150z" />
    <glyph glyph-name="unifb6a" unicode="&#x6a4;" arabic-form="isolated" 
d="M450 486c6 0 15.833 -7.16797 29.5 -21.501s20.5 -24.166 20.5 -29.499s-6.83301 -14.833 -20.5 -28.5s-23.5 -20.5 -29.5 -20.5s-15.833 6.83301 -29.5 20.5s-20.5 23.5 -20.5 29.5c0 5.33301 7 15 21 29s23.667 21 29 21zM530 415.999
c6 0 15.833 -7.16797 29.5 -21.501s20.5 -24.166 20.5 -29.499s-6.83301 -14.833 -20.5 -28.5s-23.5 -20.5 -29.5 -20.5s-15.833 6.83301 -29.5 20.5s-20.5 23.5 -20.5 29.5c0 5.33301 7 15 21 29s23.667 21 29 21zM370 415.998c6 0 15.833 -7.16797 29.5 -21.501
s20.5 -24.166 20.5 -29.499s-6.83301 -14.833 -20.5 -28.5s-23.5 -20.5 -29.5 -20.5s-15.833 6.83301 -29.5 20.5s-20.5 23.5 -20.5 29.5c0 5.33301 7 15 21 29s23.667 21 29 21zM467 218.997c-16 0 -28.667 -4.5 -38 -13.5s-14 -20.833 -14 -35.5
c0 -14 4.83301 -25.833 14.5 -35.5s22.167 -14.5 37.5 -14.5c16 0 28.667 4.66699 38 14s14 21 14 35s-5 25.833 -15 35.5s-22.333 14.5 -37 14.5zM560 -0.00292969l-520 -0.000976562v59l28 80c2.66699 9.33301 9.33398 14 20.001 14c5.33301 0 10.166 -1.66699 14.499 -5
s6.5 -8 6.5 -14c0 -2 -0.666992 -5 -2 -9l-28 -80v-5h440v55c-16 -10.667 -33.333 -16 -52 -16c-25.333 0 -47.166 9 -65.499 27s-27.5 39.333 -27.5 64s9.16699 45.834 27.5 63.501s40.166 26.5 65.499 26.5c26 0 48 -8.83301 66 -26.5s27 -39.5 27 -65.5v-168z" />
    <glyph glyph-name="vehfinaarabic" unicode="&#x6a4;" arabic-form="final" 
d="M470 486c6 0 15.833 -7.16797 29.5 -21.501s20.5 -24.166 20.5 -29.499s-6.83301 -14.833 -20.5 -28.5s-23.5 -20.5 -29.5 -20.5s-15.833 6.83301 -29.5 20.5s-20.5 23.5 -20.5 29.5c0 5.33301 7 15 21 29s23.667 21 29 21zM550 415.999
c6 0 15.833 -7.16797 29.5 -21.501s20.5 -24.166 20.5 -29.499s-6.83301 -14.833 -20.5 -28.5s-23.5 -20.5 -29.5 -20.5s-15.833 6.83301 -29.5 20.5s-20.5 23.5 -20.5 29.5c0 5.33301 7 15 21 29s23.667 21 29 21zM390 415.998c6 0 15.833 -7.16797 29.5 -21.501
s20.5 -24.166 20.5 -29.499s-6.83301 -14.833 -20.5 -28.5s-23.5 -20.5 -29.5 -20.5s-15.833 6.83301 -29.5 20.5s-20.5 23.5 -20.5 29.5c0 5.33301 7 15 21 29s23.667 21 29 21zM467 218.997c-16 0 -28.667 -4.5 -38 -13.5s-14 -20.833 -14 -35.5
c0 -14 4.83301 -25.833 14.5 -35.5s22.167 -14.5 37.5 -14.5c16 0 28.667 4.66699 38 14s14 21 14 35s-5 25.833 -15 35.5s-22.333 14.5 -37 14.5zM600 39.9971v-40.001h-560v59l28 80c2.66699 9.33301 9.33398 14 20.001 14c5.33301 0 10.166 -1.66699 14.499 -5
s6.5 -8 6.5 -14c0 -2 -0.666992 -5 -2 -9l-28 -80v-5h440v55c-16 -10.667 -33.333 -16 -52 -16c-25.333 0 -47.166 9 -65.499 27s-27.5 39.333 -27.5 64s9.16699 45.834 27.5 63.501s40.166 26.5 65.499 26.5c26 0 48 -8.83301 66 -26.5s27 -39.5 27 -65.5v-128h40z" />
    <glyph glyph-name="vehinitarabic" unicode="&#x6a4;" arabic-form="initial" 
d="M300 486c6 0 15.833 -7.16797 29.5 -21.501s20.5 -24.166 20.5 -29.499s-6.83301 -14.833 -20.5 -28.5s-23.5 -20.5 -29.5 -20.5s-15.833 6.83301 -29.5 20.5s-20.5 23.5 -20.5 29.5c0 5.33301 7 15 21 29s23.667 21 29 21zM380 415.999
c6 0 15.833 -7.16797 29.5 -21.501s20.5 -24.166 20.5 -29.499s-6.83301 -14.833 -20.5 -28.5s-23.5 -20.5 -29.5 -20.5s-15.833 6.83301 -29.5 20.5s-20.5 23.5 -20.5 29.5c0 5.33301 7 15 21 29s23.667 21 29 21zM220 415.998c6 0 15.833 -7.16797 29.5 -21.501
s20.5 -24.166 20.5 -29.499s-6.83301 -14.833 -20.5 -28.5s-23.5 -20.5 -29.5 -20.5s-15.833 6.83301 -29.5 20.5s-20.5 23.5 -20.5 29.5c0 5.33301 7 15 21 29s23.667 21 29 21zM300 218.997c-16 0 -28.667 -4.5 -38 -13.5s-14 -20.833 -14 -35.5
c0 -14 4.83301 -25.833 14.5 -35.5s22.167 -14.5 37.5 -14.5c16 0 28.667 4.66699 38 14s14 21 14 35s-5 25.833 -15 35.5s-22.333 14.5 -37 14.5zM393 -0.00292969l-393 -0.000976562v40l352 1v54c-16 -10.667 -33.333 -16 -52 -16c-25.333 0 -47.166 9 -65.499 27
s-27.5 39.333 -27.5 64s9.16699 45.834 27.5 63.501s40.166 26.5 65.499 26.5c26 0 48 -8.83301 66 -26.5s27 -39.5 27 -65.5v-168z" />
    <glyph glyph-name="vehmediarabic" unicode="&#x6a4;" arabic-form="medial" 
d="M300 486c6 0 15.833 -7.16797 29.5 -21.501s20.5 -24.166 20.5 -29.499s-6.83301 -14.833 -20.5 -28.5s-23.5 -20.5 -29.5 -20.5s-15.833 6.83301 -29.5 20.5s-20.5 23.5 -20.5 29.5c0 5.33301 7 15 21 29s23.667 21 29 21zM380 415.999
c6 0 15.833 -7.16797 29.5 -21.501s20.5 -24.166 20.5 -29.499s-6.83301 -14.833 -20.5 -28.5s-23.5 -20.5 -29.5 -20.5s-15.833 6.83301 -29.5 20.5s-20.5 23.5 -20.5 29.5c0 5.33301 7 15 21 29s23.667 21 29 21zM220 415.998c6 0 15.833 -7.16797 29.5 -21.501
s20.5 -24.166 20.5 -29.499s-6.83301 -14.833 -20.5 -28.5s-23.5 -20.5 -29.5 -20.5s-15.833 6.83301 -29.5 20.5s-20.5 23.5 -20.5 29.5c0 5.33301 7 15 21 29s23.667 21 29 21zM300 218.997c-16 0 -28.667 -4.5 -38 -13.5s-14 -20.833 -14 -35.5
c0 -14 4.83301 -25.833 14.5 -35.5s22.167 -14.5 37.5 -14.5c16 0 28.667 4.66699 38 14s14 21 14 35s-5 25.833 -15 35.5s-22.333 14.5 -37 14.5zM600 39.9971v-40.001h-600v40l352 1v54c-16 -10.667 -33.333 -16 -52 -16c-25.333 0 -47.166 9 -65.499 27
s-27.5 39.333 -27.5 64s9.16699 45.834 27.5 63.501s40.166 26.5 65.499 26.5c26 0 48 -8.83301 66 -26.5s27 -39.5 27 -65.5v-128h207z" />
    <glyph glyph-name="unifb6e" unicode="&#x6a6;" arabic-form="isolated" 
d="M467.996 408.794c4.7998 0 12.665 -5.73438 23.5977 -17.2012c10.9336 -11.4658 16.4004 -19.332 16.4004 -23.5986s-5.4668 -11.8662 -16.4004 -22.7998c-10.9326 -10.9326 -18.7988 -16.3994 -23.5986 -16.3994s-12.666 5.4668 -23.5996 16.3994
c-10.9326 10.9336 -16.3994 18.7998 -16.3994 23.5996c0 4.2666 5.59961 12 16.7998 23.2002s18.9336 16.7998 23.2002 16.7998zM467.995 496.793c4.7998 0 12.665 -5.73438 23.5977 -17.2012c10.9336 -11.4658 16.4004 -19.332 16.4004 -23.5986
s-5.4668 -11.8662 -16.4004 -22.7998c-10.9326 -10.9326 -18.7988 -16.3994 -23.5986 -16.3994s-12.666 5.4668 -23.5996 16.3994c-10.9326 10.9336 -16.3994 18.7998 -16.3994 23.5996c0 4.2666 5.59961 12 16.7998 23.2002s18.9336 16.7998 23.2002 16.7998z
M539.994 452.792c4.7998 0 12.665 -5.73438 23.5977 -17.2012c10.9336 -11.4658 16.4004 -19.332 16.4004 -23.5986s-5.4668 -11.8662 -16.4004 -22.7998c-10.9326 -10.9326 -18.7988 -16.3994 -23.5986 -16.3994s-12.666 5.4668 -23.5996 16.3994
c-10.9326 10.9336 -16.3994 18.7998 -16.3994 23.5996c0 4.2666 5.59961 12 16.7998 23.2002s18.9336 16.7998 23.2002 16.7998zM395.993 452.791c4.7998 0 12.665 -5.73438 23.5977 -17.2012c10.9336 -11.4658 16.4004 -19.332 16.4004 -23.5986
s-5.4668 -11.8662 -16.4004 -22.7998c-10.9326 -10.9326 -18.7988 -16.3994 -23.5986 -16.3994s-12.666 5.4668 -23.5996 16.3994c-10.9326 10.9336 -16.3994 18.7998 -16.3994 23.5996c0 4.2666 5.59961 12 16.7998 23.2002s18.9336 16.7998 23.2002 16.7998z
M466.996 218.996c-16 0 -28.667 -4.5 -38 -13.5s-14 -20.833 -14 -35.5c0 -14 4.83301 -25.833 14.5 -35.5s22.167 -14.5 37.5 -14.5c16 0 28.667 4.66699 38 14s14 21 14 35s-5 25.833 -15 35.5s-22.333 14.5 -37 14.5zM559.996 -0.00390625l-520 -0.000976562v59l28 80
c2.66699 9.33301 9.33398 14 20.001 14c5.33301 0 10.166 -1.66699 14.499 -5s6.5 -8 6.5 -14c0 -2 -0.666992 -5 -2 -9l-28 -80v-5h440v55c-16 -10.667 -33.333 -16 -52 -16c-25.333 0 -47.166 9 -65.499 27s-27.5 39.333 -27.5 64s9.16699 45.834 27.5 63.501
s40.166 26.5 65.499 26.5c26 0 48 -8.83301 66 -26.5s27 -39.5 27 -65.5v-168z" />
    <glyph glyph-name="unifb6f" unicode="&#x6a6;" arabic-form="final" 
d="M469.996 408.794c4.7998 0 12.665 -5.73438 23.5977 -17.2012c10.9336 -11.4658 16.4004 -19.332 16.4004 -23.5986s-5.4668 -11.8662 -16.4004 -22.7998c-10.9326 -10.9326 -18.7988 -16.3994 -23.5986 -16.3994s-12.666 5.4668 -23.5996 16.3994
c-10.9326 10.9336 -16.3994 18.7998 -16.3994 23.5996c0 4.2666 5.59961 12 16.7998 23.2002s18.9336 16.7998 23.2002 16.7998zM469.995 496.793c4.7998 0 12.665 -5.73438 23.5977 -17.2012c10.9336 -11.4658 16.4004 -19.332 16.4004 -23.5986
s-5.4668 -11.8662 -16.4004 -22.7998c-10.9326 -10.9326 -18.7988 -16.3994 -23.5986 -16.3994s-12.666 5.4668 -23.5996 16.3994c-10.9326 10.9336 -16.3994 18.7998 -16.3994 23.5996c0 4.2666 5.59961 12 16.7998 23.2002s18.9336 16.7998 23.2002 16.7998z
M541.994 452.792c4.7998 0 12.665 -5.73438 23.5977 -17.2012c10.9336 -11.4658 16.4004 -19.332 16.4004 -23.5986s-5.4668 -11.8662 -16.4004 -22.7998c-10.9326 -10.9326 -18.7988 -16.3994 -23.5986 -16.3994s-12.666 5.4668 -23.5996 16.3994
c-10.9326 10.9336 -16.3994 18.7998 -16.3994 23.5996c0 4.2666 5.59961 12 16.7998 23.2002s18.9336 16.7998 23.2002 16.7998zM397.993 452.791c4.7998 0 12.665 -5.73438 23.5977 -17.2012c10.9336 -11.4658 16.4004 -19.332 16.4004 -23.5986
s-5.4668 -11.8662 -16.4004 -22.7998c-10.9326 -10.9326 -18.7988 -16.3994 -23.5986 -16.3994s-12.666 5.4668 -23.5996 16.3994c-10.9326 10.9336 -16.3994 18.7998 -16.3994 23.5996c0 4.2666 5.59961 12 16.7998 23.2002s18.9336 16.7998 23.2002 16.7998z
M466.996 218.996c-16 0 -28.667 -4.5 -38 -13.5s-14 -20.833 -14 -35.5c0 -14 4.83301 -25.833 14.5 -35.5s22.167 -14.5 37.5 -14.5c16 0 28.667 4.66699 38 14s14 21 14 35s-5 25.833 -15 35.5s-22.333 14.5 -37 14.5zM599.996 39.9961v-40.001h-560v59l28 80
c2.66699 9.33301 9.33398 14 20.001 14c5.33301 0 10.166 -1.66699 14.499 -5s6.5 -8 6.5 -14c0 -2 -0.666992 -5 -2 -9l-28 -80v-5h440v55c-16 -10.667 -33.333 -16 -52 -16c-25.333 0 -47.166 9 -65.499 27s-27.5 39.333 -27.5 64s9.16699 45.834 27.5 63.501
s40.166 26.5 65.499 26.5c26 0 48 -8.83301 66 -26.5s27 -39.5 27 -65.5v-128h40z" />
    <glyph glyph-name="unifb70" unicode="&#x6a6;" arabic-form="initial" 
d="M289.996 408.794c4.7998 0 12.665 -5.73438 23.5977 -17.2012c10.9336 -11.4658 16.4004 -19.332 16.4004 -23.5986s-5.4668 -11.8662 -16.4004 -22.7998c-10.9326 -10.9326 -18.7988 -16.3994 -23.5986 -16.3994s-12.666 5.4668 -23.5996 16.3994
c-10.9326 10.9336 -16.3994 18.7998 -16.3994 23.5996c0 4.2666 5.59961 12 16.7998 23.2002s18.9336 16.7998 23.2002 16.7998zM289.995 496.793c4.7998 0 12.665 -5.73438 23.5977 -17.2012c10.9336 -11.4658 16.4004 -19.332 16.4004 -23.5986
s-5.4668 -11.8662 -16.4004 -22.7998c-10.9326 -10.9326 -18.7988 -16.3994 -23.5986 -16.3994s-12.666 5.4668 -23.5996 16.3994c-10.9326 10.9336 -16.3994 18.7998 -16.3994 23.5996c0 4.2666 5.59961 12 16.7998 23.2002s18.9336 16.7998 23.2002 16.7998z
M361.994 452.792c4.7998 0 12.665 -5.73438 23.5977 -17.2012c10.9336 -11.4658 16.4004 -19.332 16.4004 -23.5986s-5.4668 -11.8662 -16.4004 -22.7998c-10.9326 -10.9326 -18.7988 -16.3994 -23.5986 -16.3994s-12.666 5.4668 -23.5996 16.3994
c-10.9326 10.9336 -16.3994 18.7998 -16.3994 23.5996c0 4.2666 5.59961 12 16.7998 23.2002s18.9336 16.7998 23.2002 16.7998zM217.993 452.791c4.7998 0 12.665 -5.73438 23.5977 -17.2012c10.9336 -11.4658 16.4004 -19.332 16.4004 -23.5986
s-5.4668 -11.8662 -16.4004 -22.7998c-10.9326 -10.9326 -18.7988 -16.3994 -23.5986 -16.3994s-12.666 5.4668 -23.5996 16.3994c-10.9326 10.9336 -16.3994 18.7998 -16.3994 23.5996c0 4.2666 5.59961 12 16.7998 23.2002s18.9336 16.7998 23.2002 16.7998z
M299.996 218.996c-16 0 -28.667 -4.5 -38 -13.5s-14 -20.833 -14 -35.5c0 -14 4.83301 -25.833 14.5 -35.5s22.167 -14.5 37.5 -14.5c16 0 28.667 4.66699 38 14s14 21 14 35s-5 25.833 -15 35.5s-22.333 14.5 -37 14.5zM392.996 -0.00390625l-393 -0.000976562v40l352 1v54
c-16 -10.667 -33.333 -16 -52 -16c-25.333 0 -47.166 9 -65.499 27s-27.5 39.333 -27.5 64s9.16699 45.834 27.5 63.501s40.166 26.5 65.499 26.5c26 0 48 -8.83301 66 -26.5s27 -39.5 27 -65.5v-168z" />
    <glyph glyph-name="unifb71" unicode="&#x6a6;" arabic-form="medial" 
d="M289.996 408.794c4.7998 0 12.665 -5.73438 23.5977 -17.2012c10.9336 -11.4658 16.4004 -19.332 16.4004 -23.5986s-5.4668 -11.8662 -16.4004 -22.7998c-10.9326 -10.9326 -18.7988 -16.3994 -23.5986 -16.3994s-12.666 5.4668 -23.5996 16.3994
c-10.9326 10.9336 -16.3994 18.7998 -16.3994 23.5996c0 4.2666 5.59961 12 16.7998 23.2002s18.9336 16.7998 23.2002 16.7998zM289.995 496.793c4.7998 0 12.665 -5.73438 23.5977 -17.2012c10.9336 -11.4658 16.4004 -19.332 16.4004 -23.5986
s-5.4668 -11.8662 -16.4004 -22.7998c-10.9326 -10.9326 -18.7988 -16.3994 -23.5986 -16.3994s-12.666 5.4668 -23.5996 16.3994c-10.9326 10.9336 -16.3994 18.7998 -16.3994 23.5996c0 4.2666 5.59961 12 16.7998 23.2002s18.9336 16.7998 23.2002 16.7998z
M361.994 452.792c4.7998 0 12.665 -5.73438 23.5977 -17.2012c10.9336 -11.4658 16.4004 -19.332 16.4004 -23.5986s-5.4668 -11.8662 -16.4004 -22.7998c-10.9326 -10.9326 -18.7988 -16.3994 -23.5986 -16.3994s-12.666 5.4668 -23.5996 16.3994
c-10.9326 10.9336 -16.3994 18.7998 -16.3994 23.5996c0 4.2666 5.59961 12 16.7998 23.2002s18.9336 16.7998 23.2002 16.7998zM217.993 452.791c4.7998 0 12.665 -5.73438 23.5977 -17.2012c10.9336 -11.4658 16.4004 -19.332 16.4004 -23.5986
s-5.4668 -11.8662 -16.4004 -22.7998c-10.9326 -10.9326 -18.7988 -16.3994 -23.5986 -16.3994s-12.666 5.4668 -23.5996 16.3994c-10.9326 10.9336 -16.3994 18.7998 -16.3994 23.5996c0 4.2666 5.59961 12 16.7998 23.2002s18.9336 16.7998 23.2002 16.7998z
M299.996 218.996c-16 0 -28.667 -4.5 -38 -13.5s-14 -20.833 -14 -35.5c0 -14 4.83301 -25.833 14.5 -35.5s22.167 -14.5 37.5 -14.5c16 0 28.667 4.66699 38 14s14 21 14 35s-5 25.833 -15 35.5s-22.333 14.5 -37 14.5zM599.996 39.9961v-40.001h-600v40l352 1v54
c-16 -10.667 -33.333 -16 -52 -16c-25.333 0 -47.166 9 -65.499 27s-27.5 39.333 -27.5 64s9.16699 45.834 27.5 63.501s40.166 26.5 65.499 26.5c26 0 48 -8.83301 66 -26.5s27 -39.5 27 -65.5v-128h207z" />
    <glyph glyph-name="unifb72" unicode="&#x684;" arabic-form="isolated" 
d="M340 80c6 0 15.833 -7.16797 29.5 -21.501s20.5 -24.166 20.5 -29.499s-6.83301 -14.833 -20.5 -28.5s-23.5 -20.5 -29.5 -20.5s-15.833 6.83301 -29.5 20.5s-20.5 23.5 -20.5 29.5c0 5.33301 7 15 21 29s23.667 21 29 21zM270 159.999c6 0 15.833 -7.16797 29.5 -21.501
s20.5 -24.166 20.5 -29.499s-6.83301 -14.833 -20.5 -28.5s-23.5 -20.5 -29.5 -20.5s-15.833 6.83301 -29.5 20.5s-20.5 23.5 -20.5 29.5c0 5.33301 7 15 21 29s23.667 21 29 21zM324 -159.002c28 0 54.0029 5.33301 78.0029 16s42.5 22.334 55.5 35.001l36 35
c11 10.667 19.167 16 24.5 16c12.667 0 19 -6.33301 19 -19c0 -6 -5.33301 -15.5 -16 -28.5s-24.667 -26.833 -42 -41.5s-40 -27.334 -68 -38.001s-56.667 -16 -86 -16c-76 0 -139 25.167 -189 75.5s-75 114.5 -75 192.5c0 42 9.66699 80.667 29 116s45.666 64 78.999 86
h-88c-13.333 0 -20 6.66699 -20 20s6.66699 20 20 20h380c12.667 0 19 -7 19 -21c0 -12.667 -6.66699 -19 -20 -19h-153c-32.667 0 -61.834 -6 -87.501 -18s-45.5 -26.5 -59.5 -43.5s-25.667 -36 -35 -57s-15.5 -39 -18.5 -54s-4.5 -28.167 -4.5 -39.5
c0 -59.333 22.167 -110.333 66.5 -153s96.166 -64 155.499 -64z" />
    <glyph glyph-name="unifb73" unicode="&#x684;" arabic-form="final" 
d="M340 80c6 0 15.833 -7.16797 29.5 -21.501s20.5 -24.166 20.5 -29.499s-6.83301 -14.833 -20.5 -28.5s-23.5 -20.5 -29.5 -20.5s-15.833 6.83301 -29.5 20.5s-20.5 23.5 -20.5 29.5c0 5.33301 7 15 21 29s23.667 21 29 21zM270 159.999c6 0 15.833 -7.16797 29.5 -21.501
s20.5 -24.166 20.5 -29.499s-6.83301 -14.833 -20.5 -28.5s-23.5 -20.5 -29.5 -20.5s-15.833 6.83301 -29.5 20.5s-20.5 23.5 -20.5 29.5c0 5.33301 7 15 21 29s23.667 21 29 21zM324 -159.002c28 0 54.0029 5.33301 78.0029 16s42.5 22.334 55.5 35.001l36 35
c11 10.667 19.167 16 24.5 16c12.667 0 19 -6.33301 19 -19c0 -6 -5.33301 -15.5 -16 -28.5s-24.667 -26.833 -42 -41.5s-40 -27.334 -68 -38.001s-56.667 -16 -86 -16c-76 0 -139 25.167 -189 75.5s-75 114.5 -75 192.5c0 42 9.66699 80.667 29 116s45.666 64 78.999 86
h-88c-13.333 0 -20 6.66699 -20 20s6.66699 20 20 20h380c12.667 0 19 -7 19 -21c0 -12.667 -6.66699 -19 -20 -19h-153c-32.667 0 -61.834 -6 -87.501 -18s-45.5 -26.5 -59.5 -43.5s-25.667 -36 -35 -57s-15.5 -39 -18.5 -54s-4.5 -28.167 -4.5 -39.5
c0 -59.333 22.167 -110.333 66.5 -153s96.166 -64 155.499 -64zM461.003 215.998v-70c0 -30.667 10.833 -56 32.5 -76s49.5 -30 83.5 -30h23v-40h-29c-42 0 -77.667 14.333 -107 43s-44 63.334 -44 104.001v68c0 12.667 7 19 21 19c5.33301 0 10 -1.83301 14 -5.5
s6 -7.83398 6 -12.501z" />
    <glyph glyph-name="unifb74" unicode="&#x684;" arabic-form="initial" 
d="M340 -100c6 0 15.833 -7.16797 29.5 -21.501s20.5 -24.166 20.5 -29.499s-6.83301 -14.833 -20.5 -28.5s-23.5 -20.5 -29.5 -20.5s-15.833 6.83301 -29.5 20.5s-20.5 23.5 -20.5 29.5c0 5.33301 7 15 21 29s23.667 21 29 21zM270 -20.001
c6 0 15.833 -7.16797 29.5 -21.501s20.5 -24.166 20.5 -29.499s-6.83301 -14.833 -20.5 -28.5s-23.5 -20.5 -29.5 -20.5s-15.833 6.83301 -29.5 20.5s-20.5 23.5 -20.5 29.5c0 5.33301 7 15 21 29s23.667 21 29 21zM0 -0.00195312l0.00195312 41c36.667 0 74 6.5 112 19.5
s69.167 27.167 93.5 42.5s48 31.166 71 47.499s37.167 25.833 42.5 28.5h-208c-13.333 0 -20 6.66699 -20 20s6.66699 20 20 20h225h155c12.667 0 19 -7 19 -21c0 -5.33301 -1.83301 -9.83301 -5.5 -13.5s-8.5 -5.5 -14.5 -5.5h-43c-25.333 0 -50.833 -6.16699 -76.5 -18.5
s-50.334 -27.333 -74.001 -45s-48.834 -35.167 -75.501 -52.5s-59.167 -32.166 -97.5 -44.499s-79.5 -18.5 -123.5 -18.5z" />
    <glyph glyph-name="unifb75" unicode="&#x684;" arabic-form="medial" 
d="M340 -100c6 0 15.833 -7.16797 29.5 -21.501s20.5 -24.166 20.5 -29.499s-6.83301 -14.833 -20.5 -28.5s-23.5 -20.5 -29.5 -20.5s-15.833 6.83301 -29.5 20.5s-20.5 23.5 -20.5 29.5c0 5.33301 7 15 21 29s23.667 21 29 21zM270 -20.001
c6 0 15.833 -7.16797 29.5 -21.501s20.5 -24.166 20.5 -29.499s-6.83301 -14.833 -20.5 -28.5s-23.5 -20.5 -29.5 -20.5s-15.833 6.83301 -29.5 20.5s-20.5 23.5 -20.5 29.5c0 5.33301 7 15 21 29s23.667 21 29 21zM600 39.998v-40h-116c-6 0 -11 2 -15 6s-6 8.66699 -6 14
c0 13.333 7 20 21 20h116zM0 -0.00195312l0.00195312 41c36.667 0 74 6.5 112 19.5s69.167 27.167 93.5 42.5s48 31.166 71 47.499s37.167 25.833 42.5 28.5h-208c-13.333 0 -20 6.66699 -20 20s6.66699 20 20 20h225h155c12.667 0 19 -7 19 -21
c0 -5.33301 -1.83301 -9.83301 -5.5 -13.5s-8.5 -5.5 -14.5 -5.5h-43c-25.333 0 -50.833 -6.16699 -76.5 -18.5s-50.334 -27.333 -74.001 -45s-48.834 -35.167 -75.501 -52.5s-59.167 -32.166 -97.5 -44.499s-79.5 -18.5 -123.5 -18.5z" />
    <glyph glyph-name="unifb76" unicode="&#x683;" arabic-form="isolated" 
d="M400 100c6 0 15.833 -7.16797 29.5 -21.501s20.5 -24.166 20.5 -29.499s-6.83301 -14.833 -20.5 -28.5s-23.5 -20.5 -29.5 -20.5s-15.833 6.83301 -29.5 20.5s-20.5 23.5 -20.5 29.5c0 5.33301 7 15 21 29s23.667 21 29 21zM260 99.999c6 0 15.833 -7.16797 29.5 -21.501
s20.5 -24.166 20.5 -29.499s-6.83301 -14.833 -20.5 -28.5s-23.5 -20.5 -29.5 -20.5s-15.833 6.83301 -29.5 20.5s-20.5 23.5 -20.5 29.5c0 5.33301 7 15 21 29s23.667 21 29 21zM324 -159.002c28 0 54.0029 5.33301 78.0029 16s42.5 22.334 55.5 35.001l36 35
c11 10.667 19.167 16 24.5 16c12.667 0 19 -6.33301 19 -19c0 -6 -5.33301 -15.5 -16 -28.5s-24.667 -26.833 -42 -41.5s-40 -27.334 -68 -38.001s-56.667 -16 -86 -16c-76 0 -139 25.167 -189 75.5s-75 114.5 -75 192.5c0 42 9.66699 80.667 29 116s45.666 64 78.999 86
h-88c-13.333 0 -20 6.66699 -20 20s6.66699 20 20 20h380c12.667 0 19 -7 19 -21c0 -12.667 -6.66699 -19 -20 -19h-153c-32.667 0 -61.834 -6 -87.501 -18s-45.5 -26.5 -59.5 -43.5s-25.667 -36 -35 -57s-15.5 -39 -18.5 -54s-4.5 -28.167 -4.5 -39.5
c0 -59.333 22.167 -110.333 66.5 -153s96.166 -64 155.499 -64z" />
    <glyph glyph-name="unifb77" unicode="&#x683;" arabic-form="final" 
d="M360 100c6 0 15.833 -7.16797 29.5 -21.501s20.5 -24.166 20.5 -29.499s-6.83301 -14.833 -20.5 -28.5s-23.5 -20.5 -29.5 -20.5s-15.833 6.83301 -29.5 20.5s-20.5 23.5 -20.5 29.5c0 5.33301 7 15 21 29s23.667 21 29 21zM220 99.999c6 0 15.833 -7.16797 29.5 -21.501
s20.5 -24.166 20.5 -29.499s-6.83301 -14.833 -20.5 -28.5s-23.5 -20.5 -29.5 -20.5s-15.833 6.83301 -29.5 20.5s-20.5 23.5 -20.5 29.5c0 5.33301 7 15 21 29s23.667 21 29 21zM324 -159.002c28 0 54.0029 5.33301 78.0029 16s42.5 22.334 55.5 35.001l36 35
c11 10.667 19.167 16 24.5 16c12.667 0 19 -6.33301 19 -19c0 -6 -5.33301 -15.5 -16 -28.5s-24.667 -26.833 -42 -41.5s-40 -27.334 -68 -38.001s-56.667 -16 -86 -16c-76 0 -139 25.167 -189 75.5s-75 114.5 -75 192.5c0 42 9.66699 80.667 29 116s45.666 64 78.999 86
h-88c-13.333 0 -20 6.66699 -20 20s6.66699 20 20 20h380c12.667 0 19 -7 19 -21c0 -12.667 -6.66699 -19 -20 -19h-153c-32.667 0 -61.834 -6 -87.501 -18s-45.5 -26.5 -59.5 -43.5s-25.667 -36 -35 -57s-15.5 -39 -18.5 -54s-4.5 -28.167 -4.5 -39.5
c0 -59.333 22.167 -110.333 66.5 -153s96.166 -64 155.499 -64zM461.003 215.998v-70c0 -30.667 10.833 -56 32.5 -76s49.5 -30 83.5 -30h23v-40h-29c-42 0 -77.667 14.333 -107 43s-44 63.334 -44 104.001v68c0 12.667 7 19 21 19c5.33301 0 10 -1.83301 14 -5.5
s6 -7.83398 6 -12.501z" />
    <glyph glyph-name="unifb78" unicode="&#x683;" arabic-form="initial" 
d="M370 -54c6 0 15.833 -7.16797 29.5 -21.501s20.5 -24.166 20.5 -29.499s-6.83301 -14.833 -20.5 -28.5s-23.5 -20.5 -29.5 -20.5s-15.833 6.83301 -29.5 20.5s-20.5 23.5 -20.5 29.5c0 5.33301 7 15 21 29s23.667 21 29 21zM230 -54.001
c6 0 15.833 -7.16797 29.5 -21.501s20.5 -24.166 20.5 -29.499s-6.83301 -14.833 -20.5 -28.5s-23.5 -20.5 -29.5 -20.5s-15.833 6.83301 -29.5 20.5s-20.5 23.5 -20.5 29.5c0 5.33301 7 15 21 29s23.667 21 29 21zM0 -0.00195312l0.00195312 41c36.667 0 74 6.5 112 19.5
s69.167 27.167 93.5 42.5s48 31.166 71 47.499s37.167 25.833 42.5 28.5h-208c-13.333 0 -20 6.66699 -20 20s6.66699 20 20 20h225h155c12.667 0 19 -7 19 -21c0 -5.33301 -1.83301 -9.83301 -5.5 -13.5s-8.5 -5.5 -14.5 -5.5h-43c-25.333 0 -50.833 -6.16699 -76.5 -18.5
s-50.334 -27.333 -74.001 -45s-48.834 -35.167 -75.501 -52.5s-59.167 -32.166 -97.5 -44.499s-79.5 -18.5 -123.5 -18.5z" />
    <glyph glyph-name="unifb79" unicode="&#x683;" arabic-form="medial" 
d="M370 -54c6 0 15.833 -7.16797 29.5 -21.501s20.5 -24.166 20.5 -29.499s-6.83301 -14.833 -20.5 -28.5s-23.5 -20.5 -29.5 -20.5s-15.833 6.83301 -29.5 20.5s-20.5 23.5 -20.5 29.5c0 5.33301 7 15 21 29s23.667 21 29 21zM230 -54.001
c6 0 15.833 -7.16797 29.5 -21.501s20.5 -24.166 20.5 -29.499s-6.83301 -14.833 -20.5 -28.5s-23.5 -20.5 -29.5 -20.5s-15.833 6.83301 -29.5 20.5s-20.5 23.5 -20.5 29.5c0 5.33301 7 15 21 29s23.667 21 29 21zM600 39.998v-40h-116c-6 0 -11 2 -15 6s-6 8.66699 -6 14
c0 13.333 7 20 21 20h116zM0 -0.00195312l0.00195312 41c36.667 0 74 6.5 112 19.5s69.167 27.167 93.5 42.5s48 31.166 71 47.499s37.167 25.833 42.5 28.5h-208c-13.333 0 -20 6.66699 -20 20s6.66699 20 20 20h225h155c12.667 0 19 -7 19 -21
c0 -5.33301 -1.83301 -9.83301 -5.5 -13.5s-8.5 -5.5 -14.5 -5.5h-43c-25.333 0 -50.833 -6.16699 -76.5 -18.5s-50.334 -27.333 -74.001 -45s-48.834 -35.167 -75.501 -52.5s-59.167 -32.166 -97.5 -44.499s-79.5 -18.5 -123.5 -18.5z" />
    <glyph glyph-name="uniFB7A" unicode="&#x686;" arabic-form="isolated" 
d="M330 -50c-6 0 -15.833 7.16797 -29.5 21.501s-20.5 24.166 -20.5 29.499s6.83301 14.833 20.5 28.5s23.5 20.5 29.5 20.5s15.833 -6.83301 29.5 -20.5s20.5 -23.5 20.5 -29.5c0 -5.33301 -7 -15 -21 -29s-23.667 -21 -29 -21zM250 20.001
c-6 0 -15.833 7.16797 -29.5 21.501s-20.5 24.166 -20.5 29.499s6.83301 14.833 20.5 28.5s23.5 20.5 29.5 20.5s15.833 -6.83301 29.5 -20.5s20.5 -23.5 20.5 -29.5c0 -5.33301 -7 -15 -21 -29s-23.667 -21 -29 -21zM410 20.002c-6 0 -15.833 7.16797 -29.5 21.501
s-20.5 24.166 -20.5 29.499s6.83301 14.833 20.5 28.5s23.5 20.5 29.5 20.5s15.833 -6.83301 29.5 -20.5s20.5 -23.5 20.5 -29.5c0 -5.33301 -7 -15 -21 -29s-23.667 -21 -29 -21zM324 -158.997c28 0 54.0029 5.33301 78.0029 16s42.5 22.334 55.5 35.001l36 35
c11 10.667 19.167 16 24.5 16c12.667 0 19 -6.33301 19 -19c0 -6 -5.33301 -15.5 -16 -28.5s-24.667 -26.833 -42 -41.5s-40 -27.334 -68 -38.001s-56.667 -16 -86 -16c-76 0 -139 25.167 -189 75.5s-75 114.5 -75 192.5c0 42 9.66699 80.667 29 116s45.666 64 78.999 86
h-88c-13.333 0 -20 6.66699 -20 20s6.66699 20 20 20h380c12.667 0 19 -7 19 -21c0 -12.667 -6.66699 -19 -20 -19h-153c-32.667 0 -61.834 -6 -87.501 -18s-45.5 -26.5 -59.5 -43.5s-25.667 -36 -35 -57s-15.5 -39 -18.5 -54s-4.5 -28.167 -4.5 -39.5
c0 -59.333 22.167 -110.333 66.5 -153s96.166 -64 155.499 -64z" />
    <glyph glyph-name="tchehfinaarabic" unicode="&#x686;" arabic-form="final" 
d="M280 -50c-6 0 -15.833 7.16797 -29.5 21.501s-20.5 24.166 -20.5 29.499s6.83301 14.833 20.5 28.5s23.5 20.5 29.5 20.5s15.833 -6.83301 29.5 -20.5s20.5 -23.5 20.5 -29.5c0 -5.33301 -7 -15 -21 -29s-23.667 -21 -29 -21zM200 20.001
c-6 0 -15.833 7.16797 -29.5 21.501s-20.5 24.166 -20.5 29.499s6.83301 14.833 20.5 28.5s23.5 20.5 29.5 20.5s15.833 -6.83301 29.5 -20.5s20.5 -23.5 20.5 -29.5c0 -5.33301 -7 -15 -21 -29s-23.667 -21 -29 -21zM360 20.002c-6 0 -15.833 7.16797 -29.5 21.501
s-20.5 24.166 -20.5 29.499s6.83301 14.833 20.5 28.5s23.5 20.5 29.5 20.5s15.833 -6.83301 29.5 -20.5s20.5 -23.5 20.5 -29.5c0 -5.33301 -7 -15 -21 -29s-23.667 -21 -29 -21zM324 -158.997c28 0 54.0029 5.33301 78.0029 16s42.5 22.334 55.5 35.001l36 35
c11 10.667 19.167 16 24.5 16c12.667 0 19 -6.33301 19 -19c0 -6 -5.33301 -15.5 -16 -28.5s-24.667 -26.833 -42 -41.5s-40 -27.334 -68 -38.001s-56.667 -16 -86 -16c-76 0 -139 25.167 -189 75.5s-75 114.5 -75 192.5c0 42 9.66699 80.667 29 116s45.666 64 78.999 86
h-88c-13.333 0 -20 6.66699 -20 20s6.66699 20 20 20h380c12.667 0 19 -7 19 -21c0 -12.667 -6.66699 -19 -20 -19h-153c-32.667 0 -61.834 -6 -87.501 -18s-45.5 -26.5 -59.5 -43.5s-25.667 -36 -35 -57s-15.5 -39 -18.5 -54s-4.5 -28.167 -4.5 -39.5
c0 -59.333 22.167 -110.333 66.5 -153s96.166 -64 155.499 -64zM461.003 216.003v-70c0 -30.667 10.833 -56 32.5 -76s49.5 -30 83.5 -30h23v-40h-29c-42 0 -77.667 14.333 -107 43s-44 63.334 -44 104.001v68c0 12.667 7 19 21 19c5.33301 0 10 -1.83301 14 -5.5
s6 -7.83398 6 -12.501z" />
    <glyph glyph-name="tchehinitarabic" unicode="&#x686;" arabic-form="initial" 
d="M300 -200c-6 0 -15.833 7.16797 -29.5 21.501s-20.5 24.166 -20.5 29.499s6.83301 14.833 20.5 28.5s23.5 20.5 29.5 20.5s15.833 -6.83301 29.5 -20.5s20.5 -23.5 20.5 -29.5c0 -5.33301 -7 -15 -21 -29s-23.667 -21 -29 -21zM220 -129.999
c-6 0 -15.833 7.16797 -29.5 21.501s-20.5 24.166 -20.5 29.499s6.83301 14.833 20.5 28.5s23.5 20.5 29.5 20.5s15.833 -6.83301 29.5 -20.5s20.5 -23.5 20.5 -29.5c0 -5.33301 -7 -15 -21 -29s-23.667 -21 -29 -21zM380 -129.998c-6 0 -15.833 7.16797 -29.5 21.501
s-20.5 24.166 -20.5 29.499s6.83301 14.833 20.5 28.5s23.5 20.5 29.5 20.5s15.833 -6.83301 29.5 -20.5s20.5 -23.5 20.5 -29.5c0 -5.33301 -7 -15 -21 -29s-23.667 -21 -29 -21zM0 0.00292969l0.00195312 41c36.667 0 74 6.5 112 19.5s69.167 27.167 93.5 42.5
s48 31.166 71 47.499s37.167 25.833 42.5 28.5h-208c-13.333 0 -20 6.66699 -20 20s6.66699 20 20 20h225h155c12.667 0 19 -7 19 -21c0 -5.33301 -1.83301 -9.83301 -5.5 -13.5s-8.5 -5.5 -14.5 -5.5h-43c-25.333 0 -50.833 -6.16699 -76.5 -18.5
s-50.334 -27.333 -74.001 -45s-48.834 -35.167 -75.501 -52.5s-59.167 -32.166 -97.5 -44.499s-79.5 -18.5 -123.5 -18.5z" />
    <glyph glyph-name="tchehmediarabic" unicode="&#x686;" arabic-form="medial" 
d="M300 -200c-6 0 -15.833 7.16797 -29.5 21.501s-20.5 24.166 -20.5 29.499s6.83301 14.833 20.5 28.5s23.5 20.5 29.5 20.5s15.833 -6.83301 29.5 -20.5s20.5 -23.5 20.5 -29.5c0 -5.33301 -7 -15 -21 -29s-23.667 -21 -29 -21zM220 -129.999
c-6 0 -15.833 7.16797 -29.5 21.501s-20.5 24.166 -20.5 29.499s6.83301 14.833 20.5 28.5s23.5 20.5 29.5 20.5s15.833 -6.83301 29.5 -20.5s20.5 -23.5 20.5 -29.5c0 -5.33301 -7 -15 -21 -29s-23.667 -21 -29 -21zM380 -129.998c-6 0 -15.833 7.16797 -29.5 21.501
s-20.5 24.166 -20.5 29.499s6.83301 14.833 20.5 28.5s23.5 20.5 29.5 20.5s15.833 -6.83301 29.5 -20.5s20.5 -23.5 20.5 -29.5c0 -5.33301 -7 -15 -21 -29s-23.667 -21 -29 -21zM600 40.0029v-40h-116c-6 0 -11 2 -15 6s-6 8.66699 -6 14c0 13.333 7 20 21 20h116z
M0 0.00292969l0.00195312 41c36.667 0 74 6.5 112 19.5s69.167 27.167 93.5 42.5s48 31.166 71 47.499s37.167 25.833 42.5 28.5h-208c-13.333 0 -20 6.66699 -20 20s6.66699 20 20 20h225h155c12.667 0 19 -7 19 -21c0 -5.33301 -1.83301 -9.83301 -5.5 -13.5
s-8.5 -5.5 -14.5 -5.5h-43c-25.333 0 -50.833 -6.16699 -76.5 -18.5s-50.334 -27.333 -74.001 -45s-48.834 -35.167 -75.501 -52.5s-59.167 -32.166 -97.5 -44.499s-79.5 -18.5 -123.5 -18.5z" />
    <glyph glyph-name="unifb7e" unicode="&#x687;" arabic-form="isolated" 
d="M329.996 39.7939c4.7998 0 12.665 -5.73438 23.5977 -17.2012c10.9336 -11.4658 16.4004 -19.332 16.4004 -23.5986s-5.4668 -11.8662 -16.4004 -22.7998c-10.9326 -10.9326 -18.7988 -16.3994 -23.5986 -16.3994s-12.666 5.4668 -23.5996 16.3994
c-10.9326 10.9336 -16.3994 18.7998 -16.3994 23.5996c0 4.2666 5.59961 12 16.7998 23.2002s18.9336 16.7998 23.2002 16.7998zM329.995 127.793c4.7998 0 12.665 -5.73438 23.5977 -17.2012c10.9336 -11.4658 16.4004 -19.332 16.4004 -23.5986
s-5.4668 -11.8662 -16.4004 -22.7998c-10.9326 -10.9326 -18.7988 -16.3994 -23.5986 -16.3994s-12.666 5.4668 -23.5996 16.3994c-10.9326 10.9336 -16.3994 18.7998 -16.3994 23.5996c0 4.2666 5.59961 12 16.7998 23.2002s18.9336 16.7998 23.2002 16.7998z
M401.994 83.792c4.7998 0 12.665 -5.73438 23.5977 -17.2012c10.9336 -11.4658 16.4004 -19.332 16.4004 -23.5986s-5.4668 -11.8662 -16.4004 -22.7998c-10.9326 -10.9326 -18.7988 -16.3994 -23.5986 -16.3994s-12.666 5.4668 -23.5996 16.3994
c-10.9326 10.9336 -16.3994 18.7998 -16.3994 23.5996c0 4.2666 5.59961 12 16.7998 23.2002s18.9336 16.7998 23.2002 16.7998zM257.993 83.791c4.7998 0 12.665 -5.73438 23.5977 -17.2012c10.9336 -11.4658 16.4004 -19.332 16.4004 -23.5986
s-5.4668 -11.8662 -16.4004 -22.7998c-10.9326 -10.9326 -18.7988 -16.3994 -23.5986 -16.3994s-12.666 5.4668 -23.5996 16.3994c-10.9326 10.9336 -16.3994 18.7998 -16.3994 23.5996c0 4.2666 5.59961 12 16.7998 23.2002s18.9336 16.7998 23.2002 16.7998z
M323.996 -159.004c28 0 54.0029 5.33301 78.0029 16s42.5 22.334 55.5 35.001l36 35c11 10.667 19.167 16 24.5 16c12.667 0 19 -6.33301 19 -19c0 -6 -5.33301 -15.5 -16 -28.5s-24.667 -26.833 -42 -41.5s-40 -27.334 -68 -38.001s-56.667 -16 -86 -16
c-76 0 -139 25.167 -189 75.5s-75 114.5 -75 192.5c0 42 9.66699 80.667 29 116s45.666 64 78.999 86h-88c-13.333 0 -20 6.66699 -20 20s6.66699 20 20 20h380c12.667 0 19 -7 19 -21c0 -12.667 -6.66699 -19 -20 -19h-153c-32.667 0 -61.834 -6 -87.501 -18
s-45.5 -26.5 -59.5 -43.5s-25.667 -36 -35 -57s-15.5 -39 -18.5 -54s-4.5 -28.167 -4.5 -39.5c0 -59.333 22.167 -110.333 66.5 -153s96.166 -64 155.499 -64z" />
    <glyph glyph-name="unifb7f" unicode="&#x687;" arabic-form="final" 
d="M289.996 39.7939c4.7998 0 12.665 -5.73438 23.5977 -17.2012c10.9336 -11.4658 16.4004 -19.332 16.4004 -23.5986s-5.4668 -11.8662 -16.4004 -22.7998c-10.9326 -10.9326 -18.7988 -16.3994 -23.5986 -16.3994s-12.666 5.4668 -23.5996 16.3994
c-10.9326 10.9336 -16.3994 18.7998 -16.3994 23.5996c0 4.2666 5.59961 12 16.7998 23.2002s18.9336 16.7998 23.2002 16.7998zM289.995 127.793c4.7998 0 12.665 -5.73438 23.5977 -17.2012c10.9336 -11.4658 16.4004 -19.332 16.4004 -23.5986
s-5.4668 -11.8662 -16.4004 -22.7998c-10.9326 -10.9326 -18.7988 -16.3994 -23.5986 -16.3994s-12.666 5.4668 -23.5996 16.3994c-10.9326 10.9336 -16.3994 18.7998 -16.3994 23.5996c0 4.2666 5.59961 12 16.7998 23.2002s18.9336 16.7998 23.2002 16.7998z
M361.994 83.792c4.7998 0 12.665 -5.73438 23.5977 -17.2012c10.9336 -11.4658 16.4004 -19.332 16.4004 -23.5986s-5.4668 -11.8662 -16.4004 -22.7998c-10.9326 -10.9326 -18.7988 -16.3994 -23.5986 -16.3994s-12.666 5.4668 -23.5996 16.3994
c-10.9326 10.9336 -16.3994 18.7998 -16.3994 23.5996c0 4.2666 5.59961 12 16.7998 23.2002s18.9336 16.7998 23.2002 16.7998zM217.993 83.791c4.7998 0 12.665 -5.73438 23.5977 -17.2012c10.9336 -11.4658 16.4004 -19.332 16.4004 -23.5986
s-5.4668 -11.8662 -16.4004 -22.7998c-10.9326 -10.9326 -18.7988 -16.3994 -23.5986 -16.3994s-12.666 5.4668 -23.5996 16.3994c-10.9326 10.9336 -16.3994 18.7998 -16.3994 23.5996c0 4.2666 5.59961 12 16.7998 23.2002s18.9336 16.7998 23.2002 16.7998z
M323.996 -159.004c28 0 54.0029 5.33301 78.0029 16s42.5 22.334 55.5 35.001l36 35c11 10.667 19.167 16 24.5 16c12.667 0 19 -6.33301 19 -19c0 -6 -5.33301 -15.5 -16 -28.5s-24.667 -26.833 -42 -41.5s-40 -27.334 -68 -38.001s-56.667 -16 -86 -16
c-76 0 -139 25.167 -189 75.5s-75 114.5 -75 192.5c0 42 9.66699 80.667 29 116s45.666 64 78.999 86h-88c-13.333 0 -20 6.66699 -20 20s6.66699 20 20 20h380c12.667 0 19 -7 19 -21c0 -12.667 -6.66699 -19 -20 -19h-153c-32.667 0 -61.834 -6 -87.501 -18
s-45.5 -26.5 -59.5 -43.5s-25.667 -36 -35 -57s-15.5 -39 -18.5 -54s-4.5 -28.167 -4.5 -39.5c0 -59.333 22.167 -110.333 66.5 -153s96.166 -64 155.499 -64zM460.999 215.996v-70c0 -30.667 10.833 -56 32.5 -76s49.5 -30 83.5 -30h23v-40h-29
c-42 0 -77.667 14.333 -107 43s-44 63.334 -44 104.001v68c0 12.667 7 19 21 19c5.33301 0 10 -1.83301 14 -5.5s6 -7.83398 6 -12.501z" />
    <glyph glyph-name="unifb80" unicode="&#x687;" arabic-form="initial" 
d="M299.996 -120.206c4.7998 0 12.665 -5.73438 23.5977 -17.2012c10.9336 -11.4658 16.4004 -19.332 16.4004 -23.5986s-5.4668 -11.8662 -16.4004 -22.7998c-10.9326 -10.9326 -18.7988 -16.3994 -23.5986 -16.3994s-12.666 5.4668 -23.5996 16.3994
c-10.9326 10.9336 -16.3994 18.7998 -16.3994 23.5996c0 4.2666 5.59961 12 16.7998 23.2002s18.9336 16.7998 23.2002 16.7998zM299.995 -32.207c4.7998 0 12.665 -5.73438 23.5977 -17.2012c10.9336 -11.4658 16.4004 -19.332 16.4004 -23.5986
s-5.4668 -11.8662 -16.4004 -22.7998c-10.9326 -10.9326 -18.7988 -16.3994 -23.5986 -16.3994s-12.666 5.4668 -23.5996 16.3994c-10.9326 10.9336 -16.3994 18.7998 -16.3994 23.5996c0 4.2666 5.59961 12 16.7998 23.2002s18.9336 16.7998 23.2002 16.7998z
M371.994 -76.208c4.7998 0 12.665 -5.73438 23.5977 -17.2012c10.9336 -11.4658 16.4004 -19.332 16.4004 -23.5986s-5.4668 -11.8662 -16.4004 -22.7998c-10.9326 -10.9326 -18.7988 -16.3994 -23.5986 -16.3994s-12.666 5.4668 -23.5996 16.3994
c-10.9326 10.9336 -16.3994 18.7998 -16.3994 23.5996c0 4.2666 5.59961 12 16.7998 23.2002s18.9336 16.7998 23.2002 16.7998zM227.993 -76.209c4.7998 0 12.665 -5.73438 23.5977 -17.2012c10.9336 -11.4658 16.4004 -19.332 16.4004 -23.5986
s-5.4668 -11.8662 -16.4004 -22.7998c-10.9326 -10.9326 -18.7988 -16.3994 -23.5986 -16.3994s-12.666 5.4668 -23.5996 16.3994c-10.9326 10.9336 -16.3994 18.7998 -16.3994 23.5996c0 4.2666 5.59961 12 16.7998 23.2002s18.9336 16.7998 23.2002 16.7998z
M-0.00390625 -0.00390625l0.00195312 41c36.667 0 74 6.5 112 19.5s69.167 27.167 93.5 42.5s48 31.166 71 47.499s37.167 25.833 42.5 28.5h-208c-13.333 0 -20 6.66699 -20 20s6.66699 20 20 20h225h155c12.667 0 19 -7 19 -21c0 -5.33301 -1.83301 -9.83301 -5.5 -13.5
s-8.5 -5.5 -14.5 -5.5h-43c-25.333 0 -50.833 -6.16699 -76.5 -18.5s-50.334 -27.333 -74.001 -45s-48.834 -35.167 -75.501 -52.5s-59.167 -32.166 -97.5 -44.499s-79.5 -18.5 -123.5 -18.5z" />
    <glyph glyph-name="unifb81" unicode="&#x687;" arabic-form="medial" 
d="M299.996 -120.206c4.7998 0 12.665 -5.73438 23.5977 -17.2012c10.9336 -11.4658 16.4004 -19.332 16.4004 -23.5986s-5.4668 -11.8662 -16.4004 -22.7998c-10.9326 -10.9326 -18.7988 -16.3994 -23.5986 -16.3994s-12.666 5.4668 -23.5996 16.3994
c-10.9326 10.9336 -16.3994 18.7998 -16.3994 23.5996c0 4.2666 5.59961 12 16.7998 23.2002s18.9336 16.7998 23.2002 16.7998zM299.995 -32.207c4.7998 0 12.665 -5.73438 23.5977 -17.2012c10.9336 -11.4658 16.4004 -19.332 16.4004 -23.5986
s-5.4668 -11.8662 -16.4004 -22.7998c-10.9326 -10.9326 -18.7988 -16.3994 -23.5986 -16.3994s-12.666 5.4668 -23.5996 16.3994c-10.9326 10.9336 -16.3994 18.7998 -16.3994 23.5996c0 4.2666 5.59961 12 16.7998 23.2002s18.9336 16.7998 23.2002 16.7998z
M371.994 -76.208c4.7998 0 12.665 -5.73438 23.5977 -17.2012c10.9336 -11.4658 16.4004 -19.332 16.4004 -23.5986s-5.4668 -11.8662 -16.4004 -22.7998c-10.9326 -10.9326 -18.7988 -16.3994 -23.5986 -16.3994s-12.666 5.4668 -23.5996 16.3994
c-10.9326 10.9336 -16.3994 18.7998 -16.3994 23.5996c0 4.2666 5.59961 12 16.7998 23.2002s18.9336 16.7998 23.2002 16.7998zM227.993 -76.209c4.7998 0 12.665 -5.73438 23.5977 -17.2012c10.9336 -11.4658 16.4004 -19.332 16.4004 -23.5986
s-5.4668 -11.8662 -16.4004 -22.7998c-10.9326 -10.9326 -18.7988 -16.3994 -23.5986 -16.3994s-12.666 5.4668 -23.5996 16.3994c-10.9326 10.9336 -16.3994 18.7998 -16.3994 23.5996c0 4.2666 5.59961 12 16.7998 23.2002s18.9336 16.7998 23.2002 16.7998z
M599.996 39.9961v-40h-116c-6 0 -11 2 -15 6s-6 8.66699 -6 14c0 13.333 7 20 21 20h116zM-0.00390625 -0.00390625l0.00195312 41c36.667 0 74 6.5 112 19.5s69.167 27.167 93.5 42.5s48 31.166 71 47.499s37.167 25.833 42.5 28.5h-208c-13.333 0 -20 6.66699 -20 20
s6.66699 20 20 20h225h155c12.667 0 19 -7 19 -21c0 -5.33301 -1.83301 -9.83301 -5.5 -13.5s-8.5 -5.5 -14.5 -5.5h-43c-25.333 0 -50.833 -6.16699 -76.5 -18.5s-50.334 -27.333 -74.001 -45s-48.834 -35.167 -75.501 -52.5s-59.167 -32.166 -97.5 -44.499
s-79.5 -18.5 -123.5 -18.5z" />
    <glyph glyph-name="unifb82" unicode="&#x68d;" arabic-form="isolated" 
d="M370 -54c6 0 15.833 -7.16797 29.5 -21.501s20.5 -24.166 20.5 -29.499s-6.83301 -14.833 -20.5 -28.5s-23.5 -20.5 -29.5 -20.5s-15.833 6.83301 -29.5 20.5s-20.5 23.5 -20.5 29.5c0 5.33301 7 15 21 29s23.667 21 29 21zM230 -54.001
c6 0 15.833 -7.16797 29.5 -21.501s20.5 -24.166 20.5 -29.499s-6.83301 -14.833 -20.5 -28.5s-23.5 -20.5 -29.5 -20.5s-15.833 6.83301 -29.5 20.5s-20.5 23.5 -20.5 29.5c0 5.33301 7 15 21 29s23.667 21 29 21zM227 259.998h42c44.667 0 82.667 -22.167 114 -66.5
s47 -95.5 47 -153.5v-40h-276c-6 0 -11 2 -15 6s-6 8.66699 -6 14c0 13.333 7 20 21 20h234c0 46.667 -11.5 88.167 -34.5 124.5s-53.167 54.5 -90.5 54.5h-36c-6 0 -11 2 -15 6s-6 9 -6 15c0 5.33301 2 10 6 14s9 6 15 6z" />
    <glyph glyph-name="unifb83" unicode="&#x68d;" arabic-form="final" 
d="M370 -54c6 0 15.833 -7.16797 29.5 -21.501s20.5 -24.166 20.5 -29.499s-6.83301 -14.833 -20.5 -28.5s-23.5 -20.5 -29.5 -20.5s-15.833 6.83301 -29.5 20.5s-20.5 23.5 -20.5 29.5c0 5.33301 7 15 21 29s23.667 21 29 21zM230 -54.001
c6 0 15.833 -7.16797 29.5 -21.501s20.5 -24.166 20.5 -29.499s-6.83301 -14.833 -20.5 -28.5s-23.5 -20.5 -29.5 -20.5s-15.833 6.83301 -29.5 20.5s-20.5 23.5 -20.5 29.5c0 5.33301 7 15 21 29s23.667 21 29 21zM600 39.998v-40h-446c-6 0 -11 2 -15 6s-6 8.66699 -6 14
c0 13.333 7 20 21 20h234c0 46.667 -11.5 88.167 -34.5 124.5s-53.167 54.5 -90.5 54.5h-36c-6 0 -11 2 -15 6s-6 9 -6 15c0 5.33301 2 10 6 14s9 6 15 6h42c44.667 0 82.667 -22.167 114 -66.5s47 -95.5 47 -153.5h170z" />
    <glyph glyph-name="unifb84" unicode="&#x68c;" arabic-form="isolated" 
d="M370 466c6 0 15.833 -7.16797 29.5 -21.501s20.5 -24.166 20.5 -29.499s-6.83301 -14.833 -20.5 -28.5s-23.5 -20.5 -29.5 -20.5s-15.833 6.83301 -29.5 20.5s-20.5 23.5 -20.5 29.5c0 5.33301 7 15 21 29s23.667 21 29 21zM230 465.999
c6 0 15.833 -7.16797 29.5 -21.501s20.5 -24.166 20.5 -29.499s-6.83301 -14.833 -20.5 -28.5s-23.5 -20.5 -29.5 -20.5s-15.833 6.83301 -29.5 20.5s-20.5 23.5 -20.5 29.5c0 5.33301 7 15 21 29s23.667 21 29 21zM227 259.998h42c44.667 0 82.667 -22.167 114 -66.5
s47 -95.5 47 -153.5v-40h-276c-6 0 -11 2 -15 6s-6 8.66699 -6 14c0 13.333 7 20 21 20h234c0 46.667 -11.5 88.167 -34.5 124.5s-53.167 54.5 -90.5 54.5h-36c-6 0 -11 2 -15 6s-6 9 -6 15c0 5.33301 2 10 6 14s9 6 15 6z" />
    <glyph glyph-name="unifb85" unicode="&#x68c;" arabic-form="final" 
d="M370 466c6 0 15.833 -7.16797 29.5 -21.501s20.5 -24.166 20.5 -29.499s-6.83301 -14.833 -20.5 -28.5s-23.5 -20.5 -29.5 -20.5s-15.833 6.83301 -29.5 20.5s-20.5 23.5 -20.5 29.5c0 5.33301 7 15 21 29s23.667 21 29 21zM230 465.999
c6 0 15.833 -7.16797 29.5 -21.501s20.5 -24.166 20.5 -29.499s-6.83301 -14.833 -20.5 -28.5s-23.5 -20.5 -29.5 -20.5s-15.833 6.83301 -29.5 20.5s-20.5 23.5 -20.5 29.5c0 5.33301 7 15 21 29s23.667 21 29 21zM600 39.998v-40h-446c-6 0 -11 2 -15 6s-6 8.66699 -6 14
c0 13.333 7 20 21 20h234c0 46.667 -11.5 88.167 -34.5 124.5s-53.167 54.5 -90.5 54.5h-36c-6 0 -11 2 -15 6s-6 9 -6 15c0 5.33301 2 10 6 14s9 6 15 6h42c44.667 0 82.667 -22.167 114 -66.5s47 -95.5 47 -153.5h170z" />
    <glyph glyph-name="unifb86" unicode="&#x68e;" arabic-form="isolated" 
d="M300 496c6 0 15.833 -7.16797 29.5 -21.501s20.5 -24.166 20.5 -29.499s-6.83301 -14.833 -20.5 -28.5s-23.5 -20.5 -29.5 -20.5s-15.833 6.83301 -29.5 20.5s-20.5 23.5 -20.5 29.5c0 5.33301 7 15 21 29s23.667 21 29 21zM380 425.999
c6 0 15.833 -7.16797 29.5 -21.501s20.5 -24.166 20.5 -29.499s-6.83301 -14.833 -20.5 -28.5s-23.5 -20.5 -29.5 -20.5s-15.833 6.83301 -29.5 20.5s-20.5 23.5 -20.5 29.5c0 5.33301 7 15 21 29s23.667 21 29 21zM220 425.998c6 0 15.833 -7.16797 29.5 -21.501
s20.5 -24.166 20.5 -29.499s-6.83301 -14.833 -20.5 -28.5s-23.5 -20.5 -29.5 -20.5s-15.833 6.83301 -29.5 20.5s-20.5 23.5 -20.5 29.5c0 5.33301 7 15 21 29s23.667 21 29 21zM227 259.997h42c44.667 0 82.667 -22.167 114 -66.5s47 -95.5 47 -153.5v-40h-276
c-6 0 -11 2 -15 6s-6 8.66699 -6 14c0 13.333 7 20 21 20h234c0 46.667 -11.5 88.167 -34.5 124.5s-53.167 54.5 -90.5 54.5h-36c-6 0 -11 2 -15 6s-6 9 -6 15c0 5.33301 2 10 6 14s9 6 15 6z" />
    <glyph glyph-name="unifb87" unicode="&#x68e;" arabic-form="final" 
d="M300 496c6 0 15.833 -7.16797 29.5 -21.501s20.5 -24.166 20.5 -29.499s-6.83301 -14.833 -20.5 -28.5s-23.5 -20.5 -29.5 -20.5s-15.833 6.83301 -29.5 20.5s-20.5 23.5 -20.5 29.5c0 5.33301 7 15 21 29s23.667 21 29 21zM380 425.999
c6 0 15.833 -7.16797 29.5 -21.501s20.5 -24.166 20.5 -29.499s-6.83301 -14.833 -20.5 -28.5s-23.5 -20.5 -29.5 -20.5s-15.833 6.83301 -29.5 20.5s-20.5 23.5 -20.5 29.5c0 5.33301 7 15 21 29s23.667 21 29 21zM220 425.998c6 0 15.833 -7.16797 29.5 -21.501
s20.5 -24.166 20.5 -29.499s-6.83301 -14.833 -20.5 -28.5s-23.5 -20.5 -29.5 -20.5s-15.833 6.83301 -29.5 20.5s-20.5 23.5 -20.5 29.5c0 5.33301 7 15 21 29s23.667 21 29 21zM600 39.9971v-40h-446c-6 0 -11 2 -15 6s-6 8.66699 -6 14c0 13.333 7 20 21 20h234
c0 46.667 -11.5 88.167 -34.5 124.5s-53.167 54.5 -90.5 54.5h-36c-6 0 -11 2 -15 6s-6 9 -6 15c0 5.33301 2 10 6 14s9 6 15 6h42c44.667 0 82.667 -22.167 114 -66.5s47 -95.5 47 -153.5h170z" />
    <glyph glyph-name="unifb88" unicode="&#x688;" arabic-form="isolated" 
d="M337 457c-16 0 -33.667 -7.83203 -53 -23.499s-35.333 -32.834 -48 -51.501v-4c36 -6 68.667 -9 98 -9c16 0 28.333 4.16699 37 12.5s13 19.5 13 33.5c0 12 -4.33301 22 -13 30s-20 12 -34 12zM264 560.001c10.667 0 16 -4 16 -12c0 -8.66699 -5.33301 -13 -16 -13h-28
v-118c10.667 16 25.5 30.667 44.5 44s38.167 20 57.5 20c20 0 36.667 -6.16699 50 -18.5s20 -28.5 20 -48.5c0 -22 -6.83301 -39.167 -20.5 -51.5s-31.834 -18.5 -54.501 -18.5c-31.333 0 -63.666 3.33301 -96.999 10h-27c-10.667 0 -16 4 -16 12s5.33301 12 16 12h2v182h53
zM227 260.001h42c44.667 0 82.667 -22.167 114 -66.5s47 -95.5 47 -153.5v-40h-276c-6 0 -11 2 -15 6s-6 8.66699 -6 14c0 13.333 7 20 21 20h234c0 46.667 -11.5 88.167 -34.5 124.5s-53.167 54.5 -90.5 54.5h-36c-6 0 -11 2 -15 6s-6 9 -6 15c0 5.33301 2 10 6 14
s9 6 15 6z" />
    <glyph glyph-name="ddalfinaarabic" unicode="&#x688;" arabic-form="final" 
d="M337 457c-16 0 -33.667 -7.83203 -53 -23.499s-35.333 -32.834 -48 -51.501v-4c36 -6 68.667 -9 98 -9c16 0 28.333 4.16699 37 12.5s13 19.5 13 33.5c0 12 -4.33301 22 -13 30s-20 12 -34 12zM264 560.001c10.667 0 16 -4 16 -12c0 -8.66699 -5.33301 -13 -16 -13h-28
v-118c10.667 16 25.5 30.667 44.5 44s38.167 20 57.5 20c20 0 36.667 -6.16699 50 -18.5s20 -28.5 20 -48.5c0 -22 -6.83301 -39.167 -20.5 -51.5s-31.834 -18.5 -54.501 -18.5c-31.333 0 -63.666 3.33301 -96.999 10h-27c-10.667 0 -16 4 -16 12s5.33301 12 16 12h2v182h53
zM600 40.001v-40h-446c-6 0 -11 2 -15 6s-6 8.66699 -6 14c0 13.333 7 20 21 20h234c0 46.667 -11.5 88.167 -34.5 124.5s-53.167 54.5 -90.5 54.5h-36c-6 0 -11 2 -15 6s-6 9 -6 15c0 5.33301 2 10 6 14s9 6 15 6h42c44.667 0 82.667 -22.167 114 -66.5s47 -95.5 47 -153.5
h170z" />
    <glyph glyph-name="uniFB8A" unicode="&#x698;" arabic-form="isolated" 
d="M300 476c6 0 15.833 -7.16797 29.5 -21.501s20.5 -24.166 20.5 -29.499s-6.83301 -14.833 -20.5 -28.5s-23.5 -20.5 -29.5 -20.5s-15.833 6.83301 -29.5 20.5s-20.5 23.5 -20.5 29.5c0 5.33301 7 15 21 29s23.667 21 29 21zM380 405.999
c6 0 15.833 -7.16797 29.5 -21.501s20.5 -24.166 20.5 -29.499s-6.83301 -14.833 -20.5 -28.5s-23.5 -20.5 -29.5 -20.5s-15.833 6.83301 -29.5 20.5s-20.5 23.5 -20.5 29.5c0 5.33301 7 15 21 29s23.667 21 29 21zM220 405.998c6 0 15.833 -7.16797 29.5 -21.501
s20.5 -24.166 20.5 -29.499s-6.83301 -14.833 -20.5 -28.5s-23.5 -20.5 -29.5 -20.5s-15.833 6.83301 -29.5 20.5s-20.5 23.5 -20.5 29.5c0 5.33301 7 15 21 29s23.667 21 29 21zM115 -145.003c2 0 10.668 -2.5 26.001 -7.5s30 -7.5 44 -7.5c50 0 91.667 14.333 125 43
s50 67.667 50 117v200c0 16 6.66699 24 20 24s20 -8 20 -24v-206c0 -58 -20.833 -104.667 -62.5 -140s-92.834 -53 -153.501 -53c-16.667 0 -35.334 2.66699 -56.001 8s-31 14 -31 26c0 5.33301 1.83301 10 5.5 14s7.83398 6 12.501 6z" />
    <glyph glyph-name="jehfinaarabic" unicode="&#x698;" arabic-form="final" 
d="M300 466c6 0 15.833 -7.16797 29.5 -21.501s20.5 -24.166 20.5 -29.499s-6.83301 -14.833 -20.5 -28.5s-23.5 -20.5 -29.5 -20.5s-15.833 6.83301 -29.5 20.5s-20.5 23.5 -20.5 29.5c0 5.33301 7 15 21 29s23.667 21 29 21zM380 395.999
c6 0 15.833 -7.16797 29.5 -21.501s20.5 -24.166 20.5 -29.499s-6.83301 -14.833 -20.5 -28.5s-23.5 -20.5 -29.5 -20.5s-15.833 6.83301 -29.5 20.5s-20.5 23.5 -20.5 29.5c0 5.33301 7 15 21 29s23.667 21 29 21zM220 395.998c6 0 15.833 -7.16797 29.5 -21.501
s20.5 -24.166 20.5 -29.499s-6.83301 -14.833 -20.5 -28.5s-23.5 -20.5 -29.5 -20.5s-15.833 6.83301 -29.5 20.5s-20.5 23.5 -20.5 29.5c0 5.33301 7 15 21 29s23.667 21 29 21zM600 39.9971l0.000976562 -40h-200c0 -60.667 -20.333 -109 -61 -145
s-92.334 -54 -155.001 -54c-16.667 0 -35.334 2.66699 -56.001 8s-31 14 -31 26c0 5.33301 1.83301 10 5.5 14s7.83398 6 12.501 6c2 0 10.667 -2.5 26 -7.5s30 -7.5 44 -7.5c50 0 91.667 14.333 125 43s50 67.667 50 117v200c0 16 6.66699 24 20 24s20 -8 20 -24v-160h200z
" />
    <glyph glyph-name="unifb8c" unicode="&#x691;" arabic-form="isolated" 
d="M337 417c-16 0 -33.667 -7.83203 -53 -23.499s-35.333 -32.834 -48 -51.501v-4c36 -6 68.667 -9 98 -9c16 0 28.333 4.16699 37 12.5s13 19.5 13 33.5c0 12 -4.33301 22 -13 30s-20 12 -34 12zM264 520.001c10.667 0 16 -4 16 -12c0 -8.66699 -5.33301 -13 -16 -13h-28
v-118c10.667 16 25.5 30.667 44.5 44s38.167 20 57.5 20c20 0 36.667 -6.16699 50 -18.5s20 -28.5 20 -48.5c0 -22 -6.83301 -39.167 -20.5 -51.5s-31.834 -18.5 -54.501 -18.5c-31.333 0 -63.666 3.33301 -96.999 10h-27c-10.667 0 -16 4 -16 12s5.33301 12 16 12h2v182h53
zM115 -144.999c2 0 10.668 -2.5 26.001 -7.5s30 -7.5 44 -7.5c50 0 91.667 14.333 125 43s50 67.667 50 117v200c0 16 6.66699 24 20 24s20 -8 20 -24v-206c0 -58 -20.833 -104.667 -62.5 -140s-92.834 -53 -153.501 -53c-16.667 0 -35.334 2.66699 -56.001 8s-31 14 -31 26
c0 5.33301 1.83301 10 5.5 14s7.83398 6 12.501 6z" />
    <glyph glyph-name="rrehfinaarabic" unicode="&#x691;" arabic-form="final" 
d="M600 40l0.000976562 -40h-200c0 -60.667 -20.333 -109 -61 -145s-92.334 -54 -155.001 -54c-16.667 0 -35.334 2.66699 -56.001 8s-31 14 -31 26c0 5.33301 1.83301 10 5.5 14s7.83398 6 12.501 6c2 0 10.667 -2.5 26 -7.5s30 -7.5 44 -7.5c50 0 91.667 14.333 125 43
s50 67.667 50 117v200c0 16 6.66699 24 20 24s20 -8 20 -24v-160h200zM337.001 417c-16 0 -33.667 -7.83203 -53 -23.499s-35.333 -32.834 -48 -51.501v-4c36 -6 68.667 -9 98 -9c16 0 28.333 4.16699 37 12.5s13 19.5 13 33.5c0 12 -4.33301 22 -13 30s-20 12 -34 12z
M264.001 520.001c10.667 0 16 -4 16 -12c0 -8.66699 -5.33301 -13 -16 -13h-28v-118c10.667 16 25.5 30.667 44.5 44s38.167 20 57.5 20c20 0 36.667 -6.16699 50 -18.5s20 -28.5 20 -48.5c0 -22 -6.83301 -39.167 -20.5 -51.5s-31.834 -18.5 -54.501 -18.5
c-31.333 0 -63.666 3.33301 -96.999 10h-27c-10.667 0 -16 4 -16 12s5.33301 12 16 12h2v182h53z" />
    <glyph glyph-name="unifb8e" unicode="&#x6a9;" arabic-form="isolated" 
d="M273 375l243 -335.001h17c18 0 27 -6.33301 27 -19c0 -14 -9 -21 -27 -21h-493v59l38 110c2.66699 9.33301 9.33398 14 20.001 14c5.33301 0 10.166 -1.66699 14.499 -5s6.5 -8 6.5 -14c0 -2 -0.666992 -5 -2 -9l-38 -110v-5h385l-252 343l277 194
c4 3.33301 8.66699 5 14 5c6 0 11.167 -2.16699 15.5 -6.5s6.5 -9.16602 6.5 -14.499s-2 -9.33301 -6 -12z" />
    <glyph glyph-name="kehehfinaarabic" unicode="&#x6a9;" arabic-form="final" 
d="M40 0l-0.000976562 58.999l38 110c2.66699 9.33301 9.33398 14 20.001 14c5.33301 0 10.166 -1.66699 14.499 -5s6.5 -8 6.5 -14c0 -2 -0.666992 -5 -2 -9l-38 -110v-5h385l-252 343l277 194c4.66699 3.33301 9.33398 5 14.001 5c6 0 11.167 -2.16699 15.5 -6.5
s6.5 -9.16602 6.5 -14.499s-2 -9.33301 -6 -12l-246 -174l243 -335h84v-40h-560z" />
    <glyph glyph-name="kehehinitarabic" unicode="&#x6a9;" arabic-form="initial" 
d="M223 375l243 -335.001h17c18 0 27 -6.33301 27 -19c0 -14 -9 -21 -27 -21h-483v40h414l-252 343l277 194c4 3.33301 8.66699 5 14 5c6 0 11.167 -2.16699 15.5 -6.5s6.5 -9.16602 6.5 -14.499s-2 -9.33301 -6 -12z" />
    <glyph glyph-name="kehehmediarabic" unicode="&#x6a9;" arabic-form="medial" 
d="M223 375l243 -335.001h134v-40h-600v40h414l-252 343l277 194c4 3.33301 8.66699 5 14 5c6 0 11.167 -2.16699 15.5 -6.5s6.5 -9.16602 6.5 -14.499s-2 -9.33301 -6 -12z" />
    <glyph glyph-name="uniFB92" unicode="&#x6af;" arabic-form="isolated" 
d="M345 539l-119 -94c-6.66699 -5.33301 -13.334 -8 -20.001 -8c-5.33301 0.666992 -10 3 -14 7s-5.66699 9 -5 15c0 6 4.33301 12.333 13 19l119 94c6.66699 5.33301 13.334 8 20.001 8c5.33301 -0.666992 10 -3 14 -7s5.66699 -9 5 -15c0 -4.66699 -4.33301 -11 -13 -19z
M273 375l243 -335.001h17c18 0 27 -6.33301 27 -19c0 -14 -9 -21 -27 -21h-493v59l38 110c2.66699 9.33301 9.33398 14 20.001 14c5.33301 0 10.166 -1.66699 14.499 -5s6.5 -8 6.5 -14c0 -2 -0.666992 -5 -2 -9l-38 -110v-5h385l-252 343l277 194c4 3.33301 8.66699 5 14 5
c6 0 11.167 -2.16699 15.5 -6.5s6.5 -9.16602 6.5 -14.499s-2 -9.33301 -6 -12z" />
    <glyph glyph-name="gaffinaarabic" unicode="&#x6af;" arabic-form="final" 
d="M40 0l-0.000976562 58.999l38 110c2.66699 9.33301 9.33398 14 20.001 14c5.33301 0 10.166 -1.66699 14.499 -5s6.5 -8 6.5 -14c0 -2 -0.666992 -5 -2 -9l-38 -110v-5h385l-252 343l277 194c4.66699 3.33301 9.33398 5 14.001 5c6 0 11.167 -2.16699 15.5 -6.5
s6.5 -9.16602 6.5 -14.499s-2 -9.33301 -6 -12l-246 -174l243 -335h84v-40h-560zM344.999 538.999l-119 -94c-6.66699 -5.33301 -13.334 -8 -20.001 -8c-5.33301 0.666992 -10 3 -14 7s-5.66699 9 -5 15c0 6 4.33301 12.333 13 19l119 94c6.66699 5.33301 13.334 8 20.001 8
c5.33301 -0.666992 10 -3 14 -7s5.66699 -9 5 -15c0 -4.66699 -4.33301 -11 -13 -19z" />
    <glyph glyph-name="gafinitarabic" unicode="&#x6af;" arabic-form="initial" 
d="M305 539l-119 -94c-6.66699 -5.33301 -13.334 -8 -20.001 -8c-5.33301 0.666992 -10 3 -14 7s-5.66699 9 -5 15c0 6 4.33301 12.333 13 19l119 94c6.66699 5.33301 13.334 8 20.001 8c5.33301 -0.666992 10 -3 14 -7s5.66699 -9 5 -15c0 -4.66699 -4.33301 -11 -13 -19z
M223 375l243 -335.001h17c18 0 27 -6.33301 27 -19c0 -14 -9 -21 -27 -21h-483v40h414l-252 343l277 194c4 3.33301 8.66699 5 14 5c6 0 11.167 -2.16699 15.5 -6.5s6.5 -9.16602 6.5 -14.499s-2 -9.33301 -6 -12z" />
    <glyph glyph-name="gafmediarabic" unicode="&#x6af;" arabic-form="medial" 
d="M223 375l243 -335.001h134v-40h-600v40h414l-252 343l277 194c4 3.33301 8.66699 5 14 5c6 0 11.167 -2.16699 15.5 -6.5s6.5 -9.16602 6.5 -14.499s-2 -9.33301 -6 -12zM305 538.999l-119 -94c-6.66699 -5.33301 -13.334 -8 -20.001 -8c-5.33301 0.666992 -10 3 -14 7
s-5.66699 9 -5 15c0 6 4.33301 12.333 13 19l119 94c6.66699 5.33301 13.334 8 20.001 8c5.33301 -0.666992 10 -3 14 -7s5.66699 -9 5 -15c0 -4.66699 -4.33301 -11 -13 -19z" />
    <glyph glyph-name="unifb96" unicode="&#x6b3;" arabic-form="isolated" 
d="M273 375l243 -335.001h17c18 0 27 -6.33301 27 -19c0 -14 -9 -21 -27 -21h-493v59l38 110c2.66699 9.33301 9.33398 14 20.001 14c5.33301 0 10.166 -1.66699 14.499 -5s6.5 -8 6.5 -14c0 -2 -0.666992 -5 -2 -9l-38 -110v-5h385l-252 343l277 194
c4 3.33301 8.66699 5 14 5c6 0 11.167 -2.16699 15.5 -6.5s6.5 -9.16602 6.5 -14.499s-2 -9.33301 -6 -12zM345 538.999l-119 -94c-6.66699 -5.33301 -13.334 -8 -20.001 -8c-5.33301 0.666992 -10 3 -14 7s-5.66699 9 -5 15c0 6 4.33301 12.333 13 19l119 94
c6.66699 5.33301 13.334 8 20.001 8c5.33301 -0.666992 10 -3 14 -7s5.66699 -9 5 -15c0 -4.66699 -4.33301 -11 -13 -19zM340 -100.001c6 0 15.833 -7.16797 29.5 -21.501s20.5 -24.166 20.5 -29.499s-6.83301 -14.833 -20.5 -28.5s-23.5 -20.5 -29.5 -20.5
s-15.833 6.83301 -29.5 20.5s-20.5 23.5 -20.5 29.5c0 5.33301 7 15 21 29s23.667 21 29 21zM270 -20.002c6 0 15.833 -7.16797 29.5 -21.501s20.5 -24.166 20.5 -29.499s-6.83301 -14.833 -20.5 -28.5s-23.5 -20.5 -29.5 -20.5s-15.833 6.83301 -29.5 20.5
s-20.5 23.5 -20.5 29.5c0 5.33301 7 15 21 29s23.667 21 29 21z" />
    <glyph glyph-name="unifb97" unicode="&#x6b3;" arabic-form="final" 
d="M40 0l-0.000976562 58.999l38 110c2.66699 9.33301 9.33398 14 20.001 14c5.33301 0 10.166 -1.66699 14.499 -5s6.5 -8 6.5 -14c0 -2 -0.666992 -5 -2 -9l-38 -110v-5h385l-252 343l277 194c4.66699 3.33301 9.33398 5 14.001 5c6 0 11.167 -2.16699 15.5 -6.5
s6.5 -9.16602 6.5 -14.499s-2 -9.33301 -6 -12l-246 -174l243 -335h84v-40h-560zM354.999 538.999l-119 -94c-6.66699 -5.33301 -13.334 -8 -20.001 -8c-5.33301 0.666992 -10 3 -14 7s-5.66699 9 -5 15c0 6 4.33301 12.333 13 19l119 94c6.66699 5.33301 13.334 8 20.001 8
c5.33301 -0.666992 10 -3 14 -7s5.66699 -9 5 -15c0 -4.66699 -4.33301 -11 -13 -19zM339.999 -100.001c6 0 15.833 -7.16797 29.5 -21.501s20.5 -24.166 20.5 -29.499s-6.83301 -14.833 -20.5 -28.5s-23.5 -20.5 -29.5 -20.5s-15.833 6.83301 -29.5 20.5
s-20.5 23.5 -20.5 29.5c0 5.33301 7 15 21 29s23.667 21 29 21zM269.999 -20.002c6 0 15.833 -7.16797 29.5 -21.501s20.5 -24.166 20.5 -29.499s-6.83301 -14.833 -20.5 -28.5s-23.5 -20.5 -29.5 -20.5s-15.833 6.83301 -29.5 20.5s-20.5 23.5 -20.5 29.5
c0 5.33301 7 15 21 29s23.667 21 29 21z" />
    <glyph glyph-name="unifb98" unicode="&#x6b3;" arabic-form="initial" 
d="M223 375l243 -335.001h17c18 0 27 -6.33301 27 -19c0 -14 -9 -21 -27 -21h-483v40h414l-252 343l277 194c4 3.33301 8.66699 5 14 5c6 0 11.167 -2.16699 15.5 -6.5s6.5 -9.16602 6.5 -14.499s-2 -9.33301 -6 -12zM305 538.999l-119 -94
c-6.66699 -5.33301 -13.334 -8 -20.001 -8c-5.33301 0.666992 -10 3 -14 7s-5.66699 9 -5 15c0 6 4.33301 12.333 13 19l119 94c6.66699 5.33301 13.334 8 20.001 8c5.33301 -0.666992 10 -3 14 -7s5.66699 -9 5 -15c0 -4.66699 -4.33301 -11 -13 -19zM340 -100.001
c6 0 15.833 -7.16797 29.5 -21.501s20.5 -24.166 20.5 -29.499s-6.83301 -14.833 -20.5 -28.5s-23.5 -20.5 -29.5 -20.5s-15.833 6.83301 -29.5 20.5s-20.5 23.5 -20.5 29.5c0 5.33301 7 15 21 29s23.667 21 29 21zM270 -20.002c6 0 15.833 -7.16797 29.5 -21.501
s20.5 -24.166 20.5 -29.499s-6.83301 -14.833 -20.5 -28.5s-23.5 -20.5 -29.5 -20.5s-15.833 6.83301 -29.5 20.5s-20.5 23.5 -20.5 29.5c0 5.33301 7 15 21 29s23.667 21 29 21z" />
    <glyph glyph-name="unifb99" unicode="&#x6b3;" arabic-form="medial" 
d="M223 375l243 -335.001h134v-40h-600v40h414l-252 343l277 194c4 3.33301 8.66699 5 14 5c6 0 11.167 -2.16699 15.5 -6.5s6.5 -9.16602 6.5 -14.499s-2 -9.33301 -6 -12zM305 538.999l-119 -94c-6.66699 -5.33301 -13.334 -8 -20.001 -8c-5.33301 0.666992 -10 3 -14 7
s-5.66699 9 -5 15c0 6 4.33301 12.333 13 19l119 94c6.66699 5.33301 13.334 8 20.001 8c5.33301 -0.666992 10 -3 14 -7s5.66699 -9 5 -15c0 -4.66699 -4.33301 -11 -13 -19zM340 -100.001c6 0 15.833 -7.16797 29.5 -21.501s20.5 -24.166 20.5 -29.499
s-6.83301 -14.833 -20.5 -28.5s-23.5 -20.5 -29.5 -20.5s-15.833 6.83301 -29.5 20.5s-20.5 23.5 -20.5 29.5c0 5.33301 7 15 21 29s23.667 21 29 21zM270 -20.002c6 0 15.833 -7.16797 29.5 -21.501s20.5 -24.166 20.5 -29.499s-6.83301 -14.833 -20.5 -28.5
s-23.5 -20.5 -29.5 -20.5s-15.833 6.83301 -29.5 20.5s-20.5 23.5 -20.5 29.5c0 5.33301 7 15 21 29s23.667 21 29 21z" />
    <glyph glyph-name="unifb9a" unicode="&#x6b1;" arabic-form="isolated" 
d="M220 636c6 0 15.833 -7.16797 29.5 -21.501s20.5 -24.166 20.5 -29.499s-6.83301 -14.833 -20.5 -28.5s-23.5 -20.5 -29.5 -20.5s-15.833 6.83301 -29.5 20.5s-20.5 23.5 -20.5 29.5c0 5.33301 7 15 21 29s23.667 21 29 21zM80 635.999c6 0 15.833 -7.16797 29.5 -21.501
s20.5 -24.166 20.5 -29.499s-6.83301 -14.833 -20.5 -28.5s-23.5 -20.5 -29.5 -20.5s-15.833 6.83301 -29.5 20.5s-20.5 23.5 -20.5 29.5c0 5.33301 7 15 21 29s23.667 21 29 21zM345 538.998l-119 -94c-6.66699 -5.33301 -13.334 -8 -20.001 -8
c-5.33301 0.666992 -10 3 -14 7s-5.66699 9 -5 15c0 6 4.33301 12.333 13 19l119 94c6.66699 5.33301 13.334 8 20.001 8c5.33301 -0.666992 10 -3 14 -7s5.66699 -9 5 -15c0 -4.66699 -4.33301 -11 -13 -19zM273 374.998l243 -335.001h17c18 0 27 -6.33301 27 -19
c0 -14 -9 -21 -27 -21h-493v59l38 110c2.66699 9.33301 9.33398 14 20.001 14c5.33301 0 10.166 -1.66699 14.499 -5s6.5 -8 6.5 -14c0 -2 -0.666992 -5 -2 -9l-38 -110v-5h385l-252 343l277 194c4 3.33301 8.66699 5 14 5c6 0 11.167 -2.16699 15.5 -6.5
s6.5 -9.16602 6.5 -14.499s-2 -9.33301 -6 -12z" />
    <glyph glyph-name="unifb9b" unicode="&#x6b1;" arabic-form="final" 
d="M220 636c6 0 15.833 -7.16797 29.5 -21.501s20.5 -24.166 20.5 -29.499s-6.83301 -14.833 -20.5 -28.5s-23.5 -20.5 -29.5 -20.5s-15.833 6.83301 -29.5 20.5s-20.5 23.5 -20.5 29.5c0 5.33301 7 15 21 29s23.667 21 29 21zM80 635.999c6 0 15.833 -7.16797 29.5 -21.501
s20.5 -24.166 20.5 -29.499s-6.83301 -14.833 -20.5 -28.5s-23.5 -20.5 -29.5 -20.5s-15.833 6.83301 -29.5 20.5s-20.5 23.5 -20.5 29.5c0 5.33301 7 15 21 29s23.667 21 29 21zM40 -0.00195312l-0.000976562 58.999l38 110c2.66699 9.33301 9.33398 14 20.001 14
c5.33301 0 10.166 -1.66699 14.499 -5s6.5 -8 6.5 -14c0 -2 -0.666992 -5 -2 -9l-38 -110v-5h385l-252 343l277 194c4.66699 3.33301 9.33398 5 14.001 5c6 0 11.167 -2.16699 15.5 -6.5s6.5 -9.16602 6.5 -14.499s-2 -9.33301 -6 -12l-246 -174l243 -335h84v-40h-560z
M344.999 538.997l-119 -94c-6.66699 -5.33301 -13.334 -8 -20.001 -8c-5.33301 0.666992 -10 3 -14 7s-5.66699 9 -5 15c0 6 4.33301 12.333 13 19l119 94c6.66699 5.33301 13.334 8 20.001 8c5.33301 -0.666992 10 -3 14 -7s5.66699 -9 5 -15
c0 -4.66699 -4.33301 -11 -13 -19z" />
    <glyph glyph-name="unifb9c" unicode="&#x6b1;" arabic-form="initial" 
d="M200 636c6 0 15.833 -7.16797 29.5 -21.501s20.5 -24.166 20.5 -29.499s-6.83301 -14.833 -20.5 -28.5s-23.5 -20.5 -29.5 -20.5s-15.833 6.83301 -29.5 20.5s-20.5 23.5 -20.5 29.5c0 5.33301 7 15 21 29s23.667 21 29 21zM60 635.999c6 0 15.833 -7.16797 29.5 -21.501
s20.5 -24.166 20.5 -29.499s-6.83301 -14.833 -20.5 -28.5s-23.5 -20.5 -29.5 -20.5s-15.833 6.83301 -29.5 20.5s-20.5 23.5 -20.5 29.5c0 5.33301 7 15 21 29s23.667 21 29 21zM305 538.998l-119 -94c-6.66699 -5.33301 -13.334 -8 -20.001 -8
c-5.33301 0.666992 -10 3 -14 7s-5.66699 9 -5 15c0 6 4.33301 12.333 13 19l119 94c6.66699 5.33301 13.334 8 20.001 8c5.33301 -0.666992 10 -3 14 -7s5.66699 -9 5 -15c0 -4.66699 -4.33301 -11 -13 -19zM223 374.998l243 -335.001h17c18 0 27 -6.33301 27 -19
c0 -14 -9 -21 -27 -21h-483v40h414l-252 343l277 194c4 3.33301 8.66699 5 14 5c6 0 11.167 -2.16699 15.5 -6.5s6.5 -9.16602 6.5 -14.499s-2 -9.33301 -6 -12z" />
    <glyph glyph-name="unifb9d" unicode="&#x6b1;" arabic-form="medial" 
d="M200 636c6 0 15.833 -7.16797 29.5 -21.501s20.5 -24.166 20.5 -29.499s-6.83301 -14.833 -20.5 -28.5s-23.5 -20.5 -29.5 -20.5s-15.833 6.83301 -29.5 20.5s-20.5 23.5 -20.5 29.5c0 5.33301 7 15 21 29s23.667 21 29 21zM60 635.999c6 0 15.833 -7.16797 29.5 -21.501
s20.5 -24.166 20.5 -29.499s-6.83301 -14.833 -20.5 -28.5s-23.5 -20.5 -29.5 -20.5s-15.833 6.83301 -29.5 20.5s-20.5 23.5 -20.5 29.5c0 5.33301 7 15 21 29s23.667 21 29 21zM223 374.998l243 -335.001h134v-40h-600v40h414l-252 343l277 194c4 3.33301 8.66699 5 14 5
c6 0 11.167 -2.16699 15.5 -6.5s6.5 -9.16602 6.5 -14.499s-2 -9.33301 -6 -12zM305 538.997l-119 -94c-6.66699 -5.33301 -13.334 -8 -20.001 -8c-5.33301 0.666992 -10 3 -14 7s-5.66699 9 -5 15c0 6 4.33301 12.333 13 19l119 94c6.66699 5.33301 13.334 8 20.001 8
c5.33301 -0.666992 10 -3 14 -7s5.66699 -9 5 -15c0 -4.66699 -4.33301 -11 -13 -19z" />
    <glyph glyph-name="unifb9e" unicode="&#x6ba;" arabic-form="isolated" 
d="M474 227l-0.000976562 -267.001c0 -46 -18.167 -80.5 -54.5 -103.5s-80.166 -34.5 -131.499 -34.5c-53.333 0 -97.833 10.833 -133.5 32.5s-53.5 56.834 -53.5 105.501v59l27 77c2.66699 9.33301 9.33398 14 20.001 14c5.33301 0 10.166 -1.66699 14.499 -5
s6.5 -8 6.5 -14c0 -2 -0.666992 -5 -2 -9l-26 -77v-45c0 -33.333 14.5 -57.833 43.5 -73.5s64.5 -23.5 106.5 -23.5c40 0 73.667 8 101 24s41 40.333 41 73v267c0 15.333 6.66699 23 20 23c14 0 21 -7.66699 21 -23z" />
    <glyph glyph-name="noonghunnafinaarabic" unicode="&#x6ba;" arabic-form="final" 
d="M474 40l125.999 -0.000976562v-40h-126v-40c0 -46 -18.167 -80.5 -54.5 -103.5s-80.166 -34.5 -131.499 -34.5c-53.333 0 -97.833 10.833 -133.5 32.5s-53.5 56.834 -53.5 105.501v59l27 77c2.66699 9.33301 9.33398 14 20.001 14c5.33301 0 10.166 -1.66699 14.499 -5
s6.5 -8 6.5 -14c0 -2 -0.666992 -5 -2 -9l-26 -77v-45c0 -33.333 14.5 -57.833 43.5 -73.5s64.5 -23.5 106.5 -23.5c40 0 73.667 8 101 24s41 40.333 41 73v267c0 15.333 6.66699 23 20 23c14 0 21 -7.66699 21 -23v-187z" />
    <glyph glyph-name="unifba0" unicode="&#x6bb;" arabic-form="isolated" 
d="M337 431c-16 0 -33.667 -7.83203 -53 -23.499s-35.333 -32.834 -48 -51.501v-4c36 -6 68.667 -9 98 -9c16 0 28.333 4.16699 37 12.5s13 19.5 13 33.5c0 12 -4.33301 22 -13 30s-20 12 -34 12zM264 534.001c10.667 0 16 -4 16 -12c0 -8.66699 -5.33301 -13 -16 -13h-28
v-118c10.667 16 25.5 30.667 44.5 44s38.167 20 57.5 20c20 0 36.667 -6.16699 50 -18.5s20 -28.5 20 -48.5c0 -22 -6.83301 -39.167 -20.5 -51.5s-31.834 -18.5 -54.501 -18.5c-31.333 0 -63.666 3.33301 -96.999 10h-27c-10.667 0 -16 4 -16 12s5.33301 12 16 12h2v182h53
zM474 227.001l-0.000976562 -267.001c0 -46 -18.167 -80.5 -54.5 -103.5s-80.166 -34.5 -131.499 -34.5c-53.333 0 -97.833 10.833 -133.5 32.5s-53.5 56.834 -53.5 105.501v59l27 77c2.66699 9.33301 9.33398 14 20.001 14c5.33301 0 10.166 -1.66699 14.499 -5
s6.5 -8 6.5 -14c0 -2 -0.666992 -5 -2 -9l-26 -77v-45c0 -33.333 14.5 -57.833 43.5 -73.5s64.5 -23.5 106.5 -23.5c40 0 73.667 8 101 24s41 40.333 41 73v267c0 15.333 6.66699 23 20 23c14 0 21 -7.66699 21 -23z" />
    <glyph glyph-name="rnoonfinalarabic" unicode="&#x6bb;" arabic-form="final" 
d="M337 431c-16 0 -33.667 -7.83203 -53 -23.499s-35.333 -32.834 -48 -51.501v-4c36 -6 68.667 -9 98 -9c16 0 28.333 4.16699 37 12.5s13 19.5 13 33.5c0 12 -4.33301 22 -13 30s-20 12 -34 12zM264 534.001c10.667 0 16 -4 16 -12c0 -8.66699 -5.33301 -13 -16 -13h-28
v-118c10.667 16 25.5 30.667 44.5 44s38.167 20 57.5 20c20 0 36.667 -6.16699 50 -18.5s20 -28.5 20 -48.5c0 -22 -6.83301 -39.167 -20.5 -51.5s-31.834 -18.5 -54.501 -18.5c-31.333 0 -63.666 3.33301 -96.999 10h-27c-10.667 0 -16 4 -16 12s5.33301 12 16 12h2v182h53
zM474 40.001l125.999 -0.000976562v-40h-126v-40c0 -46 -18.167 -80.5 -54.5 -103.5s-80.166 -34.5 -131.499 -34.5c-53.333 0 -97.833 10.833 -133.5 32.5s-53.5 56.834 -53.5 105.501v59l27 77c2.66699 9.33301 9.33398 14 20.001 14c5.33301 0 10.166 -1.66699 14.499 -5
s6.5 -8 6.5 -14c0 -2 -0.666992 -5 -2 -9l-26 -77v-45c0 -33.333 14.5 -57.833 43.5 -73.5s64.5 -23.5 106.5 -23.5c40 0 73.667 8 101 24s41 40.333 41 73v267c0 15.333 6.66699 23 20 23c14 0 21 -7.66699 21 -23v-187z" />
    <glyph glyph-name="rnooninitialarabic" unicode="&#x6bb;" arabic-form="initial" 
d="M337 431c-16 0 -33.667 -7.83203 -53 -23.499s-35.333 -32.834 -48 -51.501v-4c36 -6 68.667 -9 98 -9c16 0 28.333 4.16699 37 12.5s13 19.5 13 33.5c0 12 -4.33301 22 -13 30s-20 12 -34 12zM264 534.001c10.667 0 16 -4 16 -12c0 -8.66699 -5.33301 -13 -16 -13h-28
v-118c10.667 16 25.5 30.667 44.5 44s38.167 20 57.5 20c20 0 36.667 -6.16699 50 -18.5s20 -28.5 20 -48.5c0 -22 -6.83301 -39.167 -20.5 -51.5s-31.834 -18.5 -54.501 -18.5c-31.333 0 -63.666 3.33301 -96.999 10h-27c-10.667 0 -16 4 -16 12s5.33301 12 16 12h2v182h53
zM321 0.000976562h-321v40h280v150c0 18 6.66699 27 20 27c14 0 21 -9 21 -27v-190z" />
    <glyph glyph-name="rnoonmedialarabic" unicode="&#x6bb;" arabic-form="medial" 
d="M337 431c-16 0 -33.667 -7.83203 -53 -23.499s-35.333 -32.834 -48 -51.501v-4c36 -6 68.667 -9 98 -9c16 0 28.333 4.16699 37 12.5s13 19.5 13 33.5c0 12 -4.33301 22 -13 30s-20 12 -34 12zM264 534.001c10.667 0 16 -4 16 -12c0 -8.66699 -5.33301 -13 -16 -13h-28
v-118c10.667 16 25.5 30.667 44.5 44s38.167 20 57.5 20c20 0 36.667 -6.16699 50 -18.5s20 -28.5 20 -48.5c0 -22 -6.83301 -39.167 -20.5 -51.5s-31.834 -18.5 -54.501 -18.5c-31.333 0 -63.666 3.33301 -96.999 10h-27c-10.667 0 -16 4 -16 12s5.33301 12 16 12h2v182h53
zM321 40.001h279v-40h-600v40h280v150c0 18 6.66699 27 20 27c14 0 21 -9 21 -27v-150z" />
    <glyph glyph-name="unifba4" unicode="&#x6c0;" arabic-form="isolated" 
d="M319.53 404.755c-11.5244 0 -20.5312 -3.12109 -27.0137 -9.36328c-6.48242 -6.24316 -9.72363 -14.6465 -9.72363 -25.21c0 -10.084 3.36133 -18.3672 10.084 -24.8496s15.6064 -9.72363 26.6504 -9.72363c9.60352 0 17.7666 2.64062 24.4893 7.92285
c1.9209 1.9209 5.04199 2.88086 9.36328 2.88086c3.8418 0 7.32324 -1.2002 10.4443 -3.60156c3.12109 -2.40039 4.68164 -5.76172 4.68164 -10.083c0 -5.7627 -3.36133 -10.5645 -10.084 -14.4062l-102.999 -59.7822c-3.8418 -1.9209 -6.96289 -2.88184 -9.36328 -2.88184
c-3.36133 0 -6.60254 1.32031 -9.72461 3.96191c-3.12109 2.6416 -4.68164 6.12305 -4.68164 10.4443c0 5.76172 3.12109 10.3232 9.36426 13.6846l49.6982 28.8115c-24.9697 12.0049 -37.4541 31.2119 -37.4541 57.6221c0 17.7666 6.48242 32.8926 19.4473 45.377
c12.9658 12.4854 28.5723 18.7275 46.8193 18.7275c14.8857 0 28.5713 -4.56152 41.0566 -13.6855c4.32129 -3.36133 6.48242 -7.68262 6.48242 -12.9648c0 -4.32129 -1.32031 -7.80273 -3.96191 -10.4443c-2.64062 -2.64062 -5.88184 -3.96094 -9.72363 -3.96094
c-3.84082 0 -7.68262 1.2002 -11.5244 3.60156c-7.68262 5.28223 -15.125 7.92285 -22.3271 7.92285zM299.997 220c34.667 -26 59.667 -49.832 75 -71.499s23 -46.167 23 -73.5c0 -32.667 -7.83301 -56 -23.5 -70s-40.5 -21 -74.5 -21c-32.667 0 -57.167 6.83301 -73.5 20.5
s-24.5 38.167 -24.5 73.5c0 43.333 32.667 90.666 98 141.999zM299.997 169.001c-38 -30.667 -56.999 -60.999 -56.999 -90.999c0 -19.333 4.66699 -33 14 -41s23.666 -12 42.999 -12c20 0 34.5 4 43.5 12s13.5 20.667 13.5 38c0 35.333 -19 66.666 -57 93.999z" />
    <glyph glyph-name="hehhamzafinalarabic" unicode="&#x6c0;" arabic-form="final" 
d="M319.53 404.755c-11.5244 0 -20.5312 -3.12109 -27.0137 -9.36328c-6.48242 -6.24316 -9.72363 -14.6465 -9.72363 -25.21c0 -10.084 3.36133 -18.3672 10.084 -24.8496s15.6064 -9.72363 26.6504 -9.72363c9.60352 0 17.7666 2.64062 24.4893 7.92285
c1.9209 1.9209 5.04199 2.88086 9.36328 2.88086c3.8418 0 7.32324 -1.2002 10.4443 -3.60156c3.12109 -2.40039 4.68164 -5.76172 4.68164 -10.083c0 -5.7627 -3.36133 -10.5645 -10.084 -14.4062l-102.999 -59.7822c-3.8418 -1.9209 -6.96289 -2.88184 -9.36328 -2.88184
c-3.36133 0 -6.60254 1.32031 -9.72461 3.96191c-3.12109 2.6416 -4.68164 6.12305 -4.68164 10.4443c0 5.76172 3.12109 10.3232 9.36426 13.6846l49.6982 28.8115c-24.9697 12.0049 -37.4541 31.2119 -37.4541 57.6221c0 17.7666 6.48242 32.8926 19.4473 45.377
c12.9658 12.4854 28.5723 18.7275 46.8193 18.7275c14.8857 0 28.5713 -4.56152 41.0566 -13.6855c4.32129 -3.36133 6.48242 -7.68262 6.48242 -12.9648c0 -4.32129 -1.32031 -7.80273 -3.96191 -10.4443c-2.64062 -2.64062 -5.88184 -3.96094 -9.72363 -3.96094
c-3.84082 0 -7.68262 1.2002 -11.5244 3.60156c-7.68262 5.28223 -15.125 7.92285 -22.3271 7.92285zM410.997 216v-70c0 -27.333 17.333 -51.833 52 -73.5s62.667 -32.5 84 -32.5h53v-40h-59c-42.667 -0 -81 17.333 -115 52c-3.33301 -24 -12.666 -41.333 -27.999 -52
s-38 -16 -68 -16c-36 0 -66.333 7.16699 -91 21.5s-37 38.5 -37 72.5c0 25.333 9 45.5 27 60.5s42.667 28.833 74 41.5s53.666 24.334 66.999 35.001c0 12.667 7 19 21 19c5.33301 0 10 -1.83301 14 -5.5s6 -7.83398 6 -12.501zM385.997 94
c-10.667 17.333 -16.001 35 -16.001 53v22c-8 -6 -23.5 -13.5 -46.5 -22.5s-42.167 -18.667 -57.5 -29s-23 -23.5 -23 -39.5c0 -18 8.83301 -31.333 26.5 -40s37.834 -13 60.501 -13c20 0 34.5 4 43.5 12s13.5 20.667 13.5 38c0 6 -0.333008 12.333 -1 19z" />
    <glyph glyph-name="unifba6" unicode="&#x6c1;" arabic-form="isolated" 
d="M300 220c34.667 -26 59.667 -49.832 75 -71.499s23 -46.167 23 -73.5c0 -32.667 -7.83301 -56 -23.5 -70s-40.5 -21 -74.5 -21c-32.667 0 -57.167 6.83301 -73.5 20.5s-24.5 38.167 -24.5 73.5c0 43.333 32.667 90.666 98 141.999zM300 169.001
c-38 -30.667 -56.999 -60.999 -56.999 -90.999c0 -19.333 4.66699 -33 14 -41s23.666 -12 42.999 -12c20 0 34.5 4 43.5 12s13.5 20.667 13.5 38c0 35.333 -19 66.666 -57 93.999z" />
    <glyph glyph-name="hehgoalfinaarabic" unicode="&#x6c1;" arabic-form="final" 
d="M600 0h-174.999c-12.667 0 -25.834 2.5 -39.501 7.5s-23.5 7.5 -29.5 7.5c-6.66699 0 -17.167 -8.33301 -31.5 -25s-23.833 -25 -28.5 -25c-4 0 -8.16699 2.33301 -12.5 7s-6.5 10.667 -6.5 18c0 6 9.5 18.333 28.5 37s35.833 28 50.5 28c9.33301 0 21 -2.5 35 -7.5
s26.667 -7.5 38 -7.5h171v-40z" />
    <glyph glyph-name="hehgoalinitarabic" unicode="&#x6c1;" arabic-form="initial" 
d="M0 40h175c24 0 44.333 14 61 42c4 6 9.66699 9 17 9c10.667 0 17.667 -8 21 -24l24 -139l32 58c6.66699 10 14 15 22 15c5.33301 0 10.166 -1.83301 14.499 -5.5s6.5 -8.5 6.5 -14.5c0 -2 -2.33301 -7.66699 -7 -17l-58 -103c-5.33301 -10 -12.666 -15 -21.999 -15
c-11.333 0 -18.333 8 -21 24l-25 150c-24.667 -13.333 -47.667 -20 -69 -20h-171v40z" />
    <glyph glyph-name="hehgoalmedialarabic" unicode="&#x6c1;" arabic-form="medial" 
d="M0 40h164.999c24 0 44.333 14 61 42c4 6 9.66699 9 17 9c10.667 0 17.667 -8 21 -24l24 -139l43 98c4 9.33301 12 14 24 14h245v-40h-235l-67 -139c-5.33301 -10 -12.666 -15 -21.999 -15c-11.333 0 -18.333 8 -21 24l-25 150c-24.667 -13.333 -47.667 -20 -69 -20h-161
v40z" />
    <glyph glyph-name="unifbaa" unicode="&#x6be;" arabic-form="isolated" 
d="M300 220c37.333 -28 64.665 -52.668 81.998 -74.001s26 -45 26 -71c0 -32.667 -7.83301 -56 -23.5 -70s-40.5 -21 -74.5 -21c-29.333 0 -56.666 10 -81.999 30c-28 -9.33301 -58.333 -14 -91 -14h-63c-16 0 -24 6.66699 -24 20s8 20 24 20h57
c26.667 0 49.334 2.33301 68.001 7c-11.333 17.333 -17 37.666 -17 60.999c0 22.667 11.333 44.334 34 65.001s50.667 36.334 84 47.001zM332.999 146.999c-2.66699 -49.333 -23 -86.667 -61 -112c13.333 -6.66699 26 -10 38 -10c20 0 34.5 4 43.5 12s13.5 20.667 13.5 38
c0 22.667 -11.333 46.667 -34 72zM238.999 61.998c38 21.333 57 59.332 57 113.999c-23.333 -8.66699 -41 -18.667 -53 -30s-18 -28 -18 -50c0 -11.333 4.66699 -22.666 14 -33.999z" />
    <glyph glyph-name="unifbab" unicode="&#x6be;" arabic-form="final" 
d="M239 62c38 21.333 57 59.332 57 113.999c-23.333 -8.66699 -41 -18.667 -53 -30s-18 -28 -18 -50c0 -11.333 4.66699 -22.666 14 -33.999zM333 146.999c-2.66699 -49.333 -23 -86.667 -61 -112c13.333 -6.66699 26 -10 38 -10c20 0 34.5 4 43.5 12s13.5 20.667 13.5 38
c0 22.667 -11.333 46.667 -34 72zM300 219.998c37.333 -28 64.665 -52.667 81.998 -74s26 -45 26 -71c0 -14.667 -1.33301 -26.334 -4 -35.001h196v-40h-222c-15.333 -10.667 -38 -16 -68 -16c-29.333 0 -56.666 10 -81.999 30c-28 -9.33301 -58.333 -14 -91 -14h-63
c-16 0 -24 6.66699 -24 20s8 20 24 20h57c26.667 0 49.334 2.33301 68.001 7c-11.333 17.333 -17 37.666 -17 60.999c0 22.667 11.333 44.334 34 65.001s50.667 36.334 84 47.001z" />
    <glyph glyph-name="unifbac" unicode="&#x6be;" arabic-form="initial" 
d="M300 220c37.333 -28 64.665 -52.668 81.998 -74.001s26 -45 26 -71c0 -32.667 -7.83301 -56 -23.5 -70s-40.5 -21 -74.5 -21c-29.333 0 -56.666 10 -81.999 30c-28 -9.33301 -58.333 -14 -91 -14h-137v40h131c26.667 0 49.334 2.33301 68.001 7
c-11.333 17.333 -17 37.666 -17 60.999c0 22.667 11.333 44.334 34 65.001s50.667 36.334 84 47.001zM332.999 146.999c-2.66699 -49.333 -23 -86.667 -61 -112c13.333 -6.66699 26 -10 38 -10c20 0 34.5 4 43.5 12s13.5 20.667 13.5 38c0 22.667 -11.333 46.667 -34 72z
M238.999 61.998c38 21.333 57 59.332 57 113.999c-23.333 -8.66699 -41 -18.667 -53 -30s-18 -28 -18 -50c0 -11.333 4.66699 -22.666 14 -33.999z" />
    <glyph glyph-name="unifbad" unicode="&#x6be;" arabic-form="medial" 
d="M239 62c38 21.333 57 59.332 57 113.999c-23.333 -8.66699 -41 -18.667 -53 -30s-18 -28 -18 -50c0 -11.333 4.66699 -22.666 14 -33.999zM333 146.999c-2.66699 -49.333 -23 -86.667 -61 -112c13.333 -6.66699 26 -10 38 -10c20 0 34.5 4 43.5 12s13.5 20.667 13.5 38
c0 22.667 -11.333 46.667 -34 72zM300 219.998c37.333 -28 64.665 -52.667 81.998 -74s26 -45 26 -71c0 -14.667 -1.33301 -26.334 -4 -35.001h196v-40h-222c-15.333 -10.667 -38 -16 -68 -16c-29.333 0 -56.666 10 -81.999 30c-28 -9.33301 -58.333 -14 -91 -14h-137v40
h131c26.667 0 49.334 2.33301 68.001 7c-11.333 17.333 -17 37.666 -17 60.999c0 22.667 11.333 44.334 34 65.001s50.667 36.334 84 47.001z" />
    <glyph glyph-name="unifbae" unicode="&#x6d2;" arabic-form="isolated" 
d="M600 40v-39.999h-560v40l69.5 108.5l66.5 103.5c9.33301 15.333 19.166 26 29.499 32s23.833 9 40.5 9c30.667 0 53.334 -10.333 68.001 -31c2.66699 -4.66699 4 -9.33398 4 -14.001c0 -10.667 -5.66699 -16 -17 -16c-4 0 -7.33301 1.33301 -10 4
c-14.667 14.667 -29 22 -43 22c-15.333 0 -28.333 -8.66699 -39 -26l-122 -192h513z" />
    <glyph glyph-name="yehbarreefinaarabic" unicode="&#x6d2;" arabic-form="final" 
d="M600 40v-40h-551v40l136 212c4 5.33301 8.66699 8 14 8s10.333 -2 15 -6s7 -8.33301 7 -13c0 -3.33301 -1 -6.33301 -3 -9l-122 -192h504z" />
    <glyph glyph-name="unifbb0" unicode="&#x6d3;" arabic-form="isolated" 
d="M149.53 404.755c-11.5244 0 -20.5312 -3.12109 -27.0137 -9.36328c-6.48242 -6.24316 -9.72363 -14.6465 -9.72363 -25.21c0 -10.084 3.36133 -18.3672 10.084 -24.8496s15.6064 -9.72363 26.6504 -9.72363c9.60352 0 17.7666 2.64062 24.4893 7.92285
c1.9209 1.9209 5.04199 2.88086 9.36328 2.88086c3.8418 0 7.32324 -1.2002 10.4443 -3.60156c3.12109 -2.40039 4.68164 -5.76172 4.68164 -10.083c0 -5.7627 -3.36133 -10.5645 -10.084 -14.4062l-102.999 -59.7822c-3.8418 -1.9209 -6.96289 -2.88184 -9.36328 -2.88184
c-3.36133 0 -6.60254 1.32031 -9.72461 3.96191c-3.12109 2.6416 -4.68164 6.12305 -4.68164 10.4443c0 5.76172 3.12109 10.3232 9.36426 13.6846l49.6982 28.8115c-24.9697 12.0049 -37.4541 31.2119 -37.4541 57.6221c0 17.7666 6.48242 32.8926 19.4473 45.377
c12.9658 12.4854 28.5723 18.7275 46.8193 18.7275c14.8857 0 28.5713 -4.56152 41.0566 -13.6855c4.32129 -3.36133 6.48242 -7.68262 6.48242 -12.9648c0 -4.32129 -1.32031 -7.80273 -3.96191 -10.4443c-2.64062 -2.64062 -5.88184 -3.96094 -9.72363 -3.96094
c-3.84082 0 -7.68262 1.2002 -11.5244 3.60156c-7.68262 5.28223 -15.125 7.92285 -22.3271 7.92285zM599.997 40v-39.999h-560v40l69.5 108.5l66.5 103.5c9.33301 15.333 19.166 26 29.499 32s23.833 9 40.5 9c30.667 0 53.334 -10.333 68.001 -31
c2.66699 -4.66699 4 -9.33398 4 -14.001c0 -10.667 -5.66699 -16 -17 -16c-4 0 -7.33301 1.33301 -10 4c-14.667 14.667 -29 22 -43 22c-15.333 0 -28.333 -8.66699 -39 -26l-122 -192h513z" />
    <glyph glyph-name="unifbb1" unicode="&#x6d3;" arabic-form="final" 
d="M149.53 404.755c-11.5244 0 -20.5312 -3.12109 -27.0137 -9.36328c-6.48242 -6.24316 -9.72363 -14.6465 -9.72363 -25.21c0 -10.084 3.36133 -18.3672 10.084 -24.8496s15.6064 -9.72363 26.6504 -9.72363c9.60352 0 17.7666 2.64062 24.4893 7.92285
c1.9209 1.9209 5.04199 2.88086 9.36328 2.88086c3.8418 0 7.32324 -1.2002 10.4443 -3.60156c3.12109 -2.40039 4.68164 -5.76172 4.68164 -10.083c0 -5.7627 -3.36133 -10.5645 -10.084 -14.4062l-102.999 -59.7822c-3.8418 -1.9209 -6.96289 -2.88184 -9.36328 -2.88184
c-3.36133 0 -6.60254 1.32031 -9.72461 3.96191c-3.12109 2.6416 -4.68164 6.12305 -4.68164 10.4443c0 5.76172 3.12109 10.3232 9.36426 13.6846l49.6982 28.8115c-24.9697 12.0049 -37.4541 31.2119 -37.4541 57.6221c0 17.7666 6.48242 32.8926 19.4473 45.377
c12.9658 12.4854 28.5723 18.7275 46.8193 18.7275c14.8857 0 28.5713 -4.56152 41.0566 -13.6855c4.32129 -3.36133 6.48242 -7.68262 6.48242 -12.9648c0 -4.32129 -1.32031 -7.80273 -3.96191 -10.4443c-2.64062 -2.64062 -5.88184 -3.96094 -9.72363 -3.96094
c-3.84082 0 -7.68262 1.2002 -11.5244 3.60156c-7.68262 5.28223 -15.125 7.92285 -22.3271 7.92285zM599.997 40v-40h-551v40l136 212c4 5.33301 8.66699 8 14 8s10.333 -2 15 -6s7 -8.33301 7 -13c0 -3.33301 -1 -6.33301 -3 -9l-122 -192h504z" />
    <glyph glyph-name="ngisoarabic" unicode="&#x6ad;" arabic-form="isolated" 
d="M170 586c6 0 15.833 -7.16797 29.5 -21.501s20.5 -24.166 20.5 -29.499s-6.83301 -14.833 -20.5 -28.5s-23.5 -20.5 -29.5 -20.5s-15.833 6.83301 -29.5 20.5s-20.5 23.5 -20.5 29.5c0 5.33301 7 15 21 29s23.667 21 29 21zM250 515.999
c6 0 15.833 -7.16797 29.5 -21.501s20.5 -24.166 20.5 -29.499s-6.83301 -14.833 -20.5 -28.5s-23.5 -20.5 -29.5 -20.5s-15.833 6.83301 -29.5 20.5s-20.5 23.5 -20.5 29.5c0 5.33301 7 15 21 29s23.667 21 29 21zM90 515.998c6 0 15.833 -7.16797 29.5 -21.501
s20.5 -24.166 20.5 -29.499s-6.83301 -14.833 -20.5 -28.5s-23.5 -20.5 -29.5 -20.5s-15.833 6.83301 -29.5 20.5s-20.5 23.5 -20.5 29.5c0 5.33301 7 15 21 29s23.667 21 29 21zM268 310.997c-11.333 0 -20.333 -3.16895 -27 -9.50195s-10 -14.833 -10 -25.5
c0 -10 3.5 -18.5 10.5 -25.5s15.833 -10.5 26.5 -10.5c10 0 18.333 2.66699 25 8c2 2 5 3 9 3c10 0 15 -4.66699 15 -14c0 -5.33301 -3.33301 -10 -10 -14l-103 -60c-2.66699 -2 -5.66699 -3 -9 -3s-6.5 1.33301 -9.5 4s-4.5 6 -4.5 10c0 6 3 10.667 9 14l50 29
c-26 12.667 -39 32.334 -39 59.001c0 17.333 6.5 32.5 19.5 45.5s28.833 19.5 47.5 19.5c15.333 0 29 -4.33301 41 -13c4.66699 -3.33301 7 -7.66602 7 -12.999c0 -4 -1.5 -7.33301 -4.5 -10s-6.16699 -4 -9.5 -4c-4 0 -7.66699 1 -11 3c-7.33301 4.66699 -15 7 -23 7z
M344 558.995l172 -518.999h17c18 0 27 -6.33301 27 -19c0 -14 -9 -21 -27 -21h-433v40h376l-85 252.5l-86 252.5c-0.666992 1.33301 -1 3.66602 -1 6.99902c0 6 2.16699 10.667 6.5 14s9.5 5 15.5 5c9.33301 0 15.333 -4 18 -12z" />
    <glyph glyph-name="ngfinalarabic" unicode="&#x6ad;" arabic-form="final" 
d="M170 586c6 0 15.833 -7.16797 29.5 -21.501s20.5 -24.166 20.5 -29.499s-6.83301 -14.833 -20.5 -28.5s-23.5 -20.5 -29.5 -20.5s-15.833 6.83301 -29.5 20.5s-20.5 23.5 -20.5 29.5c0 5.33301 7 15 21 29s23.667 21 29 21zM250 515.999
c6 0 15.833 -7.16797 29.5 -21.501s20.5 -24.166 20.5 -29.499s-6.83301 -14.833 -20.5 -28.5s-23.5 -20.5 -29.5 -20.5s-15.833 6.83301 -29.5 20.5s-20.5 23.5 -20.5 29.5c0 5.33301 7 15 21 29s23.667 21 29 21zM90 515.998c6 0 15.833 -7.16797 29.5 -21.501
s20.5 -24.166 20.5 -29.499s-6.83301 -14.833 -20.5 -28.5s-23.5 -20.5 -29.5 -20.5s-15.833 6.83301 -29.5 20.5s-20.5 23.5 -20.5 29.5c0 5.33301 7 15 21 29s23.667 21 29 21zM268 310.997c-11.333 0 -20.333 -3.16895 -27 -9.50195s-10 -14.833 -10 -25.5
c0 -10 3.5 -18.5 10.5 -25.5s15.833 -10.5 26.5 -10.5c10 0 18.333 2.66699 25 8c2 2 5 3 9 3c10 0 15 -4.66699 15 -14c0 -5.33301 -3.33301 -10 -10 -14l-103 -60c-2.66699 -2 -5.66699 -3 -9 -3s-6.5 1.33301 -9.5 4s-4.5 6 -4.5 10c0 6 3 10.667 9 14l50 29
c-26 12.667 -39 32.334 -39 59.001c0 17.333 6.5 32.5 19.5 45.5s28.833 19.5 47.5 19.5c15.333 0 29 -4.33301 41 -13c4.66699 -3.33301 7 -7.66602 7 -12.999c0 -4 -1.5 -7.33301 -4.5 -10s-6.16699 -4 -9.5 -4c-4 0 -7.66699 1 -11 3c-7.33301 4.66699 -15 7 -23 7z
M600 39.9951v-40h-560v59l38 110c2.66699 9.33301 9.33398 14 20.001 14c5.33301 0 10.166 -1.66699 14.499 -5s6.5 -8 6.5 -14c0 -2 -0.666992 -5 -2 -9l-38 -110v-5h397l-85 252.5l-86 252.5c-0.666992 2 -1 4.33301 -1 7c0 6 2.16699 10.667 6.5 14s9.5 5 15.5 5
c9.33301 0 15.333 -4 18 -12l172 -519h17h67z" />
    <glyph glyph-name="nginitarabic" unicode="&#x6ad;" arabic-form="initial" 
d="M180 656c6 0 15.833 -7.16797 29.5 -21.501s20.5 -24.166 20.5 -29.499s-6.83301 -14.833 -20.5 -28.5s-23.5 -20.5 -29.5 -20.5s-15.833 6.83301 -29.5 20.5s-20.5 23.5 -20.5 29.5c0 5.33301 7 15 21 29s23.667 21 29 21zM260 585.999
c6 0 15.833 -7.16797 29.5 -21.501s20.5 -24.166 20.5 -29.499s-6.83301 -14.833 -20.5 -28.5s-23.5 -20.5 -29.5 -20.5s-15.833 6.83301 -29.5 20.5s-20.5 23.5 -20.5 29.5c0 5.33301 7 15 21 29s23.667 21 29 21zM100 585.998c6 0 15.833 -7.16797 29.5 -21.501
s20.5 -24.166 20.5 -29.499s-6.83301 -14.833 -20.5 -28.5s-23.5 -20.5 -29.5 -20.5s-15.833 6.83301 -29.5 20.5s-20.5 23.5 -20.5 29.5c0 5.33301 7 15 21 29s23.667 21 29 21zM223 374.997l243 -335.001h17c18 0 27 -6.33301 27 -19c0 -14 -9 -21 -27 -21h-483v40h414
l-252 343l277 194c4 3.33301 8.66699 5 14 5c6 0 11.167 -2.16699 15.5 -6.5s6.5 -9.16602 6.5 -14.499s-2 -9.33301 -6 -12z" />
    <glyph glyph-name="ngmedialarabic" unicode="&#x6ad;" arabic-form="medial" 
d="M180 656c6 0 15.833 -7.16797 29.5 -21.501s20.5 -24.166 20.5 -29.499s-6.83301 -14.833 -20.5 -28.5s-23.5 -20.5 -29.5 -20.5s-15.833 6.83301 -29.5 20.5s-20.5 23.5 -20.5 29.5c0 5.33301 7 15 21 29s23.667 21 29 21zM260 585.999
c6 0 15.833 -7.16797 29.5 -21.501s20.5 -24.166 20.5 -29.499s-6.83301 -14.833 -20.5 -28.5s-23.5 -20.5 -29.5 -20.5s-15.833 6.83301 -29.5 20.5s-20.5 23.5 -20.5 29.5c0 5.33301 7 15 21 29s23.667 21 29 21zM100 585.998c6 0 15.833 -7.16797 29.5 -21.501
s20.5 -24.166 20.5 -29.499s-6.83301 -14.833 -20.5 -28.5s-23.5 -20.5 -29.5 -20.5s-15.833 6.83301 -29.5 20.5s-20.5 23.5 -20.5 29.5c0 5.33301 7 15 21 29s23.667 21 29 21zM223 374.997l243 -335.001h134v-40h-600v40h414l-252 343l277 194c4 3.33301 8.66699 5 14 5
c6 0 11.167 -2.16699 15.5 -6.5s6.5 -9.16602 6.5 -14.499s-2 -9.33301 -6 -12z" />
    <glyph glyph-name="unifbd7" unicode="&#x6c7;" arabic-form="isolated" 
d="M301 332c18.667 20.667 27.999 35 27.999 43c0 7.33301 -2.83301 13.833 -8.5 19.5s-12.5 8.5 -20.5 8.5c-7.33301 0 -13.666 -3 -18.999 -9s-8 -12.333 -8 -19c0 -8 9.33301 -22.333 28 -43zM344.999 249l-43.001 41.001l-60 -67l-21 17l60 69
c-0.666992 1.33301 -4.16699 5.16602 -10.5 11.499s-10.5 10.833 -12.5 13.5s-4.83301 6.66699 -8.5 12s-6.16699 10.333 -7.5 15s-2 9.66699 -2 15c0 14 6.33301 27.333 19 40s26.334 19 41.001 19c16 0 30.333 -6.33301 43 -19s19 -26 19 -40
c0 -6 -1.5 -12.167 -4.5 -18.5s-6 -11.333 -9 -15l-13.5 -16c-6 -7 -10 -11.833 -12 -14.5l42 -42zM310.998 129.001c-16 0 -28.667 -4.66699 -38 -14s-14 -21.333 -14 -36c0 -14 4.83301 -25.667 14.5 -35s22.167 -14 37.5 -14c16 0 28.667 4.5 38 13.5s14 20.5 14 34.5
s-5 26 -15 36s-22.333 15 -37 15zM118.998 -145.999c2 0 10.668 -2.50098 26.001 -7.50098s30 -7.5 44 -7.5c50 0 91.5 14.333 124.5 43s49.5 67.667 49.5 117v6c-16 -10.667 -33.333 -16 -52 -16c-25.333 0 -47.166 9 -65.499 27s-27.5 39.333 -27.5 64
s9.16699 45.834 27.5 63.501s40.166 26.5 65.499 26.5c26 0 48 -8.83301 66 -26.5s27 -39.5 27 -65.5v-85c0 -58 -20.833 -104.667 -62.5 -140s-92.834 -53 -153.501 -53c-16.667 0 -35.334 2.66699 -56.001 8s-31 14 -31 26c0 5.33301 1.83301 10 5.5 14
s7.83398 6 12.501 6z" />
    <glyph glyph-name="unifbd8" unicode="&#x6c7;" arabic-form="final" 
d="M301 332c18.667 20.667 27.999 35 27.999 43c0 7.33301 -2.83301 13.833 -8.5 19.5s-12.5 8.5 -20.5 8.5c-7.33301 0 -13.666 -3 -18.999 -9s-8 -12.333 -8 -19c0 -8 9.33301 -22.333 28 -43zM344.999 249l-43.001 41.001l-60 -67l-21 17l60 69
c-0.666992 1.33301 -4.16699 5.16602 -10.5 11.499s-10.5 10.833 -12.5 13.5s-4.83301 6.66699 -8.5 12s-6.16699 10.333 -7.5 15s-2 9.66699 -2 15c0 14 6.33301 27.333 19 40s26.334 19 41.001 19c16 0 30.333 -6.33301 43 -19s19 -26 19 -40
c0 -6 -1.5 -12.167 -4.5 -18.5s-6 -11.333 -9 -15l-13.5 -16c-6 -7 -10 -11.833 -12 -14.5l42 -42zM599.998 40.001l0.000976562 -40.001h-196c0 -60.667 -20.333 -109.167 -61 -145.5s-92.334 -54.5 -155.001 -54.5c-16.667 0 -35.334 2.66699 -56.001 8s-31 14 -31 26
c0 5.33301 1.83301 10 5.5 14s7.83398 6 12.501 6c2 0 10.667 -2.5 26 -7.5s30 -7.5 44 -7.5c50 0 91.5 14.333 124.5 43s49.5 67.667 49.5 117v6c-16 -10.667 -33.333 -16 -52 -16c-25.333 0 -47.166 9 -65.499 27s-27.5 39.333 -27.5 64s9.16699 45.834 27.5 63.501
s40.166 26.5 65.499 26.5c26 0 48 -8.83301 66 -26.5s27 -39.5 27 -65.5v-38h196zM310.999 129c-16 0 -28.667 -4.66699 -38 -14s-14 -21.333 -14 -36c0 -14 4.83301 -25.667 14.5 -35s22.167 -14 37.5 -14c16 0 28.667 4.5 38 13.5s14 20.5 14 34.5s-5 26 -15 36
s-22.333 15 -37 15z" />
    <glyph glyph-name="unifbd9" unicode="&#x6c6;" arabic-form="isolated" 
d="M300 315l62 110c4.66699 8.66699 10.667 13 18 13c4.66699 0 9.5 -2.16699 14.5 -6.5s7.5 -8.83301 7.5 -13.5c0 -2.66699 -1.66699 -6.66699 -5 -12l-97 -173l-97 173c-3.33301 5.33301 -5 9.33301 -5 12c0 4.66699 2.5 9.16699 7.5 13.5s9.83301 6.5 14.5 6.5
c7.33301 0 13.333 -4.33301 18 -13zM311 129c-16 0 -28.667 -4.66699 -38 -14s-14 -21.333 -14 -36c0 -14 4.83301 -25.667 14.5 -35s22.167 -14 37.5 -14c16 0 28.667 4.5 38 13.5s14 20.5 14 34.5s-5 26 -15 36s-22.333 15 -37 15zM119 -146
c2 0 10.668 -2.50098 26.001 -7.50098s30 -7.5 44 -7.5c50 0 91.5 14.333 124.5 43s49.5 67.667 49.5 117v6c-16 -10.667 -33.333 -16 -52 -16c-25.333 0 -47.166 9 -65.499 27s-27.5 39.333 -27.5 64s9.16699 45.834 27.5 63.501s40.166 26.5 65.499 26.5
c26 0 48 -8.83301 66 -26.5s27 -39.5 27 -65.5v-85c0 -58 -20.833 -104.667 -62.5 -140s-92.834 -53 -153.501 -53c-16.667 0 -35.334 2.66699 -56.001 8s-31 14 -31 26c0 5.33301 1.83301 10 5.5 14s7.83398 6 12.501 6z" />
    <glyph glyph-name="unifbda" unicode="&#x6c6;" arabic-form="final" 
d="M300 315l62 110c4.66699 8.66699 10.667 13 18 13c4.66699 0 9.5 -2.16699 14.5 -6.5s7.5 -8.83301 7.5 -13.5c0 -2.66699 -1.66699 -6.66699 -5 -12l-97 -173l-97 173c-3.33301 5.33301 -5 9.33301 -5 12c0 4.66699 2.5 9.16699 7.5 13.5s9.83301 6.5 14.5 6.5
c7.33301 0 13.333 -4.33301 18 -13zM600 40l0.000976562 -40.001h-196c0 -60.667 -20.333 -109.167 -61 -145.5s-92.334 -54.5 -155.001 -54.5c-16.667 0 -35.334 2.66699 -56.001 8s-31 14 -31 26c0 5.33301 1.83301 10 5.5 14s7.83398 6 12.501 6c2 0 10.667 -2.5 26 -7.5
s30 -7.5 44 -7.5c50 0 91.5 14.333 124.5 43s49.5 67.667 49.5 117v6c-16 -10.667 -33.333 -16 -52 -16c-25.333 0 -47.166 9 -65.499 27s-27.5 39.333 -27.5 64s9.16699 45.834 27.5 63.501s40.166 26.5 65.499 26.5c26 0 48 -8.83301 66 -26.5s27 -39.5 27 -65.5v-38h196z
M311.001 128.999c-16 0 -28.667 -4.66699 -38 -14s-14 -21.333 -14 -36c0 -14 4.83301 -25.667 14.5 -35s22.167 -14 37.5 -14c16 0 28.667 4.5 38 13.5s14 20.5 14 34.5s-5 26 -15 36s-22.333 15 -37 15z" />
    <glyph glyph-name="unifbdb" unicode="&#x6c8;" arabic-form="isolated" 
d="M320 391v-98c0 -15.333 -6.66699 -23 -20 -23s-20 7.66699 -20 23v98c0 16 6.66699 24 20 24s20 -8 20 -24zM311 129c-16 0 -28.667 -4.66699 -38 -14s-14 -21.333 -14 -36c0 -14 4.83301 -25.667 14.5 -35s22.167 -14 37.5 -14c16 0 28.667 4.5 38 13.5s14 20.5 14 34.5
s-5 26 -15 36s-22.333 15 -37 15zM119 -146c2 0 10.668 -2.50098 26.001 -7.50098s30 -7.5 44 -7.5c50 0 91.5 14.333 124.5 43s49.5 67.667 49.5 117v6c-16 -10.667 -33.333 -16 -52 -16c-25.333 0 -47.166 9 -65.499 27s-27.5 39.333 -27.5 64s9.16699 45.834 27.5 63.501
s40.166 26.5 65.499 26.5c26 0 48 -8.83301 66 -26.5s27 -39.5 27 -65.5v-85c0 -58 -20.833 -104.667 -62.5 -140s-92.834 -53 -153.501 -53c-16.667 0 -35.334 2.66699 -56.001 8s-31 14 -31 26c0 5.33301 1.83301 10 5.5 14s7.83398 6 12.501 6z" />
    <glyph glyph-name="unifbdc" unicode="&#x6c8;" arabic-form="final" 
d="M320 391v-98c0 -15.333 -6.66699 -23 -20 -23s-20 7.66699 -20 23v98c0 16 6.66699 24 20 24s20 -8 20 -24zM600 40l0.000976562 -40.001h-196c0 -60.667 -20.333 -109.167 -61 -145.5s-92.334 -54.5 -155.001 -54.5c-16.667 0 -35.334 2.66699 -56.001 8s-31 14 -31 26
c0 5.33301 1.83301 10 5.5 14s7.83398 6 12.501 6c2 0 10.667 -2.5 26 -7.5s30 -7.5 44 -7.5c50 0 91.5 14.333 124.5 43s49.5 67.667 49.5 117v6c-16 -10.667 -33.333 -16 -52 -16c-25.333 0 -47.166 9 -65.499 27s-27.5 39.333 -27.5 64s9.16699 45.834 27.5 63.501
s40.166 26.5 65.499 26.5c26 0 48 -8.83301 66 -26.5s27 -39.5 27 -65.5v-38h196zM311.001 128.999c-16 0 -28.667 -4.66699 -38 -14s-14 -21.333 -14 -36c0 -14 4.83301 -25.667 14.5 -35s22.167 -14 37.5 -14c16 0 28.667 4.5 38 13.5s14 20.5 14 34.5s-5 26 -15 36
s-22.333 15 -37 15z" />
    <glyph glyph-name="unifbdd" unicode="&#x677;" arabic-form="isolated" 
d="M301 332c18.667 20.667 27.999 35 27.999 43c0 7.33301 -2.83301 13.833 -8.5 19.5s-12.5 8.5 -20.5 8.5c-7.33301 0 -13.666 -3 -18.999 -9s-8 -12.333 -8 -19c0 -8 9.33301 -22.333 28 -43zM344.999 249l-43.001 41.001l-60 -67l-21 17l60 69
c-0.666992 1.33301 -4.16699 5.16602 -10.5 11.499s-10.5 10.833 -12.5 13.5s-4.83301 6.66699 -8.5 12s-6.16699 10.333 -7.5 15s-2 9.66699 -2 15c0 14 6.33301 27.333 19 40s26.334 19 41.001 19c16 0 30.333 -6.33301 43 -19s19 -26 19 -40
c0 -6 -1.5 -12.167 -4.5 -18.5s-6 -11.333 -9 -15l-13.5 -16c-6 -7 -10 -11.833 -12 -14.5l42 -42zM479.528 404.756c-11.5244 0 -20.5312 -3.12109 -27.0137 -9.36328c-6.48242 -6.24316 -9.72363 -14.6465 -9.72363 -25.21c0 -10.084 3.36133 -18.3672 10.084 -24.8496
s15.6064 -9.72363 26.6504 -9.72363c9.60352 0 17.7666 2.64062 24.4893 7.92285c1.9209 1.9209 5.04199 2.88086 9.36328 2.88086c3.8418 0 7.32324 -1.2002 10.4443 -3.60156c3.12109 -2.40039 4.68164 -5.76172 4.68164 -10.083
c0 -5.7627 -3.36133 -10.5645 -10.084 -14.4062l-102.999 -59.7822c-3.8418 -1.9209 -6.96289 -2.88184 -9.36328 -2.88184c-3.36133 0 -6.60254 1.32031 -9.72461 3.96191c-3.12109 2.6416 -4.68164 6.12305 -4.68164 10.4443c0 5.76172 3.12109 10.3232 9.36426 13.6846
l49.6982 28.8115c-24.9697 12.0049 -37.4541 31.2119 -37.4541 57.6221c0 17.7666 6.48242 32.8926 19.4473 45.377c12.9658 12.4854 28.5723 18.7275 46.8193 18.7275c14.8857 0 28.5713 -4.56152 41.0566 -13.6855c4.32129 -3.36133 6.48242 -7.68262 6.48242 -12.9648
c0 -4.32129 -1.32031 -7.80273 -3.96094 -10.4443c-2.6416 -2.64062 -5.88281 -3.96094 -9.72461 -3.96094c-3.84082 0 -7.68262 1.2002 -11.5244 3.60156c-7.68262 5.28223 -15.125 7.92285 -22.3271 7.92285zM310.995 129.001c-16 0 -28.667 -4.66699 -38 -14
s-14 -21.333 -14 -36c0 -14 4.83301 -25.667 14.5 -35s22.167 -14 37.5 -14c16 0 28.667 4.5 38 13.5s14 20.5 14 34.5s-5 26 -15 36s-22.333 15 -37 15zM118.995 -145.999c2 0 10.668 -2.50098 26.001 -7.50098s30 -7.5 44 -7.5c50 0 91.5 14.333 124.5 43
s49.5 67.667 49.5 117v6c-16 -10.667 -33.333 -16 -52 -16c-25.333 0 -47.166 9 -65.499 27s-27.5 39.333 -27.5 64s9.16699 45.834 27.5 63.501s40.166 26.5 65.499 26.5c26 0 48 -8.83301 66 -26.5s27 -39.5 27 -65.5v-85c0 -58 -20.833 -104.667 -62.5 -140
s-92.834 -53 -153.501 -53c-16.667 0 -35.334 2.66699 -56.001 8s-31 14 -31 26c0 5.33301 1.83301 10 5.5 14s7.83398 6 12.501 6z" />
    <glyph glyph-name="unifbde" unicode="&#x6cb;" arabic-form="isolated" 
d="M300 416c6 0 15.833 -7.16797 29.5 -21.501s20.5 -24.166 20.5 -29.499s-6.83301 -14.833 -20.5 -28.5s-23.5 -20.5 -29.5 -20.5s-15.833 6.83301 -29.5 20.5s-20.5 23.5 -20.5 29.5c0 5.33301 7 15 21 29s23.667 21 29 21zM380 345.999
c6 0 15.833 -7.16797 29.5 -21.501s20.5 -24.166 20.5 -29.499s-6.83301 -14.833 -20.5 -28.5s-23.5 -20.5 -29.5 -20.5s-15.833 6.83301 -29.5 20.5s-20.5 23.5 -20.5 29.5c0 5.33301 7 15 21 29s23.667 21 29 21zM220 345.998c6 0 15.833 -7.16797 29.5 -21.501
s20.5 -24.166 20.5 -29.499s-6.83301 -14.833 -20.5 -28.5s-23.5 -20.5 -29.5 -20.5s-15.833 6.83301 -29.5 20.5s-20.5 23.5 -20.5 29.5c0 5.33301 7 15 21 29s23.667 21 29 21zM311 128.997c-16 0 -28.667 -4.66699 -38 -14s-14 -21.333 -14 -36
c0 -14 4.83301 -25.667 14.5 -35s22.167 -14 37.5 -14c16 0 28.667 4.5 38 13.5s14 20.5 14 34.5s-5 26 -15 36s-22.333 15 -37 15zM119 -146.003c2 0 10.668 -2.50098 26.001 -7.50098s30 -7.5 44 -7.5c50 0 91.5 14.333 124.5 43s49.5 67.667 49.5 117v6
c-16 -10.667 -33.333 -16 -52 -16c-25.333 0 -47.166 9 -65.499 27s-27.5 39.333 -27.5 64s9.16699 45.834 27.5 63.501s40.166 26.5 65.499 26.5c26 0 48 -8.83301 66 -26.5s27 -39.5 27 -65.5v-85c0 -58 -20.833 -104.667 -62.5 -140s-92.834 -53 -153.501 -53
c-16.667 0 -35.334 2.66699 -56.001 8s-31 14 -31 26c0 5.33301 1.83301 10 5.5 14s7.83398 6 12.501 6z" />
    <glyph glyph-name="unifbdf" unicode="&#x6cb;" arabic-form="final" 
d="M300 416c6 0 15.833 -7.16797 29.5 -21.501s20.5 -24.166 20.5 -29.499s-6.83301 -14.833 -20.5 -28.5s-23.5 -20.5 -29.5 -20.5s-15.833 6.83301 -29.5 20.5s-20.5 23.5 -20.5 29.5c0 5.33301 7 15 21 29s23.667 21 29 21zM380 345.999
c6 0 15.833 -7.16797 29.5 -21.501s20.5 -24.166 20.5 -29.499s-6.83301 -14.833 -20.5 -28.5s-23.5 -20.5 -29.5 -20.5s-15.833 6.83301 -29.5 20.5s-20.5 23.5 -20.5 29.5c0 5.33301 7 15 21 29s23.667 21 29 21zM220 345.998c6 0 15.833 -7.16797 29.5 -21.501
s20.5 -24.166 20.5 -29.499s-6.83301 -14.833 -20.5 -28.5s-23.5 -20.5 -29.5 -20.5s-15.833 6.83301 -29.5 20.5s-20.5 23.5 -20.5 29.5c0 5.33301 7 15 21 29s23.667 21 29 21zM600 39.9971l0.000976562 -40.001h-196c0 -60.667 -20.333 -109.167 -61 -145.5
s-92.334 -54.5 -155.001 -54.5c-16.667 0 -35.334 2.66699 -56.001 8s-31 14 -31 26c0 5.33301 1.83301 10 5.5 14s7.83398 6 12.501 6c2 0 10.667 -2.5 26 -7.5s30 -7.5 44 -7.5c50 0 91.5 14.333 124.5 43s49.5 67.667 49.5 117v6c-16 -10.667 -33.333 -16 -52 -16
c-25.333 0 -47.166 9 -65.499 27s-27.5 39.333 -27.5 64s9.16699 45.834 27.5 63.501s40.166 26.5 65.499 26.5c26 0 48 -8.83301 66 -26.5s27 -39.5 27 -65.5v-38h196zM311.001 128.996c-16 0 -28.667 -4.66699 -38 -14s-14 -21.333 -14 -36
c0 -14 4.83301 -25.667 14.5 -35s22.167 -14 37.5 -14c16 0 28.667 4.5 38 13.5s14 20.5 14 34.5s-5 26 -15 36s-22.333 15 -37 15z" />
    <glyph glyph-name="unifbe0" unicode="&#x6c5;" arabic-form="isolated" 
d="M181 -99c-18 0 -26.999 6.99902 -26.999 20.999c0 13.333 9 20 27 20h173c6 17.333 9 36.333 9 57v6c-16 -10.667 -33.333 -16 -52 -16c-25.333 0 -47.166 9 -65.499 27s-27.5 39.333 -27.5 64s9.16699 45.834 27.5 63.501s40.166 26.5 65.499 26.5
c26 0 48 -8.83301 66 -26.5s27 -39.5 27 -65.5v-85c0 -58 -20.833 -104.667 -62.5 -140s-92.834 -53 -153.501 -53c-16.667 0 -35.334 2.66699 -56.001 8s-31 14 -31 26c0 5.33301 1.83301 10 5.5 14s7.83398 6 12.501 6c2 0 10.667 -2.5 26 -7.5s30 -7.5 44 -7.5
c62.667 0 110 20.667 142 62h-150zM311.001 128.999c-16 0 -28.667 -4.66699 -38 -14s-14 -21.333 -14 -36c0 -14 4.83301 -25.667 14.5 -35s22.167 -14 37.5 -14c16 0 28.667 4.5 38 13.5s14 20.5 14 34.5s-5 26 -15 36s-22.333 15 -37 15z" />
    <glyph glyph-name="unifbe1" unicode="&#x6c5;" arabic-form="final" 
d="M181 -99c-18 0 -26.999 6.99902 -26.999 20.999c0 13.333 9 20 27 20h173c6 17.333 9 36.333 9 57v6c-16 -10.667 -33.333 -16 -52 -16c-25.333 0 -47.166 9 -65.499 27s-27.5 39.333 -27.5 64s9.16699 45.834 27.5 63.501s40.166 26.5 65.499 26.5
c26 0 48 -8.83301 66 -26.5s27 -39.5 27 -65.5v-38h196v-40h-196c0 -60.667 -20.333 -109.167 -61 -145.5s-92.334 -54.5 -155.001 -54.5c-16.667 0 -35.334 2.66699 -56.001 8s-31 14 -31 26c0 5.33301 1.83301 10 5.5 14s7.83398 6 12.501 6c2 0 10.667 -2.5 26 -7.5
s30 -7.5 44 -7.5c62.667 0 110 20.667 142 62h-150zM311.001 128.999c-16 0 -28.667 -4.66699 -38 -14s-14 -21.333 -14 -36c0 -14 4.83301 -25.667 14.5 -35s22.167 -14 37.5 -14c16 0 28.667 4.5 38 13.5s14 20.5 14 34.5s-5 26 -15 36s-22.333 15 -37 15z" />
    <glyph glyph-name="unifbe2" unicode="&#x6c9;" arabic-form="isolated" 
d="M300 352l-62 -110c-4.66699 -8.66699 -10.667 -13 -18 -13c-4.66699 0 -9.5 2.16699 -14.5 6.5s-7.5 8.83301 -7.5 13.5c0 2.66699 1.66699 6.66699 5 12l97 173l97 -173c3.33301 -5.33301 5 -9.33301 5 -12c0 -4.66699 -2.5 -9.16699 -7.5 -13.5
s-9.83301 -6.5 -14.5 -6.5c-7.33301 0 -13.333 4.33301 -18 13zM311 129c-16 0 -28.667 -4.66699 -38 -14s-14 -21.333 -14 -36c0 -14 4.83301 -25.667 14.5 -35s22.167 -14 37.5 -14c16 0 28.667 4.5 38 13.5s14 20.5 14 34.5s-5 26 -15 36s-22.333 15 -37 15zM119 -146
c2 0 10.668 -2.50098 26.001 -7.50098s30 -7.5 44 -7.5c50 0 91.5 14.333 124.5 43s49.5 67.667 49.5 117v6c-16 -10.667 -33.333 -16 -52 -16c-25.333 0 -47.166 9 -65.499 27s-27.5 39.333 -27.5 64s9.16699 45.834 27.5 63.501s40.166 26.5 65.499 26.5
c26 0 48 -8.83301 66 -26.5s27 -39.5 27 -65.5v-85c0 -58 -20.833 -104.667 -62.5 -140s-92.834 -53 -153.501 -53c-16.667 0 -35.334 2.66699 -56.001 8s-31 14 -31 26c0 5.33301 1.83301 10 5.5 14s7.83398 6 12.501 6z" />
    <glyph glyph-name="unifbe3" unicode="&#x6c9;" arabic-form="final" 
d="M300 352l-62 -110c-4.66699 -8.66699 -10.667 -13 -18 -13c-4.66699 0 -9.5 2.16699 -14.5 6.5s-7.5 8.83301 -7.5 13.5c0 2.66699 1.66699 6.66699 5 12l97 173l97 -173c3.33301 -5.33301 5 -9.33301 5 -12c0 -4.66699 -2.5 -9.16699 -7.5 -13.5
s-9.83301 -6.5 -14.5 -6.5c-7.33301 0 -13.333 4.33301 -18 13zM600 40l0.000976562 -40.001h-196c0 -60.667 -20.333 -109.167 -61 -145.5s-92.334 -54.5 -155.001 -54.5c-16.667 0 -35.334 2.66699 -56.001 8s-31 14 -31 26c0 5.33301 1.83301 10 5.5 14
s7.83398 6 12.501 6c2 0 10.667 -2.5 26 -7.5s30 -7.5 44 -7.5c50 0 91.5 14.333 124.5 43s49.5 67.667 49.5 117v6c-16 -10.667 -33.333 -16 -52 -16c-25.333 0 -47.166 9 -65.499 27s-27.5 39.333 -27.5 64s9.16699 45.834 27.5 63.501s40.166 26.5 65.499 26.5
c26 0 48 -8.83301 66 -26.5s27 -39.5 27 -65.5v-38h196zM311.001 128.999c-16 0 -28.667 -4.66699 -38 -14s-14 -21.333 -14 -36c0 -14 4.83301 -25.667 14.5 -35s22.167 -14 37.5 -14c16 0 28.667 4.5 38 13.5s14 20.5 14 34.5s-5 26 -15 36s-22.333 15 -37 15z" />
    <glyph glyph-name="unifbe4" unicode="&#x6d0;" arabic-form="isolated" 
d="M510 -100c6 0 15.833 -7.16797 29.5 -21.501s20.5 -24.166 20.5 -29.499s-6.83301 -14.833 -20.5 -28.5s-23.5 -20.5 -29.5 -20.5s-15.833 6.83301 -29.5 20.5s-20.5 23.5 -20.5 29.5c0 5.33301 7 15 21 29s23.667 21 29 21zM440 -20.001
c6 0 15.833 -7.16797 29.5 -21.501s20.5 -24.166 20.5 -29.499s-6.83301 -14.833 -20.5 -28.5s-23.5 -20.5 -29.5 -20.5s-15.833 6.83301 -29.5 20.5s-20.5 23.5 -20.5 29.5c0 5.33301 7 15 21 29s23.667 21 29 21zM414 80.998l-0.000976562 -40.999
c0 -47.333 -22.167 -89.833 -66.5 -127.5s-90.833 -56.5 -139.5 -56.5c-47.333 0 -87.166 11.667 -119.499 35s-48.5 59.666 -48.5 108.999v59l28 77c4 9.33301 10.667 14 20 14c5.33301 0 10.166 -1.66699 14.499 -5s6.5 -8 6.5 -14c0 -2 -0.666992 -5 -2 -9l-27 -77v-45
c0 -33.333 13.667 -58.833 41 -76.5s57.333 -26.5 90 -26.5c36.667 0 72.834 15.333 108.501 46s53.5 63 53.5 97c-26 0 -48 8.83301 -66 26.5s-27 38.5 -27 62.5c0 26 9 47.833 27 65.5s40 26.5 66 26.5h55c18 0 27 -6.66699 27 -20c0 -14 -9 -21 -27 -21h-55
c-15.333 0 -27.833 -4.5 -37.5 -13.5s-14.5 -21.167 -14.5 -36.5s4.66699 -27.333 14 -36s22 -13 38 -13h41z" />
    <glyph glyph-name="efinalarabic" unicode="&#x6d0;" arabic-form="final" 
d="M550 -100c6 0 15.833 -7.16797 29.5 -21.501s20.5 -24.166 20.5 -29.499s-6.83301 -14.833 -20.5 -28.5s-23.5 -20.5 -29.5 -20.5s-15.833 6.83301 -29.5 20.5s-20.5 23.5 -20.5 29.5c0 5.33301 7 15 21 29s23.667 21 29 21zM525 -5.00098
c6 0 15.833 -7.16797 29.5 -21.501s20.5 -24.166 20.5 -29.499s-6.83301 -14.833 -20.5 -28.5s-23.5 -20.5 -29.5 -20.5s-15.833 6.83301 -29.5 20.5s-20.5 23.5 -20.5 29.5c0 5.33301 7 15 21 29s23.667 21 29 21zM476 -85.002
c0 -17.333 -8.33398 -32.6689 -25.001 -46.002s-38.167 -23.666 -64.5 -30.999s-53 -12.833 -80 -16.5s-53.167 -5.5 -78.5 -5.5c-45.333 0 -84.666 12 -117.999 36s-50 56.667 -50 98v58l28 78c4 9.33301 10.667 14 20 14c5.33301 0 10.166 -1.83301 14.499 -5.5
s6.5 -8.5 6.5 -14.5c0 -1.33301 -0.666992 -4 -2 -8l-27 -78v-44c0 -27.333 14 -49.833 42 -67.5s57.667 -26.5 89 -26.5c38.667 0 81.334 6.16699 128.001 18.5s70 25.5 70 39.5l-120 82c-6.66699 4.66699 -10 12.334 -10 23.001c0 14 8 21 24 21h277
c18 0 27 -6.66699 27 -20s-9 -20 -27 -20h-223l85 -58c9.33301 -6.66699 14 -15.667 14 -27z" />
    <glyph glyph-name="einitialarabic" unicode="&#x6d0;" arabic-form="initial" 
d="M340 -100c6 0 15.833 -7.16797 29.5 -21.501s20.5 -24.166 20.5 -29.499s-6.83301 -14.833 -20.5 -28.5s-23.5 -20.5 -29.5 -20.5s-15.833 6.83301 -29.5 20.5s-20.5 23.5 -20.5 29.5c0 5.33301 7 15 21 29s23.667 21 29 21zM270 -20.001
c6 0 15.833 -7.16797 29.5 -21.501s20.5 -24.166 20.5 -29.499s-6.83301 -14.833 -20.5 -28.5s-23.5 -20.5 -29.5 -20.5s-15.833 6.83301 -29.5 20.5s-20.5 23.5 -20.5 29.5c0 5.33301 7 15 21 29s23.667 21 29 21zM321 -0.00195312h-321v40h280v150c0 18 6.66699 27 20 27
c14 0 21 -9 21 -27v-190z" />
    <glyph glyph-name="emedialarabic" unicode="&#x6d0;" arabic-form="medial" 
d="M340 -100c6 0 15.833 -7.16797 29.5 -21.501s20.5 -24.166 20.5 -29.499s-6.83301 -14.833 -20.5 -28.5s-23.5 -20.5 -29.5 -20.5s-15.833 6.83301 -29.5 20.5s-20.5 23.5 -20.5 29.5c0 5.33301 7 15 21 29s23.667 21 29 21zM270 -20.001
c6 0 15.833 -7.16797 29.5 -21.501s20.5 -24.166 20.5 -29.499s-6.83301 -14.833 -20.5 -28.5s-23.5 -20.5 -29.5 -20.5s-15.833 6.83301 -29.5 20.5s-20.5 23.5 -20.5 29.5c0 5.33301 7 15 21 29s23.667 21 29 21zM321 39.998h279v-40h-600v40h280v150
c0 18 6.66699 27 20 27c14 0 21 -9 21 -27v-150z" />
    <glyph glyph-name="alefmaksurainitarabic" unicode="&#x649;" arabic-form="initial" 
d="M321 0h-321v40h280v150c0 18 6.66699 27 20 27c14 0 21 -9 21 -27v-190z" />
    <glyph glyph-name="alefmaksuramediarabic" unicode="&#x649;" arabic-form="medial" 
d="M321 40h279v-40h-600v40h280v150c0 18 6.66699 27 20 27c14 0 21 -9 21 -27v-150z" />
    <glyph glyph-name="unifbfc" unicode="&#x6cc;" arabic-form="isolated" 
d="M474 81l-0.000976562 -40.999c0 -47.333 -22.167 -89.833 -66.5 -127.5s-90.833 -56.5 -139.5 -56.5c-47.333 0 -87.166 11.667 -119.499 35s-48.5 59.666 -48.5 108.999v59l28 77c4 9.33301 10.667 14 20 14c5.33301 0 10.166 -1.66699 14.499 -5s6.5 -8 6.5 -14
c0 -2 -0.666992 -5 -2 -9l-27 -77v-45c0 -33.333 13.667 -58.833 41 -76.5s57.333 -26.5 90 -26.5c36.667 0 72.834 15.333 108.501 46s53.5 63 53.5 97c-26 0 -48 8.83301 -66 26.5s-27 38.5 -27 62.5c0 26 9 47.833 27 65.5s40 26.5 66 26.5h55c18 0 27 -6.66699 27 -20
c0 -14 -9 -21 -27 -21h-55c-15.333 0 -27.833 -4.5 -37.5 -13.5s-14.5 -21.167 -14.5 -36.5s4.66699 -27.333 14 -36s22 -13 38 -13h41z" />
    <glyph glyph-name="yehfarsifinaarabic" unicode="&#x6cc;" arabic-form="final" 
d="M476 -85c0 -17.333 -8.33398 -32.6689 -25.001 -46.002s-38.167 -23.666 -64.5 -30.999s-53 -12.833 -80 -16.5s-53.167 -5.5 -78.5 -5.5c-45.333 0 -84.666 12 -117.999 36s-50 56.667 -50 98v58l28 78c4 9.33301 10.667 14 20 14
c5.33301 0 10.166 -1.83301 14.499 -5.5s6.5 -8.5 6.5 -14.5c0 -1.33301 -0.666992 -4 -2 -8l-27 -78v-44c0 -27.333 14 -49.833 42 -67.5s57.667 -26.5 89 -26.5c38.667 0 81.334 6.16699 128.001 18.5s70 25.5 70 39.5l-120 82c-6.66699 4.66699 -10 12.334 -10 23.001
c0 14 8 21 24 21h277c18 0 27 -6.66699 27 -20s-9 -20 -27 -20h-223l85 -58c9.33301 -6.66699 14 -15.667 14 -27z" />
    <glyph glyph-name="yehfarsiinitarabic" unicode="&#x6cc;" arabic-form="initial" 
d="M370 -54c6 0 15.833 -7.16797 29.5 -21.501s20.5 -24.166 20.5 -29.499s-6.83301 -14.833 -20.5 -28.5s-23.5 -20.5 -29.5 -20.5s-15.833 6.83301 -29.5 20.5s-20.5 23.5 -20.5 29.5c0 5.33301 7 15 21 29s23.667 21 29 21zM230 -54.001
c6 0 15.833 -7.16797 29.5 -21.501s20.5 -24.166 20.5 -29.499s-6.83301 -14.833 -20.5 -28.5s-23.5 -20.5 -29.5 -20.5s-15.833 6.83301 -29.5 20.5s-20.5 23.5 -20.5 29.5c0 5.33301 7 15 21 29s23.667 21 29 21zM321 -0.00195312h-321v40h280v150c0 18 6.66699 27 20 27
c14 0 21 -9 21 -27v-190z" />
    <glyph glyph-name="yehfarsimediarabic" unicode="&#x6cc;" arabic-form="medial" 
d="M370 -54c6 0 15.833 -7.16797 29.5 -21.501s20.5 -24.166 20.5 -29.499s-6.83301 -14.833 -20.5 -28.5s-23.5 -20.5 -29.5 -20.5s-15.833 6.83301 -29.5 20.5s-20.5 23.5 -20.5 29.5c0 5.33301 7 15 21 29s23.667 21 29 21zM230 -54.001
c6 0 15.833 -7.16797 29.5 -21.501s20.5 -24.166 20.5 -29.499s-6.83301 -14.833 -20.5 -28.5s-23.5 -20.5 -29.5 -20.5s-15.833 6.83301 -29.5 20.5s-20.5 23.5 -20.5 29.5c0 5.33301 7 15 21 29s23.667 21 29 21zM321 39.998h279v-40h-600v40h280v150
c0 18 6.66699 27 20 27c14 0 21 -9 21 -27v-150z" />
    <glyph glyph-name="uniFE70" unicode="&#xfe70;" arabic-form="isolated" 
d="M219 609c-6 -2.66699 -10.999 -4 -14.999 -4c-4.66699 0 -8.66699 2 -12 6s-5 8.33301 -5 13c0 8.66699 6.66699 15.667 20 21l174 62c7.33301 2 12.666 3 15.999 3c10 0 15 -5 15 -15c0 -9.33301 -6 -16.333 -18 -21zM219.001 698c-6 -2.66699 -10.999 -4 -14.999 -4
c-4.66699 0 -8.66699 2 -12 6s-5 8.33301 -5 13c0 8.66699 6.66699 15.667 20 21l174 62c7.33301 2 12.666 3 15.999 3c10 0 15 -5 15 -15c0 -9.33301 -6 -16.333 -18 -21z" />
    <glyph glyph-name="unife71" unicode="&#xfe71;" arabic-form="medial" 
d="M600 40v-40h-600v40h600zM219 609c-6 -2.66699 -10.999 -4 -14.999 -4c-4.66699 0 -8.66699 2 -12 6s-5 8.33301 -5 13c0 8.66699 6.66699 15.667 20 21l174 62c7.33301 2 12.666 3 15.999 3c10 0 15 -5 15 -15c0 -9.33301 -6 -16.333 -18 -21zM219.001 698
c-6 -2.66699 -10.999 -4 -14.999 -4c-4.66699 0 -8.66699 2 -12 6s-5 8.33301 -5 13c0 8.66699 6.66699 15.667 20 21l174 62c7.33301 2 12.666 3 15.999 3c10 0 15 -5 15 -15c0 -9.33301 -6 -16.333 -18 -21z" />
    <glyph glyph-name="unife72" unicode="&#xfe72;" arabic-form="isolated" 
d="M335 762c-10.667 0 -16 -3.66699 -16 -11c0 -17.333 12 -26 36 -26c-3.33301 24.667 -10 37 -20 37zM391 724l21 0.00195312c5.33301 0 9.66602 -2 12.999 -6s5 -8 5 -12c0 -4.66699 -1.5 -9 -4.5 -13s-6.83301 -6 -11.5 -6h-23c-2 -32 -16.333 -66.667 -43 -104h-41
c-1.33301 2 -5.83301 7.83301 -13.5 17.5l-15 19c-2.33301 3 -6.5 8.66699 -12.5 17s-10.333 15 -13 20l-10 19c-4 7.66699 -7.33301 15 -10 22s-4.66699 14.5 -6 22.5l-35 -33c-2 -2 -4.33301 -3 -7 -3c-12 0 -18 6 -18 18c0 2.66699 0.833008 5.5 2.5 8.5s4 6 7 9
s4.83301 5.16699 5.5 6.5c30.667 37.333 51 56 61 56c2.66699 0 5.83398 -2 9.50098 -6s5.5 -8.33301 5.5 -13c0 -22.667 7.83301 -48.5 23.5 -77.5s31.167 -51.833 46.5 -68.5c16 23.333 25 46.666 27 69.999c-18 0 -34.5 5.16699 -49.5 15.5s-22.5 25.166 -22.5 44.499
c0 12.667 5.5 24.667 16.5 36s22.833 17 35.5 17c15.333 0 28.5 -7.5 39.5 -22.5s16.5 -32.833 16.5 -53.5z" />
    <glyph glyph-name="uniFE74" unicode="&#xfe74;" arabic-form="isolated" 
d="M219 -196c-6 -2.66699 -10.999 -4 -14.999 -4c-4.66699 0 -8.66699 2 -12 6s-5 8.33301 -5 13c0 8.66699 6.66699 15.667 20 21l174 62c7.33301 2 12.666 3 15.999 3c10 0 15 -5 15 -15c0 -9.33301 -6 -16.333 -18 -21zM219.001 -107c-6 -2.66699 -10.999 -4 -14.999 -4
c-4.66699 0 -8.66699 2 -12 6s-5 8.33301 -5 13c0 8.66699 6.66699 15.667 20 21l174 62c7.33301 2 12.666 3 15.999 3c10 0 15 -5 15 -15c0 -9.33301 -6 -16.333 -18 -21z" />
    <glyph glyph-name="uniFE76" unicode="&#xfe76;" arabic-form="isolated" 
d="M219 699c-6 -2.66699 -10.999 -4 -14.999 -4c-4.66699 0 -8.66699 2 -12 6s-5 8.33301 -5 13c0 8.66699 6.66699 15.667 20 21l174 62c7.33301 2 12.666 3 15.999 3c10 0 15 -5 15 -15c0 -9.33301 -6 -16.333 -18 -21z" />
    <glyph glyph-name="unife77" unicode="&#xfe77;" arabic-form="medial" 
d="M219 699c-6 -2.66699 -10.999 -4 -14.999 -4c-4.66699 0 -8.66699 2 -12 6s-5 8.33301 -5 13c0 8.66699 6.66699 15.667 20 21l174 62c7.33301 2 12.666 3 15.999 3c10 0 15 -5 15 -15c0 -9.33301 -6 -16.333 -18 -21zM600.001 40v-40h-600v40h600z" />
    <glyph glyph-name="uniFE78" unicode="&#xfe78;" arabic-form="isolated" 
d="M301 697c18.667 20.667 27.999 35 27.999 43c0 7.33301 -2.83301 13.833 -8.5 19.5s-12.5 8.5 -20.5 8.5c-7.33301 0 -13.666 -3 -18.999 -9s-8 -12.333 -8 -19c0 -8 9.33301 -22.333 28 -43zM344.999 614l-43.001 41.001l-60 -67l-21 17l60 69
c-0.666992 1.33301 -4.16699 5.16602 -10.5 11.499s-10.5 10.833 -12.5 13.5s-4.83301 6.66699 -8.5 12s-6.16699 10.333 -7.5 15s-2 9.66699 -2 15c0 14 6.33301 27.333 19 40s26.334 19 41.001 19c16 0 30.333 -6.33301 43 -19s19 -26 19 -40
c0 -6 -1.5 -12.167 -4.5 -18.5s-6 -11.333 -9 -15l-13.5 -16c-6 -7 -10 -11.833 -12 -14.5l42 -42z" />
    <glyph glyph-name="unife79" unicode="&#xfe79;" arabic-form="medial" 
d="M301 697c18.667 20.667 27.999 35 27.999 43c0 7.33301 -2.83301 13.833 -8.5 19.5s-12.5 8.5 -20.5 8.5c-7.33301 0 -13.666 -3 -18.999 -9s-8 -12.333 -8 -19c0 -8 9.33301 -22.333 28 -43zM344.999 614l-43.001 41.001l-60 -67l-21 17l60 69
c-0.666992 1.33301 -4.16699 5.16602 -10.5 11.499s-10.5 10.833 -12.5 13.5s-4.83301 6.66699 -8.5 12s-6.16699 10.333 -7.5 15s-2 9.66699 -2 15c0 14 6.33301 27.333 19 40s26.334 19 41.001 19c16 0 30.333 -6.33301 43 -19s19 -26 19 -40
c0 -6 -1.5 -12.167 -4.5 -18.5s-6 -11.333 -9 -15l-13.5 -16c-6 -7 -10 -11.833 -12 -14.5l42 -42zM599.998 40.001v-40h-600v40h600z" />
    <glyph glyph-name="uniFE7A" unicode="&#xfe7a;" arabic-form="isolated" 
d="M219 -196c-6 -2.66699 -10.999 -4 -14.999 -4c-4.66699 0 -8.66699 2 -12 6s-5 8.33301 -5 13c0 8.66699 6.66699 15.667 20 21l174 62c7.33301 2 12.666 3 15.999 3c10 0 15 -5 15 -15c0 -9.33301 -6 -16.333 -18 -21z" />
    <glyph glyph-name="unife7b" unicode="&#xfe7b;" arabic-form="medial" 
d="M219 -196c-6 -2.66699 -10.999 -4 -14.999 -4c-4.66699 0 -8.66699 2 -12 6s-5 8.33301 -5 13c0 8.66699 6.66699 15.667 20 21l174 62c7.33301 2 12.666 3 15.999 3c10 0 15 -5 15 -15c0 -9.33301 -6 -16.333 -18 -21zM600.001 40v-40h-600v40h600z" />
    <glyph glyph-name="uniFE7C" unicode="&#xfe7c;" arabic-form="isolated" 
d="M340 633c13.333 0 19.998 10 19.998 30v27c0 5.33301 1.66699 9.83301 5 13.5s7.33301 5.5 12 5.5c4 0 7.83301 -1.83301 11.5 -5.5s5.5 -8.16699 5.5 -13.5v-28c0 -18 -5.16699 -32.667 -15.5 -44s-23.166 -17 -38.499 -17c-20 0 -33 8.33301 -39 25h-2
c-8.66699 -13.333 -23 -20 -43 -20c-12.667 0 -24.167 5.5 -34.5 16.5s-15.5 24.167 -15.5 39.5v7c0 4.66699 1.66699 8.66699 5 12s7.33301 5 12 5s8.66699 -1.66699 12 -5s5 -7 5 -11v-7c0 -6.66699 2.33301 -12.167 7 -16.5s9.33398 -6.5 14.001 -6.5
c6.66699 0 12.167 2.83301 16.5 8.5s6.5 12.5 6.5 20.5v9c0 4.66699 1.66699 8.5 5 11.5s7 4.5 11 4.5s7.83301 -1.5 11.5 -4.5s5.5 -6.83301 5.5 -11.5v-15c0 -20 7.66699 -30 23 -30z" />
    <glyph glyph-name="unife7d" unicode="&#xfe7d;" arabic-form="medial" 
d="M340 633c13.333 0 19.998 10 19.998 30v27c0 5.33301 1.66699 9.83301 5 13.5s7.33301 5.5 12 5.5c4 0 7.83301 -1.83301 11.5 -5.5s5.5 -8.16699 5.5 -13.5v-28c0 -18 -5.16699 -32.667 -15.5 -44s-23.166 -17 -38.499 -17c-20 0 -33 8.33301 -39 25h-2
c-8.66699 -13.333 -23 -20 -43 -20c-12.667 0 -24.167 5.5 -34.5 16.5s-15.5 24.167 -15.5 39.5v7c0 4.66699 1.66699 8.66699 5 12s7.33301 5 12 5s8.66699 -1.66699 12 -5s5 -7 5 -11v-7c0 -6.66699 2.33301 -12.167 7 -16.5s9.33398 -6.5 14.001 -6.5
c6.66699 0 12.167 2.83301 16.5 8.5s6.5 12.5 6.5 20.5v9c0 4.66699 1.66699 8.5 5 11.5s7 4.5 11 4.5s7.83301 -1.5 11.5 -4.5s5.5 -6.83301 5.5 -11.5v-15c0 -20 7.66699 -30 23 -30zM599.998 40v-40h-600v40h600z" />
    <glyph glyph-name="unife7e" unicode="&#xfe7e;" arabic-form="isolated" 
d="M265 718c0 -9.33301 3.16797 -16.832 9.50098 -22.499s14.833 -8.5 25.5 -8.5c10 0 18.167 3.5 24.5 10.5s9.5 15.833 9.5 26.5c0 8 -4 16.667 -12 26c-2.66699 2.66699 -4 6 -4 10c0 10 4.66699 15 14 15c5.33301 0 10.666 -3.33301 15.999 -10
c9.33301 -12 14 -26 14 -42c0 -20 -6 -36 -18 -48s-26.667 -18 -44 -18s-32.333 6.16699 -45 18.5s-19 26.5 -19 42.5c0 13.333 5.66699 25.666 17 36.999c4.66699 3.33301 9.66699 5 15 5c10 0 15 -4.33301 15 -13c0 -3.33301 -2 -7 -6 -11
c-8 -6.66699 -12 -12.667 -12 -18z" />
    <glyph glyph-name="unife7f" unicode="&#xfe7f;" arabic-form="medial" 
d="M600 40v-40h-600v40h600zM265 718c0 -9.33301 3.16797 -16.832 9.50098 -22.499s14.833 -8.5 25.5 -8.5c10 0 18.167 3.5 24.5 10.5s9.5 15.833 9.5 26.5c0 8 -4 16.667 -12 26c-2.66699 2.66699 -4 6 -4 10c0 10 4.66699 15 14 15c5.33301 0 10.666 -3.33301 15.999 -10
c9.33301 -12 14 -26 14 -42c0 -20 -6 -36 -18 -48s-26.667 -18 -44 -18s-32.333 6.16699 -45 18.5s-19 26.5 -19 42.5c0 13.333 5.66699 25.666 17 36.999c4.66699 3.33301 9.66699 5 15 5c10 0 15 -4.33301 15 -13c0 -3.33301 -2 -7 -6 -11
c-8 -6.66699 -12 -12.667 -12 -18z" />
    <glyph glyph-name="uniFE80" unicode="&#x621;" arabic-form="isolated" 
d="M327 126c-16 0 -28.499 -4.33301 -37.499 -13s-13.5 -20.334 -13.5 -35.001c0 -14 4.66699 -25.5 14 -34.5s21.666 -13.5 36.999 -13.5c13.333 0 24.666 3.66699 33.999 11c2.66699 2.66699 7 4 13 4c5.33301 0 10.166 -1.66699 14.499 -5s6.5 -8 6.5 -14
c0 -8 -4.66699 -14.667 -14 -20l-143 -83c-5.33301 -2.66699 -9.66602 -4 -12.999 -4c-4.66699 0 -9.16699 1.83301 -13.5 5.5s-6.5 8.5 -6.5 14.5c0 8 4.33301 14.333 13 19l69 40c-34.667 16.667 -52 43.334 -52 80.001c0 24.667 9 45.667 27 63s39.667 26 65 26
c20.667 0 39.667 -6.33301 57 -19c6 -4.66699 9 -10.667 9 -18c0 -6 -1.83301 -10.833 -5.5 -14.5s-8.16699 -5.5 -13.5 -5.5s-10.666 1.66699 -15.999 5c-10.667 7.33301 -21 11 -31 11z" />
    <glyph glyph-name="uniFE81" unicode="&#x622;" arabic-form="isolated" 
d="M356.5 677.75c9 0 19.5 5.75 31.5 17.25s19.75 17.25 23.25 17.25c4 0 7.5 -1.5 10.5 -4.5s4.5 -6.5 4.5 -10.5c0 -7.5 -7.875 -17.75 -23.625 -30.75s-30.625 -19.5 -44.625 -19.5c-13 0 -30.25 6 -51.75 18s-35.25 18 -41.25 18c-12.5 0 -23.5 -5.625 -33 -16.875
s-17.25 -16.875 -23.25 -16.875c-4 0 -7.5 1.375 -10.5 4.125s-4.5 6.125 -4.5 10.125c0 9 8.125 19.625 24.375 31.875s31.625 18.375 46.125 18.375c11.5 0 28.125 -6 49.875 -18s35.875 -18 42.375 -18zM320 563v-563c0 -13.333 -6.66699 -20 -20 -20s-20 6.66699 -20 20
v563c0 13.333 6.66699 20 20 20s20 -6.66699 20 -20z" />
    <glyph glyph-name="alefmaddaabovefinalarabic" unicode="&#x622;" arabic-form="final" 
d="M356.5 677.75c9 0 19.5 5.75 31.5 17.25s19.75 17.25 23.25 17.25c4 0 7.5 -1.5 10.5 -4.5s4.5 -6.5 4.5 -10.5c0 -7.5 -7.875 -17.75 -23.625 -30.75s-30.625 -19.5 -44.625 -19.5c-13 0 -30.25 6 -51.75 18s-35.25 18 -41.25 18c-12.5 0 -23.5 -5.625 -33 -16.875
s-17.25 -16.875 -23.25 -16.875c-4 0 -7.5 1.375 -10.5 4.125s-4.5 6.125 -4.5 10.125c0 9 8.125 19.625 24.375 31.875s31.625 18.375 46.125 18.375c11.5 0 28.125 -6 49.875 -18s35.875 -18 42.375 -18zM600 40l0.000976562 -40h-173
c-40.667 0 -75.334 14.667 -104.001 44s-43 65 -43 107v410c0 13.333 6.66699 20 20 20s20 -6.66699 20 -20v-404c0 -34 10 -62 30 -84s45.333 -33 76 -33h174z" />
    <glyph glyph-name="uniFE83" unicode="&#x623;" arabic-form="isolated" 
d="M299.53 748.755c-11.5244 0 -20.5312 -3.12109 -27.0137 -9.36328c-6.48242 -6.24316 -9.72363 -14.6465 -9.72363 -25.21c0 -10.084 3.36133 -18.3672 10.084 -24.8496s15.6064 -9.72363 26.6504 -9.72363c9.60352 0 17.7666 2.64062 24.4893 7.92285
c1.9209 1.9209 5.04199 2.88086 9.36328 2.88086c3.8418 0 7.32324 -1.2002 10.4443 -3.60156c3.12109 -2.40039 4.68164 -5.76172 4.68164 -10.083c0 -5.7627 -3.36133 -10.5645 -10.084 -14.4062l-102.999 -59.7822c-3.8418 -1.9209 -6.96289 -2.88184 -9.36328 -2.88184
c-3.36133 0 -6.60254 1.32031 -9.72461 3.96191c-3.12109 2.6416 -4.68164 6.12305 -4.68164 10.4443c0 5.76172 3.12109 10.3232 9.36426 13.6846l49.6982 28.8115c-24.9697 12.0049 -37.4541 31.2119 -37.4541 57.6221c0 17.7666 6.48242 32.8926 19.4473 45.377
c12.9658 12.4854 28.5723 18.7275 46.8193 18.7275c14.8857 0 28.5713 -4.56152 41.0566 -13.6855c4.32129 -3.36133 6.48242 -7.68262 6.48242 -12.9648c0 -4.32129 -1.32031 -7.80273 -3.96191 -10.4443c-2.64062 -2.64062 -5.88184 -3.96094 -9.72363 -3.96094
c-3.84082 0 -7.68262 1.2002 -11.5244 3.60156c-7.68262 5.28223 -15.125 7.92285 -22.3271 7.92285zM319.997 563v-563c0 -13.333 -6.66699 -20 -20 -20s-20 6.66699 -20 20v563c0 13.333 6.66699 20 20 20s20 -6.66699 20 -20z" />
    <glyph glyph-name="alefhamzaabovefinalarabic" unicode="&#x623;" arabic-form="final" 
d="M299.53 748.755c-11.5244 0 -20.5312 -3.12109 -27.0137 -9.36328c-6.48242 -6.24316 -9.72363 -14.6465 -9.72363 -25.21c0 -10.084 3.36133 -18.3672 10.084 -24.8496s15.6064 -9.72363 26.6504 -9.72363c9.60352 0 17.7666 2.64062 24.4893 7.92285
c1.9209 1.9209 5.04199 2.88086 9.36328 2.88086c3.8418 0 7.32324 -1.2002 10.4443 -3.60156c3.12109 -2.40039 4.68164 -5.76172 4.68164 -10.083c0 -5.7627 -3.36133 -10.5645 -10.084 -14.4062l-102.999 -59.7822c-3.8418 -1.9209 -6.96289 -2.88184 -9.36328 -2.88184
c-3.36133 0 -6.60254 1.32031 -9.72461 3.96191c-3.12109 2.6416 -4.68164 6.12305 -4.68164 10.4443c0 5.76172 3.12109 10.3232 9.36426 13.6846l49.6982 28.8115c-24.9697 12.0049 -37.4541 31.2119 -37.4541 57.6221c0 17.7666 6.48242 32.8926 19.4473 45.377
c12.9658 12.4854 28.5723 18.7275 46.8193 18.7275c14.8857 0 28.5713 -4.56152 41.0566 -13.6855c4.32129 -3.36133 6.48242 -7.68262 6.48242 -12.9648c0 -4.32129 -1.32031 -7.80273 -3.96191 -10.4443c-2.64062 -2.64062 -5.88184 -3.96094 -9.72363 -3.96094
c-3.84082 0 -7.68262 1.2002 -11.5244 3.60156c-7.68262 5.28223 -15.125 7.92285 -22.3271 7.92285zM599.997 40l0.000976562 -40h-173c-40.667 0 -75.334 14.667 -104.001 44s-43 65 -43 107v410c0 13.333 6.66699 20 20 20s20 -6.66699 20 -20v-404c0 -34 10 -62 30 -84
s45.333 -33 76 -33h174z" />
    <glyph glyph-name="uniFE85" unicode="&#x624;" arabic-form="isolated" 
d="M329.53 368.755c-11.5244 0 -20.5312 -3.12109 -27.0137 -9.36328c-6.48242 -6.24316 -9.72363 -14.6465 -9.72363 -25.21c0 -10.084 3.36133 -18.3672 10.084 -24.8496s15.6064 -9.72363 26.6504 -9.72363c9.60352 0 17.7666 2.64062 24.4893 7.92285
c1.9209 1.9209 5.04199 2.88086 9.36328 2.88086c3.8418 0 7.32324 -1.2002 10.4443 -3.60156c3.12109 -2.40039 4.68164 -5.76172 4.68164 -10.083c0 -5.7627 -3.36133 -10.5645 -10.084 -14.4062l-102.999 -59.7822c-3.8418 -1.9209 -6.96289 -2.88184 -9.36328 -2.88184
c-3.36133 0 -6.60254 1.32031 -9.72461 3.96191c-3.12109 2.6416 -4.68164 6.12305 -4.68164 10.4443c0 5.76172 3.12109 10.3232 9.36426 13.6846l49.6982 28.8115c-24.9697 12.0049 -37.4541 31.2119 -37.4541 57.6221c0 17.7666 6.48242 32.8926 19.4473 45.377
c12.9658 12.4854 28.5723 18.7275 46.8193 18.7275c14.8857 0 28.5713 -4.56152 41.0566 -13.6855c4.32129 -3.36133 6.48242 -7.68262 6.48242 -12.9648c0 -4.32129 -1.32031 -7.80273 -3.96191 -10.4443c-2.64062 -2.64062 -5.88184 -3.96094 -9.72363 -3.96094
c-3.84082 0 -7.68262 1.2002 -11.5244 3.60156c-7.68262 5.28223 -15.125 7.92285 -22.3271 7.92285zM310.997 129c-16 0 -28.667 -4.66699 -38 -14s-14 -21.333 -14 -36c0 -14 4.83301 -25.667 14.5 -35s22.167 -14 37.5 -14c16 0 28.667 4.5 38 13.5s14 20.5 14 34.5
s-5 26 -15 36s-22.333 15 -37 15zM118.997 -146c2 0 10.668 -2.50098 26.001 -7.50098s30 -7.5 44 -7.5c50 0 91.5 14.333 124.5 43s49.5 67.667 49.5 117v6c-16 -10.667 -33.333 -16 -52 -16c-25.333 0 -47.166 9 -65.499 27s-27.5 39.333 -27.5 64
s9.16699 45.834 27.5 63.501s40.166 26.5 65.499 26.5c26 0 48 -8.83301 66 -26.5s27 -39.5 27 -65.5v-85c0 -58 -20.833 -104.667 -62.5 -140s-92.834 -53 -153.501 -53c-16.667 0 -35.334 2.66699 -56.001 8s-31 14 -31 26c0 5.33301 1.83301 10 5.5 14
s7.83398 6 12.501 6z" />
    <glyph glyph-name="wawhamzaabovefinalarabic" unicode="&#x624;" arabic-form="final" 
d="M329.53 368.755c-11.5244 0 -20.5312 -3.12109 -27.0137 -9.36328c-6.48242 -6.24316 -9.72363 -14.6465 -9.72363 -25.21c0 -10.084 3.36133 -18.3672 10.084 -24.8496s15.6064 -9.72363 26.6504 -9.72363c9.60352 0 17.7666 2.64062 24.4893 7.92285
c1.9209 1.9209 5.04199 2.88086 9.36328 2.88086c3.8418 0 7.32324 -1.2002 10.4443 -3.60156c3.12109 -2.40039 4.68164 -5.76172 4.68164 -10.083c0 -5.7627 -3.36133 -10.5645 -10.084 -14.4062l-102.999 -59.7822c-3.8418 -1.9209 -6.96289 -2.88184 -9.36328 -2.88184
c-3.36133 0 -6.60254 1.32031 -9.72461 3.96191c-3.12109 2.6416 -4.68164 6.12305 -4.68164 10.4443c0 5.76172 3.12109 10.3232 9.36426 13.6846l49.6982 28.8115c-24.9697 12.0049 -37.4541 31.2119 -37.4541 57.6221c0 17.7666 6.48242 32.8926 19.4473 45.377
c12.9658 12.4854 28.5723 18.7275 46.8193 18.7275c14.8857 0 28.5713 -4.56152 41.0566 -13.6855c4.32129 -3.36133 6.48242 -7.68262 6.48242 -12.9648c0 -4.32129 -1.32031 -7.80273 -3.96191 -10.4443c-2.64062 -2.64062 -5.88184 -3.96094 -9.72363 -3.96094
c-3.84082 0 -7.68262 1.2002 -11.5244 3.60156c-7.68262 5.28223 -15.125 7.92285 -22.3271 7.92285zM599.997 40l0.000976562 -40.001h-196c0 -60.667 -20.333 -109.167 -61 -145.5s-92.334 -54.5 -155.001 -54.5c-16.667 0 -35.334 2.66699 -56.001 8s-31 14 -31 26
c0 5.33301 1.83301 10 5.5 14s7.83398 6 12.501 6c2 0 10.667 -2.5 26 -7.5s30 -7.5 44 -7.5c50 0 91.5 14.333 124.5 43s49.5 67.667 49.5 117v6c-16 -10.667 -33.333 -16 -52 -16c-25.333 0 -47.166 9 -65.499 27s-27.5 39.333 -27.5 64s9.16699 45.834 27.5 63.501
s40.166 26.5 65.499 26.5c26 0 48 -8.83301 66 -26.5s27 -39.5 27 -65.5v-38h196zM310.998 128.999c-16 0 -28.667 -4.66699 -38 -14s-14 -21.333 -14 -36c0 -14 4.83301 -25.667 14.5 -35s22.167 -14 37.5 -14c16 0 28.667 4.5 38 13.5s14 20.5 14 34.5s-5 26 -15 36
s-22.333 15 -37 15z" />
    <glyph glyph-name="uniFE87" unicode="&#x625;" arabic-form="isolated" 
d="M349.53 -50.2451c-11.5244 0 -20.5312 -3.12109 -27.0137 -9.36328c-6.48242 -6.24316 -9.72363 -14.6465 -9.72363 -25.21c0 -10.084 3.36133 -18.3672 10.084 -24.8496s15.6064 -9.72363 26.6504 -9.72363c9.60352 0 17.7666 2.64062 24.4893 7.92285
c1.9209 1.9209 5.04199 2.88086 9.36328 2.88086c3.8418 0 7.32324 -1.2002 10.4443 -3.60156c3.12109 -2.40039 4.68164 -5.76172 4.68164 -10.083c0 -5.7627 -3.36133 -10.5645 -10.084 -14.4062l-102.999 -59.7822c-3.8418 -1.9209 -6.96289 -2.88184 -9.36328 -2.88184
c-3.36133 0 -6.60254 1.32031 -9.72461 3.96191c-3.12109 2.6416 -4.68164 6.12305 -4.68164 10.4443c0 5.76172 3.12109 10.3232 9.36426 13.6846l49.6982 28.8115c-24.9697 12.0049 -37.4541 31.2119 -37.4541 57.6221c0 17.7666 6.48242 32.8926 19.4473 45.377
c12.9658 12.4854 28.5723 18.7275 46.8193 18.7275c14.8857 0 28.5713 -4.56152 41.0566 -13.6855c4.32129 -3.36133 6.48242 -7.68262 6.48242 -12.9648c0 -4.32129 -1.32031 -7.80273 -3.96191 -10.4443c-2.64062 -2.64062 -5.88184 -3.96094 -9.72363 -3.96094
c-3.84082 0 -7.68262 1.2002 -11.5244 3.60156c-7.68262 5.28223 -15.125 7.92285 -22.3271 7.92285zM319.997 563v-563c0 -13.333 -6.66699 -20 -20 -20s-20 6.66699 -20 20v563c0 13.333 6.66699 20 20 20s20 -6.66699 20 -20z" />
    <glyph glyph-name="alefhamzabelowfinalarabic" unicode="&#x625;" arabic-form="final" 
d="M329.53 -50.2451c-11.5244 0 -20.5312 -3.12109 -27.0137 -9.36328c-6.48242 -6.24316 -9.72363 -14.6465 -9.72363 -25.21c0 -10.084 3.36133 -18.3672 10.084 -24.8496s15.6064 -9.72363 26.6504 -9.72363c9.60352 0 17.7666 2.64062 24.4893 7.92285
c1.9209 1.9209 5.04199 2.88086 9.36328 2.88086c3.8418 0 7.32324 -1.2002 10.4443 -3.60156c3.12109 -2.40039 4.68164 -5.76172 4.68164 -10.083c0 -5.7627 -3.36133 -10.5645 -10.084 -14.4062l-102.999 -59.7822c-3.8418 -1.9209 -6.96289 -2.88184 -9.36328 -2.88184
c-3.36133 0 -6.60254 1.32031 -9.72461 3.96191c-3.12109 2.6416 -4.68164 6.12305 -4.68164 10.4443c0 5.76172 3.12109 10.3232 9.36426 13.6846l49.6982 28.8115c-24.9697 12.0049 -37.4541 31.2119 -37.4541 57.6221c0 17.7666 6.48242 32.8926 19.4473 45.377
c12.9658 12.4854 28.5723 18.7275 46.8193 18.7275c14.8857 0 28.5713 -4.56152 41.0566 -13.6855c4.32129 -3.36133 6.48242 -7.68262 6.48242 -12.9648c0 -4.32129 -1.32031 -7.80273 -3.96191 -10.4443c-2.64062 -2.64062 -5.88184 -3.96094 -9.72363 -3.96094
c-3.84082 0 -7.68262 1.2002 -11.5244 3.60156c-7.68262 5.28223 -15.125 7.92285 -22.3271 7.92285zM599.997 40l0.000976562 -40h-173c-40.667 0 -75.334 14.667 -104.001 44s-43 65 -43 107v410c0 13.333 6.66699 20 20 20s20 -6.66699 20 -20v-404c0 -34 10 -62 30 -84
s45.333 -33 76 -33h174z" />
    <glyph glyph-name="uniFE89" unicode="&#x626;" arabic-form="isolated" 
d="M319.53 368.755c-11.5244 0 -20.5312 -3.12109 -27.0137 -9.36328c-6.48242 -6.24316 -9.72363 -14.6465 -9.72363 -25.21c0 -10.084 3.36133 -18.3672 10.084 -24.8496s15.6064 -9.72363 26.6504 -9.72363c9.60352 0 17.7666 2.64062 24.4893 7.92285
c1.9209 1.9209 5.04199 2.88086 9.36328 2.88086c3.8418 0 7.32324 -1.2002 10.4443 -3.60156c3.12109 -2.40039 4.68164 -5.76172 4.68164 -10.083c0 -5.7627 -3.36133 -10.5645 -10.084 -14.4062l-102.999 -59.7822c-3.8418 -1.9209 -6.96289 -2.88184 -9.36328 -2.88184
c-3.36133 0 -6.60254 1.32031 -9.72461 3.96191c-3.12109 2.6416 -4.68164 6.12305 -4.68164 10.4443c0 5.76172 3.12109 10.3232 9.36426 13.6846l49.6982 28.8115c-24.9697 12.0049 -37.4541 31.2119 -37.4541 57.6221c0 17.7666 6.48242 32.8926 19.4473 45.377
c12.9658 12.4854 28.5723 18.7275 46.8193 18.7275c14.8857 0 28.5713 -4.56152 41.0566 -13.6855c4.32129 -3.36133 6.48242 -7.68262 6.48242 -12.9648c0 -4.32129 -1.32031 -7.80273 -3.96191 -10.4443c-2.64062 -2.64062 -5.88184 -3.96094 -9.72363 -3.96094
c-3.84082 0 -7.68262 1.2002 -11.5244 3.60156c-7.68262 5.28223 -15.125 7.92285 -22.3271 7.92285zM473.997 81l-0.000976562 -40.999c0 -47.333 -22.167 -89.833 -66.5 -127.5s-90.833 -56.5 -139.5 -56.5c-47.333 0 -87.166 11.667 -119.499 35
s-48.5 59.666 -48.5 108.999v59l28 77c4 9.33301 10.667 14 20 14c5.33301 0 10.166 -1.66699 14.499 -5s6.5 -8 6.5 -14c0 -2 -0.666992 -5 -2 -9l-27 -77v-45c0 -33.333 13.667 -58.833 41 -76.5s57.333 -26.5 90 -26.5c36.667 0 72.834 15.333 108.501 46
s53.5 63 53.5 97c-26 0 -48 8.83301 -66 26.5s-27 38.5 -27 62.5c0 26 9 47.833 27 65.5s40 26.5 66 26.5h55c18 0 27 -6.66699 27 -20c0 -14 -9 -21 -27 -21h-55c-15.333 0 -27.833 -4.5 -37.5 -13.5s-14.5 -21.167 -14.5 -36.5s4.66699 -27.333 14 -36s22 -13 38 -13h41z
" />
    <glyph glyph-name="uniFE8A" unicode="&#x626;" arabic-form="final" 
d="M319.53 368.755c-11.5244 0 -20.5312 -3.12109 -27.0137 -9.36328c-6.48242 -6.24316 -9.72363 -14.6465 -9.72363 -25.21c0 -10.084 3.36133 -18.3672 10.084 -24.8496s15.6064 -9.72363 26.6504 -9.72363c9.60352 0 17.7666 2.64062 24.4893 7.92285
c1.9209 1.9209 5.04199 2.88086 9.36328 2.88086c3.8418 0 7.32324 -1.2002 10.4443 -3.60156c3.12109 -2.40039 4.68164 -5.76172 4.68164 -10.083c0 -5.7627 -3.36133 -10.5645 -10.084 -14.4062l-102.999 -59.7822c-3.8418 -1.9209 -6.96289 -2.88184 -9.36328 -2.88184
c-3.36133 0 -6.60254 1.32031 -9.72461 3.96191c-3.12109 2.6416 -4.68164 6.12305 -4.68164 10.4443c0 5.76172 3.12109 10.3232 9.36426 13.6846l49.6982 28.8115c-24.9697 12.0049 -37.4541 31.2119 -37.4541 57.6221c0 17.7666 6.48242 32.8926 19.4473 45.377
c12.9658 12.4854 28.5723 18.7275 46.8193 18.7275c14.8857 0 28.5713 -4.56152 41.0566 -13.6855c4.32129 -3.36133 6.48242 -7.68262 6.48242 -12.9648c0 -4.32129 -1.32031 -7.80273 -3.96191 -10.4443c-2.64062 -2.64062 -5.88184 -3.96094 -9.72363 -3.96094
c-3.84082 0 -7.68262 1.2002 -11.5244 3.60156c-7.68262 5.28223 -15.125 7.92285 -22.3271 7.92285zM599.997 40v-40.001h-166c0 -35.333 -22.5 -68.166 -67.5 -98.499s-91.167 -45.5 -138.5 -45.5s-87.166 11.667 -119.499 35s-48.5 59.666 -48.5 108.999v59l28 77
c4 9.33301 10.667 14 20 14c5.33301 0 10.166 -1.66699 14.499 -5s6.5 -8 6.5 -14c0 -2 -0.666992 -5 -2 -9l-27 -77v-45c0 -33.333 13.667 -58.833 41 -76.5s57.333 -26.5 90 -26.5c34.667 0 70 11.5 106 34.5s54.667 45.167 56 66.5l-114 139
c-5.33301 6.66699 -8 13.334 -8 20.001c0 16 7.33301 24 22 24h155c18 0 27 -6.66699 27 -20c0 -14 -9 -21 -27 -21h-111l82 -100h181z" />
    <glyph glyph-name="yehhamzaaboveinitialarabic" unicode="&#x626;" arabic-form="initial" 
d="M299.53 388.755c-11.5244 0 -20.5312 -3.12109 -27.0137 -9.36328c-6.48242 -6.24316 -9.72363 -14.6465 -9.72363 -25.21c0 -10.084 3.36133 -18.3672 10.084 -24.8496s15.6064 -9.72363 26.6504 -9.72363c9.60352 0 17.7666 2.64062 24.4893 7.92285
c1.9209 1.9209 5.04199 2.88086 9.36328 2.88086c3.8418 0 7.32324 -1.2002 10.4443 -3.60156c3.12109 -2.40039 4.68164 -5.76172 4.68164 -10.083c0 -5.7627 -3.36133 -10.5645 -10.084 -14.4062l-102.999 -59.7822c-3.8418 -1.9209 -6.96289 -2.88184 -9.36328 -2.88184
c-3.36133 0 -6.60254 1.32031 -9.72461 3.96191c-3.12109 2.6416 -4.68164 6.12305 -4.68164 10.4443c0 5.76172 3.12109 10.3232 9.36426 13.6846l49.6982 28.8115c-24.9697 12.0049 -37.4541 31.2119 -37.4541 57.6221c0 17.7666 6.48242 32.8926 19.4473 45.377
c12.9658 12.4854 28.5723 18.7275 46.8193 18.7275c14.8857 0 28.5713 -4.56152 41.0566 -13.6855c4.32129 -3.36133 6.48242 -7.68262 6.48242 -12.9648c0 -4.32129 -1.32031 -7.80273 -3.96191 -10.4443c-2.64062 -2.64062 -5.88184 -3.96094 -9.72363 -3.96094
c-3.84082 0 -7.68262 1.2002 -11.5244 3.60156c-7.68262 5.28223 -15.125 7.92285 -22.3271 7.92285zM320.997 0h-321v40h280v150c0 18 6.66699 27 20 27c14 0 21 -9 21 -27v-190z" />
    <glyph glyph-name="yehhamzaabovemedialarabic" unicode="&#x626;" arabic-form="medial" 
d="M299.53 388.755c-11.5244 0 -20.5312 -3.12109 -27.0137 -9.36328c-6.48242 -6.24316 -9.72363 -14.6465 -9.72363 -25.21c0 -10.084 3.36133 -18.3672 10.084 -24.8496s15.6064 -9.72363 26.6504 -9.72363c9.60352 0 17.7666 2.64062 24.4893 7.92285
c1.9209 1.9209 5.04199 2.88086 9.36328 2.88086c3.8418 0 7.32324 -1.2002 10.4443 -3.60156c3.12109 -2.40039 4.68164 -5.76172 4.68164 -10.083c0 -5.7627 -3.36133 -10.5645 -10.084 -14.4062l-102.999 -59.7822c-3.8418 -1.9209 -6.96289 -2.88184 -9.36328 -2.88184
c-3.36133 0 -6.60254 1.32031 -9.72461 3.96191c-3.12109 2.6416 -4.68164 6.12305 -4.68164 10.4443c0 5.76172 3.12109 10.3232 9.36426 13.6846l49.6982 28.8115c-24.9697 12.0049 -37.4541 31.2119 -37.4541 57.6221c0 17.7666 6.48242 32.8926 19.4473 45.377
c12.9658 12.4854 28.5723 18.7275 46.8193 18.7275c14.8857 0 28.5713 -4.56152 41.0566 -13.6855c4.32129 -3.36133 6.48242 -7.68262 6.48242 -12.9648c0 -4.32129 -1.32031 -7.80273 -3.96191 -10.4443c-2.64062 -2.64062 -5.88184 -3.96094 -9.72363 -3.96094
c-3.84082 0 -7.68262 1.2002 -11.5244 3.60156c-7.68262 5.28223 -15.125 7.92285 -22.3271 7.92285zM320.997 40h279v-40h-600v40h280v150c0 18 6.66699 27 20 27c14 0 21 -9 21 -27v-150z" />
    <glyph glyph-name="uniFE8D" unicode="&#x627;" arabic-form="isolated" 
d="M320 563v-563c0 -13.333 -6.66699 -20 -20 -20s-20 6.66699 -20 20v563c0 13.333 6.66699 20 20 20s20 -6.66699 20 -20z" />
    <glyph glyph-name="aleffinalarabic" unicode="&#x627;" arabic-form="final" 
d="M600 40l0.000976562 -40h-173c-40.667 0 -75.334 14.667 -104.001 44s-43 65 -43 107v410c0 13.333 6.66699 20 20 20s20 -6.66699 20 -20v-404c0 -34 10 -62 30 -84s45.333 -33 76 -33h174z" />
    <glyph glyph-name="uniFE8F" unicode="&#x628;" arabic-form="isolated" 
d="M560 0h-520v59l28 80c2.66699 9.33301 9.33398 14 20.001 14c5.33301 0 10.166 -1.66699 14.499 -5s6.5 -8 6.5 -14c0 -2 -0.666992 -5 -2 -9l-28 -80v-5h440v150c0 18 6.66699 27 20 27c14 0 21 -9 21 -27v-190zM300 -58c6 0 15.833 -7.16797 29.5 -21.501
s20.5 -24.166 20.5 -29.499s-6.83301 -14.833 -20.5 -28.5s-23.5 -20.5 -29.5 -20.5s-15.833 6.83301 -29.5 20.5s-20.5 23.5 -20.5 29.5c0 5.33301 7 15 21 29s23.667 21 29 21z" />
    <glyph glyph-name="behfinalarabic" unicode="&#x628;" arabic-form="final" 
d="M300 -58c6 0 15.833 -7.16797 29.5 -21.501s20.5 -24.166 20.5 -29.499s-6.83301 -14.833 -20.5 -28.5s-23.5 -20.5 -29.5 -20.5s-15.833 6.83301 -29.5 20.5s-20.5 23.5 -20.5 29.5c0 5.33301 7 15 21 29s23.667 21 29 21zM560 39.999h40v-40h-560v59l28 80
c2.66699 9.33301 9.33398 14 20.001 14c5.33301 0 10.166 -1.66699 14.499 -5s6.5 -8 6.5 -14c0 -2 -0.666992 -5 -2 -9l-28 -80v-4h440v149c0 18 6.66699 27 20 27c14 0 21 -9 21 -27v-150z" />
    <glyph glyph-name="behinitialarabic" unicode="&#x628;" arabic-form="initial" 
d="M270 -58c6 0 15.833 -7.16797 29.5 -21.501s20.5 -24.166 20.5 -29.499s-6.83301 -14.833 -20.5 -28.5s-23.5 -20.5 -29.5 -20.5s-15.833 6.83301 -29.5 20.5s-20.5 23.5 -20.5 29.5c0 5.33301 7 15 21 29s23.667 21 29 21zM321 -0.000976562h-321v40h280v150
c0 18 6.66699 27 20 27c14 0 21 -9 21 -27v-190z" />
    <glyph glyph-name="behmedialarabic" unicode="&#x628;" arabic-form="medial" 
d="M300 -58c6 0 15.833 -7.16797 29.5 -21.501s20.5 -24.166 20.5 -29.499s-6.83301 -14.833 -20.5 -28.5s-23.5 -20.5 -29.5 -20.5s-15.833 6.83301 -29.5 20.5s-20.5 23.5 -20.5 29.5c0 5.33301 7 15 21 29s23.667 21 29 21zM321 39.999h279v-40h-600v40h280v150
c0 18 6.66699 27 20 27c14 0 21 -9 21 -27v-150z" />
    <glyph glyph-name="uniFE93" unicode="&#x629;" arabic-form="isolated" 
d="M370 416c6 0 15.833 -7.16797 29.5 -21.501s20.5 -24.166 20.5 -29.499s-6.83301 -14.833 -20.5 -28.5s-23.5 -20.5 -29.5 -20.5s-15.833 6.83301 -29.5 20.5s-20.5 23.5 -20.5 29.5c0 5.33301 7 15 21 29s23.667 21 29 21zM230 415.999
c6 0 15.833 -7.16797 29.5 -21.501s20.5 -24.166 20.5 -29.499s-6.83301 -14.833 -20.5 -28.5s-23.5 -20.5 -29.5 -20.5s-15.833 6.83301 -29.5 20.5s-20.5 23.5 -20.5 29.5c0 5.33301 7 15 21 29s23.667 21 29 21zM300 219.998c34.667 -26 59.667 -49.832 75 -71.499
s23 -46.167 23 -73.5c0 -32.667 -7.83301 -56 -23.5 -70s-40.5 -21 -74.5 -21c-32.667 0 -57.167 6.83301 -73.5 20.5s-24.5 38.167 -24.5 73.5c0 43.333 32.667 90.666 98 141.999zM300 168.999c-38 -30.667 -56.999 -60.999 -56.999 -90.999c0 -19.333 4.66699 -33 14 -41
s23.666 -12 42.999 -12c20 0 34.5 4 43.5 12s13.5 20.667 13.5 38c0 35.333 -19 66.666 -57 93.999z" />
    <glyph glyph-name="tehmarbutafinalarabic" unicode="&#x629;" arabic-form="final" 
d="M370 416c6 0 15.833 -7.16797 29.5 -21.501s20.5 -24.166 20.5 -29.499s-6.83301 -14.833 -20.5 -28.5s-23.5 -20.5 -29.5 -20.5s-15.833 6.83301 -29.5 20.5s-20.5 23.5 -20.5 29.5c0 5.33301 7 15 21 29s23.667 21 29 21zM230 415.999
c6 0 15.833 -7.16797 29.5 -21.501s20.5 -24.166 20.5 -29.499s-6.83301 -14.833 -20.5 -28.5s-23.5 -20.5 -29.5 -20.5s-15.833 6.83301 -29.5 20.5s-20.5 23.5 -20.5 29.5c0 5.33301 7 15 21 29s23.667 21 29 21zM411 215.998v-70c0 -27.333 17.333 -51.833 52 -73.5
s62.667 -32.5 84 -32.5h53v-40h-59c-42.667 0 -81 17.333 -115 52c-3.33301 -24 -12.666 -41.333 -27.999 -52s-38 -16 -68 -16c-36 0 -66.333 7.16699 -91 21.5s-37 38.5 -37 72.5c0 25.333 9 45.5 27 60.5s42.667 28.833 74 41.5s53.666 24.334 66.999 35.001
c0 12.667 7 19 21 19c5.33301 0 10 -1.83301 14 -5.5s6 -7.83398 6 -12.501zM386 93.998c-10.667 17.333 -16.001 35 -16.001 53v22c-8 -6 -23.5 -13.5 -46.5 -22.5s-42.167 -18.667 -57.5 -29s-23 -23.5 -23 -39.5c0 -18 8.83301 -31.333 26.5 -40s37.834 -13 60.501 -13
c20 0 34.5 4 43.5 12s13.5 20.667 13.5 38c0 6 -0.333008 12.333 -1 19z" />
    <glyph glyph-name="uniFE95" unicode="&#x62a;" arabic-form="isolated" 
d="M560 0h-520v59l28 80c2.66699 9.33301 9.33398 14 20.001 14c5.33301 0 10.166 -1.66699 14.499 -5s6.5 -8 6.5 -14c0 -2 -0.666992 -5 -2 -9l-28 -80v-5h440v150c0 18 6.66699 27 20 27c14 0 21 -9 21 -27v-190zM370 336c6 0 15.833 -7.16797 29.5 -21.501
s20.5 -24.166 20.5 -29.499s-6.83301 -14.833 -20.5 -28.5s-23.5 -20.5 -29.5 -20.5s-15.833 6.83301 -29.5 20.5s-20.5 23.5 -20.5 29.5c0 5.33301 7 15 21 29s23.667 21 29 21zM230 335.999c6 0 15.833 -7.16797 29.5 -21.501s20.5 -24.166 20.5 -29.499
s-6.83301 -14.833 -20.5 -28.5s-23.5 -20.5 -29.5 -20.5s-15.833 6.83301 -29.5 20.5s-20.5 23.5 -20.5 29.5c0 5.33301 7 15 21 29s23.667 21 29 21z" />
    <glyph glyph-name="tehfinalarabic" unicode="&#x62a;" arabic-form="final" 
d="M370 336c6 0 15.833 -7.16797 29.5 -21.501s20.5 -24.166 20.5 -29.499s-6.83301 -14.833 -20.5 -28.5s-23.5 -20.5 -29.5 -20.5s-15.833 6.83301 -29.5 20.5s-20.5 23.5 -20.5 29.5c0 5.33301 7 15 21 29s23.667 21 29 21zM230 335.999
c6 0 15.833 -7.16797 29.5 -21.501s20.5 -24.166 20.5 -29.499s-6.83301 -14.833 -20.5 -28.5s-23.5 -20.5 -29.5 -20.5s-15.833 6.83301 -29.5 20.5s-20.5 23.5 -20.5 29.5c0 5.33301 7 15 21 29s23.667 21 29 21zM560 39.998h40v-40h-560v59l28 80
c2.66699 9.33301 9.33398 14 20.001 14c5.33301 0 10.166 -1.66699 14.499 -5s6.5 -8 6.5 -14c0 -2 -0.666992 -5 -2 -9l-28 -80v-4h440v149c0 18 6.66699 27 20 27c14 0 21 -9 21 -27v-150z" />
    <glyph glyph-name="tehinitialarabic" unicode="&#x62a;" arabic-form="initial" 
d="M370 416c6 0 15.833 -7.16797 29.5 -21.501s20.5 -24.166 20.5 -29.499s-6.83301 -14.833 -20.5 -28.5s-23.5 -20.5 -29.5 -20.5s-15.833 6.83301 -29.5 20.5s-20.5 23.5 -20.5 29.5c0 5.33301 7 15 21 29s23.667 21 29 21zM230 415.999
c6 0 15.833 -7.16797 29.5 -21.501s20.5 -24.166 20.5 -29.499s-6.83301 -14.833 -20.5 -28.5s-23.5 -20.5 -29.5 -20.5s-15.833 6.83301 -29.5 20.5s-20.5 23.5 -20.5 29.5c0 5.33301 7 15 21 29s23.667 21 29 21zM321 -0.00195312h-321v40h280v150c0 18 6.66699 27 20 27
c14 0 21 -9 21 -27v-190z" />
    <glyph glyph-name="tehmedialarabic" unicode="&#x62a;" arabic-form="medial" 
d="M370 416c6 0 15.833 -7.16797 29.5 -21.501s20.5 -24.166 20.5 -29.499s-6.83301 -14.833 -20.5 -28.5s-23.5 -20.5 -29.5 -20.5s-15.833 6.83301 -29.5 20.5s-20.5 23.5 -20.5 29.5c0 5.33301 7 15 21 29s23.667 21 29 21zM230 415.999
c6 0 15.833 -7.16797 29.5 -21.501s20.5 -24.166 20.5 -29.499s-6.83301 -14.833 -20.5 -28.5s-23.5 -20.5 -29.5 -20.5s-15.833 6.83301 -29.5 20.5s-20.5 23.5 -20.5 29.5c0 5.33301 7 15 21 29s23.667 21 29 21zM321 39.998h279v-40h-600v40h280v150
c0 18 6.66699 27 20 27c14 0 21 -9 21 -27v-150z" />
    <glyph glyph-name="uniFE99" unicode="&#x62b;" arabic-form="isolated" 
d="M560 0h-520v59l28 80c2.66699 9.33301 9.33398 14 20.001 14c5.33301 0 10.166 -1.66699 14.499 -5s6.5 -8 6.5 -14c0 -2 -0.666992 -5 -2 -9l-28 -80v-5h440v150c0 18 6.66699 27 20 27c14 0 21 -9 21 -27v-190zM300 396c6 0 15.833 -7.16797 29.5 -21.501
s20.5 -24.166 20.5 -29.499s-6.83301 -14.833 -20.5 -28.5s-23.5 -20.5 -29.5 -20.5s-15.833 6.83301 -29.5 20.5s-20.5 23.5 -20.5 29.5c0 5.33301 7 15 21 29s23.667 21 29 21zM380 325.999c6 0 15.833 -7.16797 29.5 -21.501s20.5 -24.166 20.5 -29.499
s-6.83301 -14.833 -20.5 -28.5s-23.5 -20.5 -29.5 -20.5s-15.833 6.83301 -29.5 20.5s-20.5 23.5 -20.5 29.5c0 5.33301 7 15 21 29s23.667 21 29 21zM220 325.998c6 0 15.833 -7.16797 29.5 -21.501s20.5 -24.166 20.5 -29.499s-6.83301 -14.833 -20.5 -28.5
s-23.5 -20.5 -29.5 -20.5s-15.833 6.83301 -29.5 20.5s-20.5 23.5 -20.5 29.5c0 5.33301 7 15 21 29s23.667 21 29 21z" />
    <glyph glyph-name="thehfinalarabic" unicode="&#x62b;" arabic-form="final" 
d="M300 396c6 0 15.833 -7.16797 29.5 -21.501s20.5 -24.166 20.5 -29.499s-6.83301 -14.833 -20.5 -28.5s-23.5 -20.5 -29.5 -20.5s-15.833 6.83301 -29.5 20.5s-20.5 23.5 -20.5 29.5c0 5.33301 7 15 21 29s23.667 21 29 21zM380 325.999
c6 0 15.833 -7.16797 29.5 -21.501s20.5 -24.166 20.5 -29.499s-6.83301 -14.833 -20.5 -28.5s-23.5 -20.5 -29.5 -20.5s-15.833 6.83301 -29.5 20.5s-20.5 23.5 -20.5 29.5c0 5.33301 7 15 21 29s23.667 21 29 21zM220 325.998c6 0 15.833 -7.16797 29.5 -21.501
s20.5 -24.166 20.5 -29.499s-6.83301 -14.833 -20.5 -28.5s-23.5 -20.5 -29.5 -20.5s-15.833 6.83301 -29.5 20.5s-20.5 23.5 -20.5 29.5c0 5.33301 7 15 21 29s23.667 21 29 21zM560 39.9971h40v-40h-560v59l28 80c2.66699 9.33301 9.33398 14 20.001 14
c5.33301 0 10.166 -1.66699 14.499 -5s6.5 -8 6.5 -14c0 -2 -0.666992 -5 -2 -9l-28 -80v-4h440v149c0 18 6.66699 27 20 27c14 0 21 -9 21 -27v-150z" />
    <glyph glyph-name="thehinitialarabic" unicode="&#x62b;" arabic-form="initial" 
d="M300 426c6 0 15.833 -7.16797 29.5 -21.501s20.5 -24.166 20.5 -29.499s-6.83301 -14.833 -20.5 -28.5s-23.5 -20.5 -29.5 -20.5s-15.833 6.83301 -29.5 20.5s-20.5 23.5 -20.5 29.5c0 5.33301 7 15 21 29s23.667 21 29 21zM380 355.999
c6 0 15.833 -7.16797 29.5 -21.501s20.5 -24.166 20.5 -29.499s-6.83301 -14.833 -20.5 -28.5s-23.5 -20.5 -29.5 -20.5s-15.833 6.83301 -29.5 20.5s-20.5 23.5 -20.5 29.5c0 5.33301 7 15 21 29s23.667 21 29 21zM220 355.998c6 0 15.833 -7.16797 29.5 -21.501
s20.5 -24.166 20.5 -29.499s-6.83301 -14.833 -20.5 -28.5s-23.5 -20.5 -29.5 -20.5s-15.833 6.83301 -29.5 20.5s-20.5 23.5 -20.5 29.5c0 5.33301 7 15 21 29s23.667 21 29 21zM321 -0.00292969h-321v40h280v150c0 18 6.66699 27 20 27c14 0 21 -9 21 -27v-190z" />
    <glyph glyph-name="thehmedialarabic" unicode="&#x62b;" arabic-form="medial" 
d="M300 426c6 0 15.833 -7.16797 29.5 -21.501s20.5 -24.166 20.5 -29.499s-6.83301 -14.833 -20.5 -28.5s-23.5 -20.5 -29.5 -20.5s-15.833 6.83301 -29.5 20.5s-20.5 23.5 -20.5 29.5c0 5.33301 7 15 21 29s23.667 21 29 21zM380 355.999
c6 0 15.833 -7.16797 29.5 -21.501s20.5 -24.166 20.5 -29.499s-6.83301 -14.833 -20.5 -28.5s-23.5 -20.5 -29.5 -20.5s-15.833 6.83301 -29.5 20.5s-20.5 23.5 -20.5 29.5c0 5.33301 7 15 21 29s23.667 21 29 21zM220 355.998c6 0 15.833 -7.16797 29.5 -21.501
s20.5 -24.166 20.5 -29.499s-6.83301 -14.833 -20.5 -28.5s-23.5 -20.5 -29.5 -20.5s-15.833 6.83301 -29.5 20.5s-20.5 23.5 -20.5 29.5c0 5.33301 7 15 21 29s23.667 21 29 21zM321 39.9971h279v-40h-600v40h280v150c0 18 6.66699 27 20 27c14 0 21 -9 21 -27v-150z" />
    <glyph glyph-name="uniFE9D" unicode="&#x62c;" arabic-form="isolated" 
d="M300 82c6 0 15.833 -7.16797 29.5 -21.501s20.5 -24.166 20.5 -29.499s-6.83301 -14.833 -20.5 -28.5s-23.5 -20.5 -29.5 -20.5s-15.833 6.83301 -29.5 20.5s-20.5 23.5 -20.5 29.5c0 5.33301 7 15 21 29s23.667 21 29 21zM324 -159.001c28 0 54.0029 5.33301 78.0029 16
s42.5 22.334 55.5 35.001l36 35c11 10.667 19.167 16 24.5 16c12.667 0 19 -6.33301 19 -19c0 -6 -5.33301 -15.5 -16 -28.5s-24.667 -26.833 -42 -41.5s-40 -27.334 -68 -38.001s-56.667 -16 -86 -16c-76 0 -139 25.167 -189 75.5s-75 114.5 -75 192.5
c0 42 9.66699 80.667 29 116s45.666 64 78.999 86h-88c-13.333 0 -20 6.66699 -20 20s6.66699 20 20 20h380c12.667 0 19 -7 19 -21c0 -12.667 -6.66699 -19 -20 -19h-153c-32.667 0 -61.834 -6 -87.501 -18s-45.5 -26.5 -59.5 -43.5s-25.667 -36 -35 -57
s-15.5 -39 -18.5 -54s-4.5 -28.167 -4.5 -39.5c0 -59.333 22.167 -110.333 66.5 -153s96.166 -64 155.499 -64z" />
    <glyph glyph-name="jeemfinalarabic" unicode="&#x62c;" arabic-form="final" 
d="M300 82c6 0 15.833 -7.16797 29.5 -21.501s20.5 -24.166 20.5 -29.499s-6.83301 -14.833 -20.5 -28.5s-23.5 -20.5 -29.5 -20.5s-15.833 6.83301 -29.5 20.5s-20.5 23.5 -20.5 29.5c0 5.33301 7 15 21 29s23.667 21 29 21zM324 -159.001c28 0 54.0029 5.33301 78.0029 16
s42.5 22.334 55.5 35.001l36 35c11 10.667 19.167 16 24.5 16c12.667 0 19 -6.33301 19 -19c0 -6 -5.33301 -15.5 -16 -28.5s-24.667 -26.833 -42 -41.5s-40 -27.334 -68 -38.001s-56.667 -16 -86 -16c-76 0 -139 25.167 -189 75.5s-75 114.5 -75 192.5
c0 42 9.66699 80.667 29 116s45.666 64 78.999 86h-88c-13.333 0 -20 6.66699 -20 20s6.66699 20 20 20h380c12.667 0 19 -7 19 -21c0 -12.667 -6.66699 -19 -20 -19h-153c-32.667 0 -61.834 -6 -87.501 -18s-45.5 -26.5 -59.5 -43.5s-25.667 -36 -35 -57
s-15.5 -39 -18.5 -54s-4.5 -28.167 -4.5 -39.5c0 -59.333 22.167 -110.333 66.5 -153s96.166 -64 155.499 -64zM461.003 215.999v-70c0 -30.667 10.833 -56 32.5 -76s49.5 -30 83.5 -30h23v-40h-29c-42 0 -77.667 14.333 -107 43s-44 63.334 -44 104.001v68
c0 12.667 7 19 21 19c5.33301 0 10 -1.83301 14 -5.5s6 -7.83398 6 -12.501z" />
    <glyph glyph-name="jeeminitialarabic" unicode="&#x62c;" arabic-form="initial" 
d="M300 0c6 0 15.833 -7.16797 29.5 -21.501s20.5 -24.166 20.5 -29.499s-6.83301 -14.833 -20.5 -28.5s-23.5 -20.5 -29.5 -20.5s-15.833 6.83301 -29.5 20.5s-20.5 23.5 -20.5 29.5c0 5.33301 7 15 21 29s23.667 21 29 21zM0 -0.000976562l0.00195312 41
c36.667 0 74 6.5 112 19.5s69.167 27.167 93.5 42.5s48 31.166 71 47.499s37.167 25.833 42.5 28.5h-208c-13.333 0 -20 6.66699 -20 20s6.66699 20 20 20h225h155c12.667 0 19 -7 19 -21c0 -5.33301 -1.83301 -9.83301 -5.5 -13.5s-8.5 -5.5 -14.5 -5.5h-43
c-25.333 0 -50.833 -6.16699 -76.5 -18.5s-50.334 -27.333 -74.001 -45s-48.834 -35.167 -75.501 -52.5s-59.167 -32.166 -97.5 -44.499s-79.5 -18.5 -123.5 -18.5z" />
    <glyph glyph-name="jeemmedialarabic" unicode="&#x62c;" arabic-form="medial" 
d="M300 0c6 0 15.833 -7.16797 29.5 -21.501s20.5 -24.166 20.5 -29.499s-6.83301 -14.833 -20.5 -28.5s-23.5 -20.5 -29.5 -20.5s-15.833 6.83301 -29.5 20.5s-20.5 23.5 -20.5 29.5c0 5.33301 7 15 21 29s23.667 21 29 21zM600 39.999v-40h-116c-6 0 -11 2 -15 6
s-6 8.66699 -6 14c0 13.333 7 20 21 20h116zM0 -0.000976562l0.00195312 41c36.667 0 74 6.5 112 19.5s69.167 27.167 93.5 42.5s48 31.166 71 47.499s37.167 25.833 42.5 28.5h-208c-13.333 0 -20 6.66699 -20 20s6.66699 20 20 20h225h155c12.667 0 19 -7 19 -21
c0 -5.33301 -1.83301 -9.83301 -5.5 -13.5s-8.5 -5.5 -14.5 -5.5h-43c-25.333 0 -50.833 -6.16699 -76.5 -18.5s-50.334 -27.333 -74.001 -45s-48.834 -35.167 -75.501 -52.5s-59.167 -32.166 -97.5 -44.499s-79.5 -18.5 -123.5 -18.5z" />
    <glyph glyph-name="uniFEA1" unicode="&#x62d;" arabic-form="isolated" 
d="M324 -159c28 0 54.0029 5.33301 78.0029 16s42.5 22.334 55.5 35.001l36 35c11 10.667 19.167 16 24.5 16c12.667 0 19 -6.33301 19 -19c0 -6 -5.33301 -15.5 -16 -28.5s-24.667 -26.833 -42 -41.5s-40 -27.334 -68 -38.001s-56.667 -16 -86 -16
c-76 0 -139 25.167 -189 75.5s-75 114.5 -75 192.5c0 42 9.66699 80.667 29 116s45.666 64 78.999 86h-88c-13.333 0 -20 6.66699 -20 20s6.66699 20 20 20h380c12.667 0 19 -7 19 -21c0 -12.667 -6.66699 -19 -20 -19h-153c-32.667 0 -61.834 -6 -87.501 -18
s-45.5 -26.5 -59.5 -43.5s-25.667 -36 -35 -57s-15.5 -39 -18.5 -54s-4.5 -28.167 -4.5 -39.5c0 -59.333 22.167 -110.333 66.5 -153s96.166 -64 155.499 -64z" />
    <glyph glyph-name="hahfinalarabic" unicode="&#x62d;" arabic-form="final" 
d="M324 -159c28 0 54.0029 5.33301 78.0029 16s42.5 22.334 55.5 35.001l36 35c11 10.667 19.167 16 24.5 16c12.667 0 19 -6.33301 19 -19c0 -6 -5.33301 -15.5 -16 -28.5s-24.667 -26.833 -42 -41.5s-40 -27.334 -68 -38.001s-56.667 -16 -86 -16
c-76 0 -139 25.167 -189 75.5s-75 114.5 -75 192.5c0 42 9.66699 80.667 29 116s45.666 64 78.999 86h-88c-13.333 0 -20 6.66699 -20 20s6.66699 20 20 20h380c12.667 0 19 -7 19 -21c0 -12.667 -6.66699 -19 -20 -19h-153c-32.667 0 -61.834 -6 -87.501 -18
s-45.5 -26.5 -59.5 -43.5s-25.667 -36 -35 -57s-15.5 -39 -18.5 -54s-4.5 -28.167 -4.5 -39.5c0 -59.333 22.167 -110.333 66.5 -153s96.166 -64 155.499 -64zM461.003 216v-70c0 -30.667 10.833 -56 32.5 -76s49.5 -30 83.5 -30h23v-40h-29c-42 -0 -77.667 14.333 -107 43
s-44 63.334 -44 104.001v68c0 12.667 7 19 21 19c5.33301 0 10 -1.83301 14 -5.5s6 -7.83398 6 -12.501z" />
    <glyph glyph-name="hahinitialarabic" unicode="&#x62d;" arabic-form="initial" 
d="M0 0l0.00195312 41c36.667 0 74 6.5 112 19.5s69.167 27.167 93.5 42.5s48 31.166 71 47.499s37.167 25.833 42.5 28.5h-208c-13.333 0 -20 6.66699 -20 20s6.66699 20 20 20h225h155c12.667 0 19 -7 19 -21c0 -5.33301 -1.83301 -9.83301 -5.5 -13.5
s-8.5 -5.5 -14.5 -5.5h-43c-25.333 0 -50.833 -6.16699 -76.5 -18.5s-50.334 -27.333 -74.001 -45s-48.834 -35.167 -75.501 -52.5s-59.167 -32.166 -97.5 -44.499s-79.5 -18.5 -123.5 -18.5z" />
    <glyph glyph-name="hahmedialarabic" unicode="&#x62d;" arabic-form="medial" 
d="M600 40v-40h-116c-6 0 -11 2 -15 6s-6 8.66699 -6 14c0 13.333 7 20 21 20h116zM0 0l0.00195312 41c36.667 0 74 6.5 112 19.5s69.167 27.167 93.5 42.5s48 31.166 71 47.499s37.167 25.833 42.5 28.5h-208c-13.333 0 -20 6.66699 -20 20s6.66699 20 20 20h225h155
c12.667 0 19 -7 19 -21c0 -5.33301 -1.83301 -9.83301 -5.5 -13.5s-8.5 -5.5 -14.5 -5.5h-43c-25.333 0 -50.833 -6.16699 -76.5 -18.5s-50.334 -27.333 -74.001 -45s-48.834 -35.167 -75.501 -52.5s-59.167 -32.166 -97.5 -44.499s-79.5 -18.5 -123.5 -18.5z" />
    <glyph glyph-name="uniFEA5" unicode="&#x62e;" arabic-form="isolated" 
d="M300 486c6 0 15.833 -7.16797 29.5 -21.501s20.5 -24.166 20.5 -29.499s-6.83301 -14.833 -20.5 -28.5s-23.5 -20.5 -29.5 -20.5s-15.833 6.83301 -29.5 20.5s-20.5 23.5 -20.5 29.5c0 5.33301 7 15 21 29s23.667 21 29 21zM324 -159.001
c28 0 54.0029 5.33301 78.0029 16s42.5 22.334 55.5 35.001l36 35c11 10.667 19.167 16 24.5 16c12.667 0 19 -6.33301 19 -19c0 -6 -5.33301 -15.5 -16 -28.5s-24.667 -26.833 -42 -41.5s-40 -27.334 -68 -38.001s-56.667 -16 -86 -16c-76 0 -139 25.167 -189 75.5
s-75 114.5 -75 192.5c0 42 9.66699 80.667 29 116s45.666 64 78.999 86h-88c-13.333 0 -20 6.66699 -20 20s6.66699 20 20 20h380c12.667 0 19 -7 19 -21c0 -12.667 -6.66699 -19 -20 -19h-153c-32.667 0 -61.834 -6 -87.501 -18s-45.5 -26.5 -59.5 -43.5
s-25.667 -36 -35 -57s-15.5 -39 -18.5 -54s-4.5 -28.167 -4.5 -39.5c0 -59.333 22.167 -110.333 66.5 -153s96.166 -64 155.499 -64z" />
    <glyph glyph-name="khahfinalarabic" unicode="&#x62e;" arabic-form="final" 
d="M300 486c6 0 15.833 -7.16797 29.5 -21.501s20.5 -24.166 20.5 -29.499s-6.83301 -14.833 -20.5 -28.5s-23.5 -20.5 -29.5 -20.5s-15.833 6.83301 -29.5 20.5s-20.5 23.5 -20.5 29.5c0 5.33301 7 15 21 29s23.667 21 29 21zM324 -159.001
c28 0 54.0029 5.33301 78.0029 16s42.5 22.334 55.5 35.001l36 35c11 10.667 19.167 16 24.5 16c12.667 0 19 -6.33301 19 -19c0 -6 -5.33301 -15.5 -16 -28.5s-24.667 -26.833 -42 -41.5s-40 -27.334 -68 -38.001s-56.667 -16 -86 -16c-76 0 -139 25.167 -189 75.5
s-75 114.5 -75 192.5c0 42 9.66699 80.667 29 116s45.666 64 78.999 86h-88c-13.333 0 -20 6.66699 -20 20s6.66699 20 20 20h380c12.667 0 19 -7 19 -21c0 -12.667 -6.66699 -19 -20 -19h-153c-32.667 0 -61.834 -6 -87.501 -18s-45.5 -26.5 -59.5 -43.5
s-25.667 -36 -35 -57s-15.5 -39 -18.5 -54s-4.5 -28.167 -4.5 -39.5c0 -59.333 22.167 -110.333 66.5 -153s96.166 -64 155.499 -64zM461.003 215.999v-70c0 -30.667 10.833 -56 32.5 -76s49.5 -30 83.5 -30h23v-40h-29c-42 0 -77.667 14.333 -107 43
s-44 63.334 -44 104.001v68c0 12.667 7 19 21 19c5.33301 0 10 -1.83301 14 -5.5s6 -7.83398 6 -12.501z" />
    <glyph glyph-name="khahinitialarabic" unicode="&#x62e;" arabic-form="initial" 
d="M300 416c6 0 15.833 -7.16797 29.5 -21.501s20.5 -24.166 20.5 -29.499s-6.83301 -14.833 -20.5 -28.5s-23.5 -20.5 -29.5 -20.5s-15.833 6.83301 -29.5 20.5s-20.5 23.5 -20.5 29.5c0 5.33301 7 15 21 29s23.667 21 29 21zM0 -0.000976562l0.00195312 41
c36.667 0 74 6.5 112 19.5s69.167 27.167 93.5 42.5s48 31.166 71 47.499s37.167 25.833 42.5 28.5h-208c-13.333 0 -20 6.66699 -20 20s6.66699 20 20 20h225h155c12.667 0 19 -7 19 -21c0 -5.33301 -1.83301 -9.83301 -5.5 -13.5s-8.5 -5.5 -14.5 -5.5h-43
c-25.333 0 -50.833 -6.16699 -76.5 -18.5s-50.334 -27.333 -74.001 -45s-48.834 -35.167 -75.501 -52.5s-59.167 -32.166 -97.5 -44.499s-79.5 -18.5 -123.5 -18.5z" />
    <glyph glyph-name="khahmedialarabic" unicode="&#x62e;" arabic-form="medial" 
d="M300 416c6 0 15.833 -7.16797 29.5 -21.501s20.5 -24.166 20.5 -29.499s-6.83301 -14.833 -20.5 -28.5s-23.5 -20.5 -29.5 -20.5s-15.833 6.83301 -29.5 20.5s-20.5 23.5 -20.5 29.5c0 5.33301 7 15 21 29s23.667 21 29 21zM600 39.999v-40h-116c-6 0 -11 2 -15 6
s-6 8.66699 -6 14c0 13.333 7 20 21 20h116zM0 -0.000976562l0.00195312 41c36.667 0 74 6.5 112 19.5s69.167 27.167 93.5 42.5s48 31.166 71 47.499s37.167 25.833 42.5 28.5h-208c-13.333 0 -20 6.66699 -20 20s6.66699 20 20 20h225h155c12.667 0 19 -7 19 -21
c0 -5.33301 -1.83301 -9.83301 -5.5 -13.5s-8.5 -5.5 -14.5 -5.5h-43c-25.333 0 -50.833 -6.16699 -76.5 -18.5s-50.334 -27.333 -74.001 -45s-48.834 -35.167 -75.501 -52.5s-59.167 -32.166 -97.5 -44.499s-79.5 -18.5 -123.5 -18.5z" />
    <glyph glyph-name="uniFEA9" unicode="&#x62f;" arabic-form="isolated" 
d="M227 260h42c44.667 0 82.667 -22.167 114 -66.5s47 -95.5 47 -153.5v-40h-276c-6 0 -11 2 -15 6s-6 8.66699 -6 14c0 13.333 7 20 21 20h234c0 46.667 -11.5 88.167 -34.5 124.5s-53.167 54.5 -90.5 54.5h-36c-6 0 -11 2 -15 6s-6 9 -6 15c0 5.33301 2 10 6 14s9 6 15 6z
" />
    <glyph glyph-name="dalfinalarabic" unicode="&#x62f;" arabic-form="final" 
d="M600 40v-40h-446c-6 0 -11 2 -15 6s-6 8.66699 -6 14c0 13.333 7 20 21 20h234c0 46.667 -11.5 88.167 -34.5 124.5s-53.167 54.5 -90.5 54.5h-36c-6 0 -11 2 -15 6s-6 9 -6 15c0 5.33301 2 10 6 14s9 6 15 6h42c44.667 0 82.667 -22.167 114 -66.5s47 -95.5 47 -153.5
h170z" />
    <glyph glyph-name="uniFEAB" unicode="&#x630;" arabic-form="isolated" 
d="M300 416c6 0 15.833 -7.16797 29.5 -21.501s20.5 -24.166 20.5 -29.499s-6.83301 -14.833 -20.5 -28.5s-23.5 -20.5 -29.5 -20.5s-15.833 6.83301 -29.5 20.5s-20.5 23.5 -20.5 29.5c0 5.33301 7 15 21 29s23.667 21 29 21zM227 259.999h42
c44.667 0 82.667 -22.167 114 -66.5s47 -95.5 47 -153.5v-40h-276c-6 0 -11 2 -15 6s-6 8.66699 -6 14c0 13.333 7 20 21 20h234c0 46.667 -11.5 88.167 -34.5 124.5s-53.167 54.5 -90.5 54.5h-36c-6 0 -11 2 -15 6s-6 9 -6 15c0 5.33301 2 10 6 14s9 6 15 6z" />
    <glyph glyph-name="thalfinalarabic" unicode="&#x630;" arabic-form="final" 
d="M300 416c6 0 15.833 -7.16797 29.5 -21.501s20.5 -24.166 20.5 -29.499s-6.83301 -14.833 -20.5 -28.5s-23.5 -20.5 -29.5 -20.5s-15.833 6.83301 -29.5 20.5s-20.5 23.5 -20.5 29.5c0 5.33301 7 15 21 29s23.667 21 29 21zM600 39.999v-40h-446c-6 0 -11 2 -15 6
s-6 8.66699 -6 14c0 13.333 7 20 21 20h234c0 46.667 -11.5 88.167 -34.5 124.5s-53.167 54.5 -90.5 54.5h-36c-6 0 -11 2 -15 6s-6 9 -6 15c0 5.33301 2 10 6 14s9 6 15 6h42c44.667 0 82.667 -22.167 114 -66.5s47 -95.5 47 -153.5h170z" />
    <glyph glyph-name="uniFEAD" unicode="&#x631;" arabic-form="isolated" 
d="M115 -145c2 0 10.668 -2.5 26.001 -7.5s30 -7.5 44 -7.5c50 0 91.667 14.333 125 43s50 67.667 50 117v200c0 16 6.66699 24 20 24s20 -8 20 -24v-206c0 -58 -20.833 -104.667 -62.5 -140s-92.834 -53 -153.501 -53c-16.667 0 -35.334 2.66699 -56.001 8s-31 14 -31 26
c0 5.33301 1.83301 10 5.5 14s7.83398 6 12.501 6z" />
    <glyph glyph-name="rehfinalarabic" unicode="&#x631;" arabic-form="final" 
d="M600 40l0.000976562 -40h-200c0 -60.667 -20.333 -109 -61 -145s-92.334 -54 -155.001 -54c-16.667 0 -35.334 2.66699 -56.001 8s-31 14 -31 26c0 5.33301 1.83301 10 5.5 14s7.83398 6 12.501 6c2 0 10.667 -2.5 26 -7.5s30 -7.5 44 -7.5c50 0 91.667 14.333 125 43
s50 67.667 50 117v200c0 16 6.66699 24 20 24s20 -8 20 -24v-160h200z" />
    <glyph glyph-name="uniFEAF" unicode="&#x632;" arabic-form="isolated" 
d="M350 416c6 0 15.833 -7.16797 29.5 -21.501s20.5 -24.166 20.5 -29.499s-6.83301 -14.833 -20.5 -28.5s-23.5 -20.5 -29.5 -20.5s-15.833 6.83301 -29.5 20.5s-20.5 23.5 -20.5 29.5c0 5.33301 7 15 21 29s23.667 21 29 21zM115 -145.001c2 0 10.668 -2.5 26.001 -7.5
s30 -7.5 44 -7.5c50 0 91.667 14.333 125 43s50 67.667 50 117v200c0 16 6.66699 24 20 24s20 -8 20 -24v-206c0 -58 -20.833 -104.667 -62.5 -140s-92.834 -53 -153.501 -53c-16.667 0 -35.334 2.66699 -56.001 8s-31 14 -31 26c0 5.33301 1.83301 10 5.5 14
s7.83398 6 12.501 6z" />
    <glyph glyph-name="zainfinalarabic" unicode="&#x632;" arabic-form="final" 
d="M350 416c6 0 15.833 -7.16797 29.5 -21.501s20.5 -24.166 20.5 -29.499s-6.83301 -14.833 -20.5 -28.5s-23.5 -20.5 -29.5 -20.5s-15.833 6.83301 -29.5 20.5s-20.5 23.5 -20.5 29.5c0 5.33301 7 15 21 29s23.667 21 29 21zM600 39.999l0.000976562 -40h-200
c0 -60.667 -20.333 -109 -61 -145s-92.334 -54 -155.001 -54c-16.667 0 -35.334 2.66699 -56.001 8s-31 14 -31 26c0 5.33301 1.83301 10 5.5 14s7.83398 6 12.501 6c2 0 10.667 -2.5 26 -7.5s30 -7.5 44 -7.5c50 0 91.667 14.333 125 43s50 67.667 50 117v200
c0 16 6.66699 24 20 24s20 -8 20 -24v-160h200z" />
    <glyph glyph-name="uniFEB1" unicode="&#x633;" arabic-form="isolated" 
d="M600 161c0 -50.667 -2.5 -87.332 -7.5 -109.999s-12 -36.834 -21 -42.501s-24.5 -8.5 -46.5 -8.5h-212c0 -38.667 -15.667 -69 -47 -91s-68 -33 -110 -33s-78.5 11 -109.5 33s-46.5 52.333 -46.5 91v59l27 77c2.66699 9.33301 9.33398 14 20.001 14
c5.33301 0 10.166 -1.66699 14.499 -5s6.5 -8 6.5 -14c0 -2 -0.666992 -5 -2 -9l-26 -77v-45c0 -24 11.833 -42.833 35.5 -56.5s51.5 -20.5 83.5 -20.5c30.667 0 57.167 6.66699 79.5 20s33.5 32.333 33.5 57v126c0 16 7 24 21 24c13.333 0 20 -8 20 -24v-86h117v116
c0 16 6.66699 24 20 24s20 -8 20 -24v-116h46c20 0 32.167 6.66699 36.5 20s6.5 47.333 6.5 102c0 6.66699 2 12 6 16s9 6 15 6c13.333 0 20 -7.66699 20 -23z" />
    <glyph glyph-name="seenfinalarabic" unicode="&#x633;" arabic-form="final" 
d="M600 40v-40h-287c0 -38.667 -15.667 -69 -47 -91s-68 -33 -110 -33s-78.5 11 -109.5 33s-46.5 52.333 -46.5 91v59l27 77c2.66699 9.33301 9.33398 14 20.001 14c5.33301 0 10.166 -1.66699 14.499 -5s6.5 -8 6.5 -14c0 -2 -0.666992 -5 -2 -9l-26 -77v-45
c0 -24 11.833 -42.833 35.5 -56.5s51.5 -20.5 83.5 -20.5c30.667 0 57.167 6.66699 79.5 20s33.5 32.333 33.5 57v126c0 16 7 24 21 24c13.333 0 20 -8 20 -24v-86h117v116c0 16 6.66699 24 20 24s20 -8 20 -24v-116h46c20 0 32.167 6.66699 36.5 20s6.5 47.333 6.5 102
c0 6.66699 2 12 6 16s9 6 15 6c13.333 0 20 -7.66699 20 -23c0 -58.667 -3 -99 -9 -121h9z" />
    <glyph glyph-name="seeninitialarabic" unicode="&#x633;" arabic-form="initial" 
d="M530 161c0 -50.667 -2.5 -87.332 -7.5 -109.999s-12 -36.834 -21 -42.501s-24.5 -8.5 -46.5 -8.5h-455v40h202v86c0 16 7 24 21 24c13.333 0 20 -8 20 -24v-86h117v116c0 16 6.66699 24 20 24s20 -8 20 -24v-116h46c20 0 32.167 6.66699 36.5 20s6.5 47.333 6.5 102
c0 6.66699 2 12 6 16s9 6 15 6c13.333 0 20 -7.66699 20 -23z" />
    <glyph glyph-name="seenmedialarabic" unicode="&#x633;" arabic-form="medial" 
d="M600 40v-40h-600v40h202v86c0 16 7 24 21 24c13.333 0 20 -8 20 -24v-86h117v116c0 16 6.66699 24 20 24s20 -8 20 -24v-116h46c20 0 32.167 6.66699 36.5 20s6.5 47.333 6.5 102c0 6.66699 2 12 6 16s9 6 15 6c13.333 0 20 -7.66699 20 -23c0 -58.667 -3 -99 -9 -121h79
z" />
    <glyph glyph-name="uniFEB5" unicode="&#x634;" arabic-form="isolated" 
d="M440 416c6 0 15.833 -7.16797 29.5 -21.501s20.5 -24.166 20.5 -29.499s-6.83301 -14.833 -20.5 -28.5s-23.5 -20.5 -29.5 -20.5s-15.833 6.83301 -29.5 20.5s-20.5 23.5 -20.5 29.5c0 5.33301 7 15 21 29s23.667 21 29 21zM520 345.999
c6 0 15.833 -7.16797 29.5 -21.501s20.5 -24.166 20.5 -29.499s-6.83301 -14.833 -20.5 -28.5s-23.5 -20.5 -29.5 -20.5s-15.833 6.83301 -29.5 20.5s-20.5 23.5 -20.5 29.5c0 5.33301 7 15 21 29s23.667 21 29 21zM360 345.998c6 0 15.833 -7.16797 29.5 -21.501
s20.5 -24.166 20.5 -29.499s-6.83301 -14.833 -20.5 -28.5s-23.5 -20.5 -29.5 -20.5s-15.833 6.83301 -29.5 20.5s-20.5 23.5 -20.5 29.5c0 5.33301 7 15 21 29s23.667 21 29 21zM600 160.997c0 -50.667 -2.5 -87.332 -7.5 -109.999s-12 -36.834 -21 -42.501
s-24.5 -8.5 -46.5 -8.5h-212c0 -38.667 -15.667 -69 -47 -91s-68 -33 -110 -33s-78.5 11 -109.5 33s-46.5 52.333 -46.5 91v59l27 77c2.66699 9.33301 9.33398 14 20.001 14c5.33301 0 10.166 -1.66699 14.499 -5s6.5 -8 6.5 -14c0 -2 -0.666992 -5 -2 -9l-26 -77v-45
c0 -24 11.833 -42.833 35.5 -56.5s51.5 -20.5 83.5 -20.5c30.667 0 57.167 6.66699 79.5 20s33.5 32.333 33.5 57v126c0 16 7 24 21 24c13.333 0 20 -8 20 -24v-86h117v116c0 16 6.66699 24 20 24s20 -8 20 -24v-116h46c20 0 32.167 6.66699 36.5 20s6.5 47.333 6.5 102
c0 6.66699 2 12 6 16s9 6 15 6c13.333 0 20 -7.66699 20 -23z" />
    <glyph glyph-name="sheenfinalarabic" unicode="&#x634;" arabic-form="final" 
d="M440 416c6 0 15.833 -7.16797 29.5 -21.501s20.5 -24.166 20.5 -29.499s-6.83301 -14.833 -20.5 -28.5s-23.5 -20.5 -29.5 -20.5s-15.833 6.83301 -29.5 20.5s-20.5 23.5 -20.5 29.5c0 5.33301 7 15 21 29s23.667 21 29 21zM520 345.999
c6 0 15.833 -7.16797 29.5 -21.501s20.5 -24.166 20.5 -29.499s-6.83301 -14.833 -20.5 -28.5s-23.5 -20.5 -29.5 -20.5s-15.833 6.83301 -29.5 20.5s-20.5 23.5 -20.5 29.5c0 5.33301 7 15 21 29s23.667 21 29 21zM360 345.998c6 0 15.833 -7.16797 29.5 -21.501
s20.5 -24.166 20.5 -29.499s-6.83301 -14.833 -20.5 -28.5s-23.5 -20.5 -29.5 -20.5s-15.833 6.83301 -29.5 20.5s-20.5 23.5 -20.5 29.5c0 5.33301 7 15 21 29s23.667 21 29 21zM600 39.9971v-40h-287c0 -38.667 -15.667 -69 -47 -91s-68 -33 -110 -33s-78.5 11 -109.5 33
s-46.5 52.333 -46.5 91v59l27 77c2.66699 9.33301 9.33398 14 20.001 14c5.33301 0 10.166 -1.66699 14.499 -5s6.5 -8 6.5 -14c0 -2 -0.666992 -5 -2 -9l-26 -77v-45c0 -24 11.833 -42.833 35.5 -56.5s51.5 -20.5 83.5 -20.5c30.667 0 57.167 6.66699 79.5 20
s33.5 32.333 33.5 57v126c0 16 7 24 21 24c13.333 0 20 -8 20 -24v-86h117v116c0 16 6.66699 24 20 24s20 -8 20 -24v-116h46c20 0 32.167 6.66699 36.5 20s6.5 47.333 6.5 102c0 6.66699 2 12 6 16s9 6 15 6c13.333 0 20 -7.66699 20 -23c0 -58.667 -3 -99 -9 -121h9z" />
    <glyph glyph-name="sheeninitialarabic" unicode="&#x634;" arabic-form="initial" 
d="M320 416c6 0 15.833 -7.16797 29.5 -21.501s20.5 -24.166 20.5 -29.499s-6.83301 -14.833 -20.5 -28.5s-23.5 -20.5 -29.5 -20.5s-15.833 6.83301 -29.5 20.5s-20.5 23.5 -20.5 29.5c0 5.33301 7 15 21 29s23.667 21 29 21zM400 345.999
c6 0 15.833 -7.16797 29.5 -21.501s20.5 -24.166 20.5 -29.499s-6.83301 -14.833 -20.5 -28.5s-23.5 -20.5 -29.5 -20.5s-15.833 6.83301 -29.5 20.5s-20.5 23.5 -20.5 29.5c0 5.33301 7 15 21 29s23.667 21 29 21zM240 345.998c6 0 15.833 -7.16797 29.5 -21.501
s20.5 -24.166 20.5 -29.499s-6.83301 -14.833 -20.5 -28.5s-23.5 -20.5 -29.5 -20.5s-15.833 6.83301 -29.5 20.5s-20.5 23.5 -20.5 29.5c0 5.33301 7 15 21 29s23.667 21 29 21zM530 160.997c0 -50.667 -2.5 -87.332 -7.5 -109.999s-12 -36.834 -21 -42.501
s-24.5 -8.5 -46.5 -8.5h-455v40h202v86c0 16 7 24 21 24c13.333 0 20 -8 20 -24v-86h117v116c0 16 6.66699 24 20 24s20 -8 20 -24v-116h46c20 0 32.167 6.66699 36.5 20s6.5 47.333 6.5 102c0 6.66699 2 12 6 16s9 6 15 6c13.333 0 20 -7.66699 20 -23z" />
    <glyph glyph-name="sheenmedialarabic" unicode="&#x634;" arabic-form="medial" 
d="M300 416c6 0 15.833 -7.16797 29.5 -21.501s20.5 -24.166 20.5 -29.499s-6.83301 -14.833 -20.5 -28.5s-23.5 -20.5 -29.5 -20.5s-15.833 6.83301 -29.5 20.5s-20.5 23.5 -20.5 29.5c0 5.33301 7 15 21 29s23.667 21 29 21zM380 345.999
c6 0 15.833 -7.16797 29.5 -21.501s20.5 -24.166 20.5 -29.499s-6.83301 -14.833 -20.5 -28.5s-23.5 -20.5 -29.5 -20.5s-15.833 6.83301 -29.5 20.5s-20.5 23.5 -20.5 29.5c0 5.33301 7 15 21 29s23.667 21 29 21zM220 345.998c6 0 15.833 -7.16797 29.5 -21.501
s20.5 -24.166 20.5 -29.499s-6.83301 -14.833 -20.5 -28.5s-23.5 -20.5 -29.5 -20.5s-15.833 6.83301 -29.5 20.5s-20.5 23.5 -20.5 29.5c0 5.33301 7 15 21 29s23.667 21 29 21zM600 39.9971v-40h-600v40h202v86c0 16 7 24 21 24c13.333 0 20 -8 20 -24v-86h117v116
c0 16 6.66699 24 20 24s20 -8 20 -24v-116h46c20 0 32.167 6.66699 36.5 20s6.5 47.333 6.5 102c0 6.66699 2 12 6 16s9 6 15 6c13.333 0 20 -7.66699 20 -23c0 -58.667 -3 -99 -9 -121h79z" />
    <glyph glyph-name="uniFEB9" unicode="&#x635;" arabic-form="isolated" 
d="M313 40c60 -10 114.334 -15 163.001 -15c27.333 0 48 7.16699 62 21.5s21 32.833 21 55.5c0 20 -7.33301 36.667 -22 50s-33.334 20 -56.001 20c-26 0 -55.5 -13 -88.5 -39s-59.5 -54.333 -79.5 -85v-8zM272.001 126c0 16 7.00098 23.999 21.001 23.999
c13.333 0 20 -8 20 -24v-21c18 26.667 42.833 51.334 74.5 74.001s63.5 34 95.5 34c33.333 0 61.166 -10.333 83.499 -31s33.5 -47.667 33.5 -81c0 -36 -11.333 -64.5 -34 -85.5s-53 -31.5 -91 -31.5c-48 0 -102 5.33301 -162 16c0 -38.667 -15.667 -69 -47 -91
s-68 -33 -110 -33s-78.5 11 -109.5 33s-46.5 52.333 -46.5 91v59l27 77c2.66699 9.33301 9.33398 14 20.001 14c5.33301 0 10.166 -1.66699 14.499 -5s6.5 -8 6.5 -14c0 -2 -0.666992 -5 -2 -9l-26 -77v-45c0 -24 11.833 -42.833 35.5 -56.5s51.5 -20.5 83.5 -20.5
c30.667 0 57.167 6.66699 79.5 20s33.5 32.333 33.5 57v126z" />
    <glyph glyph-name="sadfinalarabic" unicode="&#x635;" arabic-form="final" 
d="M600 40l0.000976562 -40.002h-56c-19.333 -10.667 -42.333 -16 -69 -16c-48 0 -102 5.33301 -162 16c0 -38.667 -15.667 -69 -47 -91s-68 -33 -110 -33s-78.5 11 -109.5 33s-46.5 52.333 -46.5 91v59l27 77c2.66699 9.33301 9.33398 14 20.001 14
c5.33301 0 10.166 -1.66699 14.499 -5s6.5 -8 6.5 -14c0 -2 -0.666992 -5 -2 -9l-26 -77v-45c0 -24 11.833 -42.833 35.5 -56.5s51.5 -20.5 83.5 -20.5c30.667 0 57.167 6.66699 79.5 20s33.5 32.333 33.5 57v126c0 16 7 24 21 24c13.333 0 20 -8 20 -24v-21
c18 26.667 42.833 51.334 74.5 74.001s63.5 34 95.5 34c33.333 0 61.166 -10.333 83.499 -31s33.5 -47.667 33.5 -81c0 -23.333 -5 -43.666 -15 -60.999h15zM313.001 39.998c60 -10 114.334 -15 163.001 -15c27.333 0 48 7.16699 62 21.5s21 32.833 21 55.5
c0 20 -7.33301 36.667 -22 50s-33.334 20 -56.001 20c-26 0 -55.5 -13 -88.5 -39s-59.5 -54.333 -79.5 -85v-8z" />
    <glyph glyph-name="sadinitialarabic" unicode="&#x635;" arabic-form="initial" 
d="M152 126c0 16 7.00098 23.999 21.001 23.999c13.333 0 20 -8 20 -24v-21c18 26.667 42.833 51.334 74.5 74.001s63.5 34 95.5 34c33.333 0 61.166 -10.333 83.499 -31s33.5 -47.667 33.5 -81c0 -36 -11.333 -64.5 -34 -85.5s-53 -31.5 -91 -31.5
c-48 0 -102 5.33301 -162 16h-193v40h152v86zM193.001 39.999c60 -10 114.334 -15 163.001 -15c27.333 0 48 7.16699 62 21.5s21 32.833 21 55.5c0 20 -7.33301 36.667 -22 50s-33.334 20 -56.001 20c-26 0 -55.5 -13 -88.5 -39s-59.5 -54.333 -79.5 -85v-8z" />
    <glyph glyph-name="sadmedialarabic" unicode="&#x635;" arabic-form="medial" 
d="M152 126c0 16 7.00098 23.998 21.001 23.998c13.333 0 20 -8 20 -24v-21c18 26.667 42.833 51.334 74.5 74.001s63.5 34 95.5 34c33.333 0 61.166 -10.333 83.499 -31s33.5 -47.667 33.5 -81c0 -23.333 -5 -43.666 -15 -60.999h135v-40h-176
c-19.333 -10.667 -42.333 -16 -69 -16c-48 0 -102 5.33301 -162 16h-193v40h152v86zM193.001 39.998c60 -10 114.334 -15 163.001 -15c27.333 0 48 7.16699 62 21.5s21 32.833 21 55.5c0 20 -7.33301 36.667 -22 50s-33.334 20 -56.001 20c-26 0 -55.5 -13 -88.5 -39
s-59.5 -54.333 -79.5 -85v-8z" />
    <glyph glyph-name="uniFEBD" unicode="&#x636;" arabic-form="isolated" 
d="M430 416c6 0 15.833 -7.16797 29.5 -21.501s20.5 -24.166 20.5 -29.499s-6.83301 -14.833 -20.5 -28.5s-23.5 -20.5 -29.5 -20.5s-15.833 6.83301 -29.5 20.5s-20.5 23.5 -20.5 29.5c0 5.33301 7 15 21 29s23.667 21 29 21zM313 39.999c60 -10 114.334 -15 163.001 -15
c27.333 0 48 7.16699 62 21.5s21 32.833 21 55.5c0 20 -7.33301 36.667 -22 50s-33.334 20 -56.001 20c-26 0 -55.5 -13 -88.5 -39s-59.5 -54.333 -79.5 -85v-8zM272.001 125.999c0 16 7.00098 23.999 21.001 23.999c13.333 0 20 -8 20 -24v-21
c18 26.667 42.833 51.334 74.5 74.001s63.5 34 95.5 34c33.333 0 61.166 -10.333 83.499 -31s33.5 -47.667 33.5 -81c0 -36 -11.333 -64.5 -34 -85.5s-53 -31.5 -91 -31.5c-48 0 -102 5.33301 -162 16c0 -38.667 -15.667 -69 -47 -91s-68 -33 -110 -33s-78.5 11 -109.5 33
s-46.5 52.333 -46.5 91v59l27 77c2.66699 9.33301 9.33398 14 20.001 14c5.33301 0 10.166 -1.66699 14.499 -5s6.5 -8 6.5 -14c0 -2 -0.666992 -5 -2 -9l-26 -77v-45c0 -24 11.833 -42.833 35.5 -56.5s51.5 -20.5 83.5 -20.5c30.667 0 57.167 6.66699 79.5 20
s33.5 32.333 33.5 57v126z" />
    <glyph glyph-name="dadfinalarabic" unicode="&#x636;" arabic-form="final" 
d="M430 416c6 0 15.833 -7.16797 29.5 -21.501s20.5 -24.166 20.5 -29.499s-6.83301 -14.833 -20.5 -28.5s-23.5 -20.5 -29.5 -20.5s-15.833 6.83301 -29.5 20.5s-20.5 23.5 -20.5 29.5c0 5.33301 7 15 21 29s23.667 21 29 21zM600 39.999l0.000976562 -40.002h-56
c-19.333 -10.667 -42.333 -16 -69 -16c-48 0 -102 5.33301 -162 16c0 -38.667 -15.667 -69 -47 -91s-68 -33 -110 -33s-78.5 11 -109.5 33s-46.5 52.333 -46.5 91v59l27 77c2.66699 9.33301 9.33398 14 20.001 14c5.33301 0 10.166 -1.66699 14.499 -5s6.5 -8 6.5 -14
c0 -2 -0.666992 -5 -2 -9l-26 -77v-45c0 -24 11.833 -42.833 35.5 -56.5s51.5 -20.5 83.5 -20.5c30.667 0 57.167 6.66699 79.5 20s33.5 32.333 33.5 57v126c0 16 7 24 21 24c13.333 0 20 -8 20 -24v-21c18 26.667 42.833 51.334 74.5 74.001s63.5 34 95.5 34
c33.333 0 61.166 -10.333 83.499 -31s33.5 -47.667 33.5 -81c0 -23.333 -5 -43.666 -15 -60.999h15zM313.001 39.9971c60 -10 114.334 -15 163.001 -15c27.333 0 48 7.16699 62 21.5s21 32.833 21 55.5c0 20 -7.33301 36.667 -22 50s-33.334 20 -56.001 20
c-26 0 -55.5 -13 -88.5 -39s-59.5 -54.333 -79.5 -85v-8z" />
    <glyph glyph-name="dadinitialarabic" unicode="&#x636;" arabic-form="initial" 
d="M300 416c6 0 15.833 -7.16797 29.5 -21.501s20.5 -24.166 20.5 -29.499s-6.83301 -14.833 -20.5 -28.5s-23.5 -20.5 -29.5 -20.5s-15.833 6.83301 -29.5 20.5s-20.5 23.5 -20.5 29.5c0 5.33301 7 15 21 29s23.667 21 29 21zM152 125.999
c0 16 7.00098 23.999 21.001 23.999c13.333 0 20 -8 20 -24v-21c18 26.667 42.833 51.334 74.5 74.001s63.5 34 95.5 34c33.333 0 61.166 -10.333 83.499 -31s33.5 -47.667 33.5 -81c0 -36 -11.333 -64.5 -34 -85.5s-53 -31.5 -91 -31.5c-48 0 -102 5.33301 -162 16h-193v40
h152v86zM193.001 39.998c60 -10 114.334 -15 163.001 -15c27.333 0 48 7.16699 62 21.5s21 32.833 21 55.5c0 20 -7.33301 36.667 -22 50s-33.334 20 -56.001 20c-26 0 -55.5 -13 -88.5 -39s-59.5 -54.333 -79.5 -85v-8z" />
    </font>
</defs>
</svg>
